%TF.GenerationSoftware,KiCad,Pcbnew,9.0.2-9.0.2-0~ubuntu24.04.1*%
%TF.CreationDate,2025-06-25T14:04:03-04:00*%
%TF.ProjectId,tiny-avr,74696e79-2d61-4767-922e-6b696361645f,rev?*%
%TF.SameCoordinates,Original*%
%TF.FileFunction,Legend,Top*%
%TF.FilePolarity,Positive*%
%FSLAX46Y46*%
G04 Gerber Fmt 4.6, Leading zero omitted, Abs format (unit mm)*
G04 Created by KiCad (PCBNEW 9.0.2-9.0.2-0~ubuntu24.04.1) date 2025-06-25 14:04:03*
%MOMM*%
%LPD*%
G01*
G04 APERTURE LIST*
%ADD10C,0.150000*%
%ADD11C,0.120000*%
G04 APERTURE END LIST*
D10*
X77978095Y-47179819D02*
X77978095Y-47989342D01*
X77978095Y-47989342D02*
X78025714Y-48084580D01*
X78025714Y-48084580D02*
X78073333Y-48132200D01*
X78073333Y-48132200D02*
X78168571Y-48179819D01*
X78168571Y-48179819D02*
X78359047Y-48179819D01*
X78359047Y-48179819D02*
X78454285Y-48132200D01*
X78454285Y-48132200D02*
X78501904Y-48084580D01*
X78501904Y-48084580D02*
X78549523Y-47989342D01*
X78549523Y-47989342D02*
X78549523Y-47179819D01*
X78978095Y-47275057D02*
X79025714Y-47227438D01*
X79025714Y-47227438D02*
X79120952Y-47179819D01*
X79120952Y-47179819D02*
X79359047Y-47179819D01*
X79359047Y-47179819D02*
X79454285Y-47227438D01*
X79454285Y-47227438D02*
X79501904Y-47275057D01*
X79501904Y-47275057D02*
X79549523Y-47370295D01*
X79549523Y-47370295D02*
X79549523Y-47465533D01*
X79549523Y-47465533D02*
X79501904Y-47608390D01*
X79501904Y-47608390D02*
X78930476Y-48179819D01*
X78930476Y-48179819D02*
X79549523Y-48179819D01*
X78436666Y-61744819D02*
X78436666Y-62459104D01*
X78436666Y-62459104D02*
X78389047Y-62601961D01*
X78389047Y-62601961D02*
X78293809Y-62697200D01*
X78293809Y-62697200D02*
X78150952Y-62744819D01*
X78150952Y-62744819D02*
X78055714Y-62744819D01*
X78817619Y-61744819D02*
X79436666Y-61744819D01*
X79436666Y-61744819D02*
X79103333Y-62125771D01*
X79103333Y-62125771D02*
X79246190Y-62125771D01*
X79246190Y-62125771D02*
X79341428Y-62173390D01*
X79341428Y-62173390D02*
X79389047Y-62221009D01*
X79389047Y-62221009D02*
X79436666Y-62316247D01*
X79436666Y-62316247D02*
X79436666Y-62554342D01*
X79436666Y-62554342D02*
X79389047Y-62649580D01*
X79389047Y-62649580D02*
X79341428Y-62697200D01*
X79341428Y-62697200D02*
X79246190Y-62744819D01*
X79246190Y-62744819D02*
X78960476Y-62744819D01*
X78960476Y-62744819D02*
X78865238Y-62697200D01*
X78865238Y-62697200D02*
X78817619Y-62649580D01*
X78280833Y-34704580D02*
X78233214Y-34752200D01*
X78233214Y-34752200D02*
X78090357Y-34799819D01*
X78090357Y-34799819D02*
X77995119Y-34799819D01*
X77995119Y-34799819D02*
X77852262Y-34752200D01*
X77852262Y-34752200D02*
X77757024Y-34656961D01*
X77757024Y-34656961D02*
X77709405Y-34561723D01*
X77709405Y-34561723D02*
X77661786Y-34371247D01*
X77661786Y-34371247D02*
X77661786Y-34228390D01*
X77661786Y-34228390D02*
X77709405Y-34037914D01*
X77709405Y-34037914D02*
X77757024Y-33942676D01*
X77757024Y-33942676D02*
X77852262Y-33847438D01*
X77852262Y-33847438D02*
X77995119Y-33799819D01*
X77995119Y-33799819D02*
X78090357Y-33799819D01*
X78090357Y-33799819D02*
X78233214Y-33847438D01*
X78233214Y-33847438D02*
X78280833Y-33895057D01*
X79233214Y-34799819D02*
X78661786Y-34799819D01*
X78947500Y-34799819D02*
X78947500Y-33799819D01*
X78947500Y-33799819D02*
X78852262Y-33942676D01*
X78852262Y-33942676D02*
X78757024Y-34037914D01*
X78757024Y-34037914D02*
X78661786Y-34085533D01*
X81174819Y-44396904D02*
X81984342Y-44396904D01*
X81984342Y-44396904D02*
X82079580Y-44349285D01*
X82079580Y-44349285D02*
X82127200Y-44301666D01*
X82127200Y-44301666D02*
X82174819Y-44206428D01*
X82174819Y-44206428D02*
X82174819Y-44015952D01*
X82174819Y-44015952D02*
X82127200Y-43920714D01*
X82127200Y-43920714D02*
X82079580Y-43873095D01*
X82079580Y-43873095D02*
X81984342Y-43825476D01*
X81984342Y-43825476D02*
X81174819Y-43825476D01*
X82174819Y-42825476D02*
X82174819Y-43396904D01*
X82174819Y-43111190D02*
X81174819Y-43111190D01*
X81174819Y-43111190D02*
X81317676Y-43206428D01*
X81317676Y-43206428D02*
X81412914Y-43301666D01*
X81412914Y-43301666D02*
X81460533Y-43396904D01*
%TO.C,U2*%
X75865000Y-48650000D02*
X75865000Y-49225000D01*
X75865000Y-48650000D02*
X81615000Y-48650000D01*
X75865000Y-58725000D02*
X75865000Y-59300000D01*
X75865000Y-59300000D02*
X81615000Y-59300000D01*
X81615000Y-48650000D02*
X81615000Y-49225000D01*
X81615000Y-58725000D02*
X81615000Y-59300000D01*
D11*
X75365000Y-49225000D02*
X75125000Y-48895000D01*
X75605000Y-48895000D01*
X75365000Y-49225000D01*
G36*
X75365000Y-49225000D02*
G01*
X75125000Y-48895000D01*
X75605000Y-48895000D01*
X75365000Y-49225000D01*
G37*
D10*
%TO.C,J3*%
X74620000Y-63390000D02*
X82920000Y-63390000D01*
X74620000Y-63865000D02*
X74620000Y-63390000D01*
X74620000Y-66115000D02*
X74620000Y-66590000D01*
X74620000Y-66590000D02*
X82920000Y-66590000D01*
X76470000Y-63090000D02*
X78470000Y-63090000D01*
X82920000Y-63390000D02*
X82920000Y-63865000D01*
X82920000Y-66590000D02*
X82920000Y-66115000D01*
D11*
%TO.C,C1*%
X77736248Y-35285000D02*
X79158752Y-35285000D01*
X77736248Y-37105000D02*
X79158752Y-37105000D01*
%TO.C,U1*%
X80080000Y-42025000D02*
X80290000Y-42025000D01*
X77310000Y-42025000D02*
X77760000Y-42025000D01*
X80530000Y-42475000D02*
X80530000Y-42325000D01*
X77310000Y-42475000D02*
X77310000Y-42025000D01*
X80530000Y-44795000D02*
X80530000Y-45245000D01*
X77310000Y-44795000D02*
X77310000Y-45245000D01*
X80530000Y-45245000D02*
X80080000Y-45245000D01*
X77310000Y-45245000D02*
X77760000Y-45245000D01*
X80860000Y-42265000D02*
X80530000Y-42025000D01*
X80860000Y-41785000D01*
X80860000Y-42265000D01*
G36*
X80860000Y-42265000D02*
G01*
X80530000Y-42025000D01*
X80860000Y-41785000D01*
X80860000Y-42265000D01*
G37*
%TD*%
M02*
