%TF.GenerationSoftware,KiCad,Pcbnew,9.0.2-9.0.2-0~ubuntu24.04.1*%
%TF.CreationDate,2025-06-25T14:04:04-04:00*%
%TF.ProjectId,tiny-avr,74696e79-2d61-4767-922e-6b696361645f,rev?*%
%TF.SameCoordinates,Original*%
%TF.FileFunction,Legend,Bot*%
%TF.FilePolarity,Positive*%
%FSLAX46Y46*%
G04 Gerber Fmt 4.6, Leading zero omitted, Abs format (unit mm)*
G04 Created by KiCad (PCBNEW 9.0.2-9.0.2-0~ubuntu24.04.1) date 2025-06-25 14:04:04*
%MOMM*%
%LPD*%
G01*
G04 APERTURE LIST*
%ADD10C,0.150000*%
%ADD11C,0.120000*%
G04 APERTURE END LIST*
D10*
X86693333Y-34634819D02*
X86693333Y-35349104D01*
X86693333Y-35349104D02*
X86740952Y-35491961D01*
X86740952Y-35491961D02*
X86836190Y-35587200D01*
X86836190Y-35587200D02*
X86979047Y-35634819D01*
X86979047Y-35634819D02*
X87074285Y-35634819D01*
X86264761Y-34730057D02*
X86217142Y-34682438D01*
X86217142Y-34682438D02*
X86121904Y-34634819D01*
X86121904Y-34634819D02*
X85883809Y-34634819D01*
X85883809Y-34634819D02*
X85788571Y-34682438D01*
X85788571Y-34682438D02*
X85740952Y-34730057D01*
X85740952Y-34730057D02*
X85693333Y-34825295D01*
X85693333Y-34825295D02*
X85693333Y-34920533D01*
X85693333Y-34920533D02*
X85740952Y-35063390D01*
X85740952Y-35063390D02*
X86312380Y-35634819D01*
X86312380Y-35634819D02*
X85693333Y-35634819D01*
X71453333Y-34634819D02*
X71453333Y-35349104D01*
X71453333Y-35349104D02*
X71500952Y-35491961D01*
X71500952Y-35491961D02*
X71596190Y-35587200D01*
X71596190Y-35587200D02*
X71739047Y-35634819D01*
X71739047Y-35634819D02*
X71834285Y-35634819D01*
X70453333Y-35634819D02*
X71024761Y-35634819D01*
X70739047Y-35634819D02*
X70739047Y-34634819D01*
X70739047Y-34634819D02*
X70834285Y-34777676D01*
X70834285Y-34777676D02*
X70929523Y-34872914D01*
X70929523Y-34872914D02*
X71024761Y-34920533D01*
D11*
%TO.C,J2*%
X87740000Y-36180000D02*
X86360000Y-36180000D01*
X87740000Y-37560000D02*
X87740000Y-36180000D01*
X87740000Y-38830000D02*
X87740000Y-66880000D01*
X87740000Y-38830000D02*
X84980000Y-38830000D01*
X87740000Y-66880000D02*
X84980000Y-66880000D01*
X84980000Y-38830000D02*
X84980000Y-66880000D01*
%TO.C,J1*%
X72500000Y-36180000D02*
X71120000Y-36180000D01*
X72500000Y-37560000D02*
X72500000Y-36180000D01*
X72500000Y-38830000D02*
X72500000Y-66880000D01*
X72500000Y-38830000D02*
X69740000Y-38830000D01*
X72500000Y-66880000D02*
X69740000Y-66880000D01*
X69740000Y-38830000D02*
X69740000Y-66880000D01*
%TD*%
M02*
