%TF.GenerationSoftware,KiCad,Pcbnew,9.0.2-9.0.2-0~ubuntu24.04.1*%
%TF.CreationDate,2025-06-25T14:04:04-04:00*%
%TF.ProjectId,tiny-avr,74696e79-2d61-4767-922e-6b696361645f,rev?*%
%TF.SameCoordinates,Original*%
%TF.FileFunction,Soldermask,Top*%
%TF.FilePolarity,Negative*%
%FSLAX46Y46*%
G04 Gerber Fmt 4.6, Leading zero omitted, Abs format (unit mm)*
G04 Created by KiCad (PCBNEW 9.0.2-9.0.2-0~ubuntu24.04.1) date 2025-06-25 14:04:04*
%MOMM*%
%LPD*%
G01*
G04 APERTURE LIST*
G04 Aperture macros list*
%AMRoundRect*
0 Rectangle with rounded corners*
0 $1 Rounding radius*
0 $2 $3 $4 $5 $6 $7 $8 $9 X,Y pos of 4 corners*
0 Add a 4 corners polygon primitive as box body*
4,1,4,$2,$3,$4,$5,$6,$7,$8,$9,$2,$3,0*
0 Add four circle primitives for the rounded corners*
1,1,$1+$1,$2,$3*
1,1,$1+$1,$4,$5*
1,1,$1+$1,$6,$7*
1,1,$1+$1,$8,$9*
0 Add four rect primitives between the rounded corners*
20,1,$1+$1,$2,$3,$4,$5,0*
20,1,$1+$1,$4,$5,$6,$7,0*
20,1,$1+$1,$6,$7,$8,$9,0*
20,1,$1+$1,$8,$9,$2,$3,0*%
%AMFreePoly0*
4,1,14,0.334644,0.085355,0.385355,0.034644,0.400000,-0.000711,0.400000,-0.050000,0.385355,-0.085355,0.350000,-0.100000,-0.350000,-0.100000,-0.385355,-0.085355,-0.400000,-0.050000,-0.400000,0.050000,-0.385355,0.085355,-0.350000,0.100000,0.299289,0.100000,0.334644,0.085355,0.334644,0.085355,$1*%
%AMFreePoly1*
4,1,14,0.385355,0.085355,0.400000,0.050000,0.400000,0.000711,0.385355,-0.034644,0.334644,-0.085355,0.299289,-0.100000,-0.350000,-0.100000,-0.385355,-0.085355,-0.400000,-0.050000,-0.400000,0.050000,-0.385355,0.085355,-0.350000,0.100000,0.350000,0.100000,0.385355,0.085355,0.385355,0.085355,$1*%
%AMFreePoly2*
4,1,14,0.085355,0.385355,0.100000,0.350000,0.100000,-0.350000,0.085355,-0.385355,0.050000,-0.400000,-0.050000,-0.400000,-0.085355,-0.385355,-0.100000,-0.350000,-0.100000,0.299289,-0.085355,0.334644,-0.034644,0.385355,0.000711,0.400000,0.050000,0.400000,0.085355,0.385355,0.085355,0.385355,$1*%
%AMFreePoly3*
4,1,14,0.034644,0.385355,0.085355,0.334644,0.100000,0.299289,0.100000,-0.350000,0.085355,-0.385355,0.050000,-0.400000,-0.050000,-0.400000,-0.085355,-0.385355,-0.100000,-0.350000,-0.100000,0.350000,-0.085355,0.385355,-0.050000,0.400000,-0.000711,0.400000,0.034644,0.385355,0.034644,0.385355,$1*%
%AMFreePoly4*
4,1,14,0.385355,0.085355,0.400000,0.050000,0.400000,-0.050000,0.385355,-0.085355,0.350000,-0.100000,-0.299289,-0.100000,-0.334644,-0.085355,-0.385355,-0.034644,-0.400000,0.000711,-0.400000,0.050000,-0.385355,0.085355,-0.350000,0.100000,0.350000,0.100000,0.385355,0.085355,0.385355,0.085355,$1*%
%AMFreePoly5*
4,1,14,0.385355,0.085355,0.400000,0.050000,0.400000,-0.050000,0.385355,-0.085355,0.350000,-0.100000,-0.350000,-0.100000,-0.385355,-0.085355,-0.400000,-0.050000,-0.400000,-0.000711,-0.385355,0.034644,-0.334644,0.085355,-0.299289,0.100000,0.350000,0.100000,0.385355,0.085355,0.385355,0.085355,$1*%
%AMFreePoly6*
4,1,14,0.085355,0.385355,0.100000,0.350000,0.100000,-0.299289,0.085355,-0.334644,0.034644,-0.385355,-0.000711,-0.400000,-0.050000,-0.400000,-0.085355,-0.385355,-0.100000,-0.350000,-0.100000,0.350000,-0.085355,0.385355,-0.050000,0.400000,0.050000,0.400000,0.085355,0.385355,0.085355,0.385355,$1*%
%AMFreePoly7*
4,1,14,0.085355,0.385355,0.100000,0.350000,0.100000,-0.350000,0.085355,-0.385355,0.050000,-0.400000,0.000711,-0.400000,-0.034644,-0.385355,-0.085355,-0.334644,-0.100000,-0.299289,-0.100000,0.350000,-0.085355,0.385355,-0.050000,0.400000,0.050000,0.400000,0.085355,0.385355,0.085355,0.385355,$1*%
G04 Aperture macros list end*
%ADD10R,1.750000X0.450000*%
%ADD11R,0.840000X0.840000*%
%ADD12C,0.840000*%
%ADD13C,1.850000*%
%ADD14R,1.700000X1.700000*%
%ADD15C,1.700000*%
%ADD16RoundRect,0.250000X-0.412500X-0.650000X0.412500X-0.650000X0.412500X0.650000X-0.412500X0.650000X0*%
%ADD17FreePoly0,270.000000*%
%ADD18RoundRect,0.050000X-0.050000X0.350000X-0.050000X-0.350000X0.050000X-0.350000X0.050000X0.350000X0*%
%ADD19FreePoly1,270.000000*%
%ADD20FreePoly2,270.000000*%
%ADD21RoundRect,0.050000X-0.350000X0.050000X-0.350000X-0.050000X0.350000X-0.050000X0.350000X0.050000X0*%
%ADD22FreePoly3,270.000000*%
%ADD23FreePoly4,270.000000*%
%ADD24FreePoly5,270.000000*%
%ADD25FreePoly6,270.000000*%
%ADD26FreePoly7,270.000000*%
G04 APERTURE END LIST*
D10*
%TO.C,U2*%
X75140000Y-49750000D03*
X75140000Y-50400000D03*
X75140000Y-51050000D03*
X75140000Y-51700000D03*
X75140000Y-52350000D03*
X75140000Y-53000000D03*
X75140000Y-53650000D03*
X75140000Y-54300000D03*
X75140000Y-54950000D03*
X75140000Y-55600000D03*
X75140000Y-56250000D03*
X75140000Y-56900000D03*
X75140000Y-57550000D03*
X75140000Y-58200000D03*
X82340000Y-58200000D03*
X82340000Y-57550000D03*
X82340000Y-56900000D03*
X82340000Y-56250000D03*
X82340000Y-55600000D03*
X82340000Y-54950000D03*
X82340000Y-54300000D03*
X82340000Y-53650000D03*
X82340000Y-53000000D03*
X82340000Y-52350000D03*
X82340000Y-51700000D03*
X82340000Y-51050000D03*
X82340000Y-50400000D03*
X82340000Y-49750000D03*
%TD*%
D11*
%TO.C,J3*%
X77470000Y-64770000D03*
D12*
X78120000Y-65770000D03*
X78770000Y-64770000D03*
X79420000Y-65770000D03*
X80070000Y-64770000D03*
D13*
X75195000Y-64990000D03*
X82345000Y-64990000D03*
%TD*%
D14*
%TO.C,J2*%
X86360000Y-37560000D03*
D15*
X86360000Y-40100000D03*
X86360000Y-42640000D03*
X86360000Y-45180000D03*
X86360000Y-47720000D03*
X86360000Y-50260000D03*
X86360000Y-52800000D03*
X86360000Y-55340000D03*
X86360000Y-57880000D03*
X86360000Y-60420000D03*
X86360000Y-62960000D03*
X86360000Y-65500000D03*
%TD*%
D14*
%TO.C,J1*%
X71120000Y-37560000D03*
D15*
X71120000Y-40100000D03*
X71120000Y-42640000D03*
X71120000Y-45180000D03*
X71120000Y-47720000D03*
X71120000Y-50260000D03*
X71120000Y-52800000D03*
X71120000Y-55340000D03*
X71120000Y-57880000D03*
X71120000Y-60420000D03*
X71120000Y-62960000D03*
X71120000Y-65500000D03*
%TD*%
D16*
%TO.C,C1*%
X76885000Y-36195000D03*
X80010000Y-36195000D03*
%TD*%
D17*
%TO.C,U1*%
X79720000Y-42185000D03*
D18*
X79320000Y-42185000D03*
X78920000Y-42185000D03*
X78520000Y-42185000D03*
D19*
X78120000Y-42185000D03*
D20*
X77470000Y-42835000D03*
D21*
X77470000Y-43235000D03*
X77470000Y-43635000D03*
X77470000Y-44035000D03*
D22*
X77470000Y-44435000D03*
D23*
X78120000Y-45085000D03*
D18*
X78520000Y-45085000D03*
X78920000Y-45085000D03*
X79320000Y-45085000D03*
D24*
X79720000Y-45085000D03*
D25*
X80370000Y-44435000D03*
D21*
X80370000Y-44035000D03*
X80370000Y-43635000D03*
X80370000Y-43235000D03*
D26*
X80370000Y-42835000D03*
D14*
X78920000Y-43635000D03*
%TD*%
M02*
