%TF.GenerationSoftware,KiCad,Pcbnew,9.0.2-9.0.2-0~ubuntu24.04.1*%
%TF.CreationDate,2025-06-25T14:04:03-04:00*%
%TF.ProjectId,tiny-avr,74696e79-2d61-4767-922e-6b696361645f,rev?*%
%TF.SameCoordinates,Original*%
%TF.FileFunction,Copper,L1,Top*%
%TF.FilePolarity,Positive*%
%FSLAX46Y46*%
G04 Gerber Fmt 4.6, Leading zero omitted, Abs format (unit mm)*
G04 Created by KiCad (PCBNEW 9.0.2-9.0.2-0~ubuntu24.04.1) date 2025-06-25 14:04:03*
%MOMM*%
%LPD*%
G01*
G04 APERTURE LIST*
G04 Aperture macros list*
%AMRoundRect*
0 Rectangle with rounded corners*
0 $1 Rounding radius*
0 $2 $3 $4 $5 $6 $7 $8 $9 X,Y pos of 4 corners*
0 Add a 4 corners polygon primitive as box body*
4,1,4,$2,$3,$4,$5,$6,$7,$8,$9,$2,$3,0*
0 Add four circle primitives for the rounded corners*
1,1,$1+$1,$2,$3*
1,1,$1+$1,$4,$5*
1,1,$1+$1,$6,$7*
1,1,$1+$1,$8,$9*
0 Add four rect primitives between the rounded corners*
20,1,$1+$1,$2,$3,$4,$5,0*
20,1,$1+$1,$4,$5,$6,$7,0*
20,1,$1+$1,$6,$7,$8,$9,0*
20,1,$1+$1,$8,$9,$2,$3,0*%
%AMFreePoly0*
4,1,14,0.334644,0.085355,0.385355,0.034644,0.400000,-0.000711,0.400000,-0.050000,0.385355,-0.085355,0.350000,-0.100000,-0.350000,-0.100000,-0.385355,-0.085355,-0.400000,-0.050000,-0.400000,0.050000,-0.385355,0.085355,-0.350000,0.100000,0.299289,0.100000,0.334644,0.085355,0.334644,0.085355,$1*%
%AMFreePoly1*
4,1,14,0.385355,0.085355,0.400000,0.050000,0.400000,0.000711,0.385355,-0.034644,0.334644,-0.085355,0.299289,-0.100000,-0.350000,-0.100000,-0.385355,-0.085355,-0.400000,-0.050000,-0.400000,0.050000,-0.385355,0.085355,-0.350000,0.100000,0.350000,0.100000,0.385355,0.085355,0.385355,0.085355,$1*%
%AMFreePoly2*
4,1,14,0.085355,0.385355,0.100000,0.350000,0.100000,-0.350000,0.085355,-0.385355,0.050000,-0.400000,-0.050000,-0.400000,-0.085355,-0.385355,-0.100000,-0.350000,-0.100000,0.299289,-0.085355,0.334644,-0.034644,0.385355,0.000711,0.400000,0.050000,0.400000,0.085355,0.385355,0.085355,0.385355,$1*%
%AMFreePoly3*
4,1,14,0.034644,0.385355,0.085355,0.334644,0.100000,0.299289,0.100000,-0.350000,0.085355,-0.385355,0.050000,-0.400000,-0.050000,-0.400000,-0.085355,-0.385355,-0.100000,-0.350000,-0.100000,0.350000,-0.085355,0.385355,-0.050000,0.400000,-0.000711,0.400000,0.034644,0.385355,0.034644,0.385355,$1*%
%AMFreePoly4*
4,1,14,0.385355,0.085355,0.400000,0.050000,0.400000,-0.050000,0.385355,-0.085355,0.350000,-0.100000,-0.299289,-0.100000,-0.334644,-0.085355,-0.385355,-0.034644,-0.400000,0.000711,-0.400000,0.050000,-0.385355,0.085355,-0.350000,0.100000,0.350000,0.100000,0.385355,0.085355,0.385355,0.085355,$1*%
%AMFreePoly5*
4,1,14,0.385355,0.085355,0.400000,0.050000,0.400000,-0.050000,0.385355,-0.085355,0.350000,-0.100000,-0.350000,-0.100000,-0.385355,-0.085355,-0.400000,-0.050000,-0.400000,-0.000711,-0.385355,0.034644,-0.334644,0.085355,-0.299289,0.100000,0.350000,0.100000,0.385355,0.085355,0.385355,0.085355,$1*%
%AMFreePoly6*
4,1,14,0.085355,0.385355,0.100000,0.350000,0.100000,-0.299289,0.085355,-0.334644,0.034644,-0.385355,-0.000711,-0.400000,-0.050000,-0.400000,-0.085355,-0.385355,-0.100000,-0.350000,-0.100000,0.350000,-0.085355,0.385355,-0.050000,0.400000,0.050000,0.400000,0.085355,0.385355,0.085355,0.385355,$1*%
%AMFreePoly7*
4,1,14,0.085355,0.385355,0.100000,0.350000,0.100000,-0.350000,0.085355,-0.385355,0.050000,-0.400000,0.000711,-0.400000,-0.034644,-0.385355,-0.085355,-0.334644,-0.100000,-0.299289,-0.100000,0.350000,-0.085355,0.385355,-0.050000,0.400000,0.050000,0.400000,0.085355,0.385355,0.085355,0.385355,$1*%
G04 Aperture macros list end*
%TA.AperFunction,SMDPad,CuDef*%
%ADD10R,1.750000X0.450000*%
%TD*%
%TA.AperFunction,ComponentPad*%
%ADD11R,0.840000X0.840000*%
%TD*%
%TA.AperFunction,ComponentPad*%
%ADD12C,0.840000*%
%TD*%
%TA.AperFunction,ComponentPad*%
%ADD13C,1.850000*%
%TD*%
%TA.AperFunction,ComponentPad*%
%ADD14R,1.700000X1.700000*%
%TD*%
%TA.AperFunction,ComponentPad*%
%ADD15C,1.700000*%
%TD*%
%TA.AperFunction,SMDPad,CuDef*%
%ADD16RoundRect,0.250000X-0.412500X-0.650000X0.412500X-0.650000X0.412500X0.650000X-0.412500X0.650000X0*%
%TD*%
%TA.AperFunction,SMDPad,CuDef*%
%ADD17FreePoly0,270.000000*%
%TD*%
%TA.AperFunction,SMDPad,CuDef*%
%ADD18RoundRect,0.050000X-0.050000X0.350000X-0.050000X-0.350000X0.050000X-0.350000X0.050000X0.350000X0*%
%TD*%
%TA.AperFunction,SMDPad,CuDef*%
%ADD19FreePoly1,270.000000*%
%TD*%
%TA.AperFunction,SMDPad,CuDef*%
%ADD20FreePoly2,270.000000*%
%TD*%
%TA.AperFunction,SMDPad,CuDef*%
%ADD21RoundRect,0.050000X-0.350000X0.050000X-0.350000X-0.050000X0.350000X-0.050000X0.350000X0.050000X0*%
%TD*%
%TA.AperFunction,SMDPad,CuDef*%
%ADD22FreePoly3,270.000000*%
%TD*%
%TA.AperFunction,SMDPad,CuDef*%
%ADD23FreePoly4,270.000000*%
%TD*%
%TA.AperFunction,SMDPad,CuDef*%
%ADD24FreePoly5,270.000000*%
%TD*%
%TA.AperFunction,SMDPad,CuDef*%
%ADD25FreePoly6,270.000000*%
%TD*%
%TA.AperFunction,SMDPad,CuDef*%
%ADD26FreePoly7,270.000000*%
%TD*%
%TA.AperFunction,HeatsinkPad*%
%ADD27R,1.700000X1.700000*%
%TD*%
G04 APERTURE END LIST*
D10*
%TO.P,U2,1,TXD*%
%TO.N,unconnected-(U2-TXD-Pad1)*%
X75140000Y-49750000D03*
%TO.P,U2,2,DTR*%
%TO.N,unconnected-(U2-DTR-Pad2)*%
X75140000Y-50400000D03*
%TO.P,U2,3,RTS*%
%TO.N,unconnected-(U2-RTS-Pad3)*%
X75140000Y-51050000D03*
%TO.P,U2,4,VCCIO*%
%TO.N,unconnected-(U2-VCCIO-Pad4)*%
X75140000Y-51700000D03*
%TO.P,U2,5,RXD*%
%TO.N,unconnected-(U2-RXD-Pad5)*%
X75140000Y-52350000D03*
%TO.P,U2,6,RI*%
%TO.N,unconnected-(U2-RI-Pad6)*%
X75140000Y-53000000D03*
%TO.P,U2,7,GND*%
%TO.N,unconnected-(U2-GND-Pad7)*%
X75140000Y-53650000D03*
%TO.P,U2,8*%
%TO.N,N/C*%
X75140000Y-54300000D03*
%TO.P,U2,9,DCR*%
%TO.N,unconnected-(U2-DCR-Pad9)*%
X75140000Y-54950000D03*
%TO.P,U2,10,DCD*%
%TO.N,unconnected-(U2-DCD-Pad10)*%
X75140000Y-55600000D03*
%TO.P,U2,11,CTS*%
%TO.N,unconnected-(U2-CTS-Pad11)*%
X75140000Y-56250000D03*
%TO.P,U2,12,CBUS4*%
%TO.N,unconnected-(U2-CBUS4-Pad12)*%
X75140000Y-56900000D03*
%TO.P,U2,13,CBUS2*%
%TO.N,unconnected-(U2-CBUS2-Pad13)*%
X75140000Y-57550000D03*
%TO.P,U2,14,CBUS3*%
%TO.N,unconnected-(U2-CBUS3-Pad14)*%
X75140000Y-58200000D03*
%TO.P,U2,15,USBD+*%
%TO.N,unconnected-(U2-USBD+-Pad15)*%
X82340000Y-58200000D03*
%TO.P,U2,16,USBD-*%
%TO.N,unconnected-(U2-USBD--Pad16)*%
X82340000Y-57550000D03*
%TO.P,U2,17,3V3OUT*%
%TO.N,unconnected-(U2-3V3OUT-Pad17)*%
X82340000Y-56900000D03*
%TO.P,U2,18,GND*%
%TO.N,unconnected-(U2-GND-Pad18)*%
X82340000Y-56250000D03*
%TO.P,U2,19,~{RESET}*%
%TO.N,unconnected-(U2-~{RESET}-Pad19)*%
X82340000Y-55600000D03*
%TO.P,U2,20,VCC*%
%TO.N,unconnected-(U2-VCC-Pad20)*%
X82340000Y-54950000D03*
%TO.P,U2,21,GND*%
%TO.N,unconnected-(U2-GND-Pad21)*%
X82340000Y-54300000D03*
%TO.P,U2,22,CBUS1*%
%TO.N,unconnected-(U2-CBUS1-Pad22)*%
X82340000Y-53650000D03*
%TO.P,U2,23,CBUS0*%
%TO.N,unconnected-(U2-CBUS0-Pad23)*%
X82340000Y-53000000D03*
%TO.P,U2,24*%
%TO.N,N/C*%
X82340000Y-52350000D03*
%TO.P,U2,25,AGND*%
%TO.N,unconnected-(U2-AGND-Pad25)*%
X82340000Y-51700000D03*
%TO.P,U2,26,TEST*%
%TO.N,unconnected-(U2-TEST-Pad26)*%
X82340000Y-51050000D03*
%TO.P,U2,27,OSCI*%
%TO.N,unconnected-(U2-OSCI-Pad27)*%
X82340000Y-50400000D03*
%TO.P,U2,28,OSCO*%
%TO.N,unconnected-(U2-OSCO-Pad28)*%
X82340000Y-49750000D03*
%TD*%
D11*
%TO.P,J3,1,VBUS*%
%TO.N,unconnected-(J3-VBUS-Pad1)*%
X77470000Y-64770000D03*
D12*
%TO.P,J3,2,D-*%
%TO.N,unconnected-(J3-D--Pad2)*%
X78120000Y-65770000D03*
%TO.P,J3,3,D+*%
%TO.N,unconnected-(J3-D+-Pad3)*%
X78770000Y-64770000D03*
%TO.P,J3,4,ID*%
%TO.N,unconnected-(J3-ID-Pad4)*%
X79420000Y-65770000D03*
%TO.P,J3,5,GND*%
%TO.N,unconnected-(J3-GND-Pad5)*%
X80070000Y-64770000D03*
D13*
%TO.P,J3,6,Shield*%
%TO.N,unconnected-(J3-Shield-Pad6)*%
X75195000Y-64990000D03*
X82345000Y-64990000D03*
%TD*%
D14*
%TO.P,J2,1,Pin_1*%
%TO.N,Net-(J1-Pin_1)*%
X86360000Y-37560000D03*
D15*
%TO.P,J2,2,Pin_2*%
X86360000Y-40100000D03*
%TO.P,J2,3,Pin_3*%
%TO.N,GND*%
X86360000Y-42640000D03*
%TO.P,J2,4,Pin_4*%
X86360000Y-45180000D03*
%TO.P,J2,5,Pin_5*%
%TO.N,/PB3*%
X86360000Y-47720000D03*
%TO.P,J2,6,Pin_6*%
%TO.N,/PB4*%
X86360000Y-50260000D03*
%TO.P,J2,7,Pin_7*%
%TO.N,/PB5*%
X86360000Y-52800000D03*
%TO.P,J2,8,Pin_8*%
%TO.N,Net-(J2-Pin_8)*%
X86360000Y-55340000D03*
%TO.P,J2,9,Pin_9*%
%TO.N,Net-(J2-Pin_9)*%
X86360000Y-57880000D03*
%TO.P,J2,10,Pin_10*%
%TO.N,Net-(J2-Pin_10)*%
X86360000Y-60420000D03*
%TO.P,J2,11,Pin_11*%
%TO.N,Net-(J2-Pin_11)*%
X86360000Y-62960000D03*
%TO.P,J2,12,Pin_12*%
%TO.N,GND*%
X86360000Y-65500000D03*
%TD*%
D14*
%TO.P,J1,1,Pin_1*%
%TO.N,Net-(J1-Pin_1)*%
X71120000Y-37560000D03*
D15*
%TO.P,J1,2,Pin_2*%
%TO.N,Net-(J1-Pin_2)*%
X71120000Y-40100000D03*
%TO.P,J1,3,Pin_3*%
%TO.N,Net-(J1-Pin_3)*%
X71120000Y-42640000D03*
%TO.P,J1,4,Pin_4*%
%TO.N,Net-(J1-Pin_4)*%
X71120000Y-45180000D03*
%TO.P,J1,5,Pin_5*%
%TO.N,Net-(J1-Pin_5)*%
X71120000Y-47720000D03*
%TO.P,J1,6,Pin_6*%
%TO.N,Net-(J1-Pin_6)*%
X71120000Y-50260000D03*
%TO.P,J1,7,Pin_7*%
%TO.N,Net-(J1-Pin_7)*%
X71120000Y-52800000D03*
%TO.P,J1,8,Pin_8*%
%TO.N,Net-(J1-Pin_8)*%
X71120000Y-55340000D03*
%TO.P,J1,9,Pin_9*%
%TO.N,Net-(J1-Pin_9)*%
X71120000Y-57880000D03*
%TO.P,J1,10,Pin_10*%
%TO.N,Net-(J1-Pin_10)*%
X71120000Y-60420000D03*
%TO.P,J1,11,Pin_11*%
%TO.N,Net-(J1-Pin_11)*%
X71120000Y-62960000D03*
%TO.P,J1,12,Pin_12*%
%TO.N,Net-(J1-Pin_12)*%
X71120000Y-65500000D03*
%TD*%
D16*
%TO.P,C1,1*%
%TO.N,Net-(J1-Pin_1)*%
X76885000Y-36195000D03*
%TO.P,C1,2*%
%TO.N,GND*%
X80010000Y-36195000D03*
%TD*%
D17*
%TO.P,U1,1,PA2*%
%TO.N,Net-(J1-Pin_4)*%
X79720000Y-42185000D03*
D18*
%TO.P,U1,2,PA3*%
%TO.N,Net-(J1-Pin_5)*%
X79320000Y-42185000D03*
%TO.P,U1,3,GND*%
%TO.N,GND*%
X78920000Y-42185000D03*
%TO.P,U1,4,VCC*%
%TO.N,Net-(J1-Pin_1)*%
X78520000Y-42185000D03*
D19*
%TO.P,U1,5,PA4*%
%TO.N,Net-(J1-Pin_6)*%
X78120000Y-42185000D03*
D20*
%TO.P,U1,6,PA5*%
%TO.N,Net-(J1-Pin_7)*%
X77470000Y-42835000D03*
D21*
%TO.P,U1,7,PA6*%
%TO.N,Net-(J1-Pin_8)*%
X77470000Y-43235000D03*
%TO.P,U1,8,PA7*%
%TO.N,Net-(J1-Pin_9)*%
X77470000Y-43635000D03*
%TO.P,U1,9,PB5*%
%TO.N,/PB5*%
X77470000Y-44035000D03*
D22*
%TO.P,U1,10,PB4*%
%TO.N,/PB4*%
X77470000Y-44435000D03*
D23*
%TO.P,U1,11,PB3*%
%TO.N,/PB3*%
X78120000Y-45085000D03*
D18*
%TO.P,U1,12,PB2*%
%TO.N,Net-(J1-Pin_12)*%
X78520000Y-45085000D03*
%TO.P,U1,13,PB1*%
%TO.N,Net-(J1-Pin_11)*%
X78920000Y-45085000D03*
%TO.P,U1,14,PB0*%
%TO.N,Net-(J1-Pin_10)*%
X79320000Y-45085000D03*
D24*
%TO.P,U1,15,PC0*%
%TO.N,Net-(J2-Pin_8)*%
X79720000Y-45085000D03*
D25*
%TO.P,U1,16,PC1*%
%TO.N,Net-(J2-Pin_9)*%
X80370000Y-44435000D03*
D21*
%TO.P,U1,17,PC2*%
%TO.N,Net-(J2-Pin_10)*%
X80370000Y-44035000D03*
%TO.P,U1,18,PC3*%
%TO.N,Net-(J2-Pin_11)*%
X80370000Y-43635000D03*
%TO.P,U1,19,~{RESET}/PA0*%
%TO.N,Net-(J1-Pin_2)*%
X80370000Y-43235000D03*
D26*
%TO.P,U1,20,PA1*%
%TO.N,Net-(J1-Pin_3)*%
X80370000Y-42835000D03*
D27*
%TO.P,U1,21,GND*%
%TO.N,GND*%
X78920000Y-43635000D03*
%TD*%
M02*
