M48
; DRILL file {KiCad 7.0.8-7.0.8~ubuntu22.04.1} date Thu 09 Nov 2023 04:27:47 PM EST
; FORMAT={-:-/ absolute / inch / decimal}
; #@! TF.CreationDate,2023-11-09T16:27:47-05:00
; #@! TF.GenerationSoftware,Kicad,Pcbnew,7.0.8-7.0.8~ubuntu22.04.1
; #@! TF.FileFunction,Plated,1,2,PTH
FMAT,2
INCH
; #@! TA.AperFunction,Plated,PTH,ViaDrill
T1C0.0157
; #@! TA.AperFunction,Plated,PTH,ComponentDrill
T2C0.0300
; #@! TA.AperFunction,Plated,PTH,ComponentDrill
T3C0.0315
; #@! TA.AperFunction,Plated,PTH,ComponentDrill
T4C0.0354
; #@! TA.AperFunction,Plated,PTH,ComponentDrill
T5C0.0394
; #@! TA.AperFunction,Plated,PTH,ComponentDrill
T6C0.0400
; #@! TA.AperFunction,Plated,PTH,ComponentDrill
T7C0.0433
; #@! TA.AperFunction,Plated,PTH,ComponentDrill
T8C0.0550
; #@! TA.AperFunction,Plated,PTH,ComponentDrill
T9C0.0591
; #@! TA.AperFunction,Plated,PTH,ComponentDrill
T10C0.0650
; #@! TA.AperFunction,Plated,PTH,ComponentDrill
T11C0.1260
%
G90
G05
T1
X2.055Y-4.12
X2.44Y-3.185
X2.51Y-3.83
X2.56Y-2.48
X2.56Y-2.75
X2.5765Y-5.3215
X2.625Y-2.895
X2.635Y-2.05
X2.68Y-1.775
X2.8Y-5.35
X2.99Y-5.16
X3.025Y-4.51
X3.05Y-3.975
X3.12Y-4.47
X3.32Y-4.04
X3.595Y-2.95
X3.955Y-4.695
X4.44Y-4.82
X4.445Y-2.945
X4.605Y-4.465
X4.69Y-2.265
X4.86Y-4.51
X4.98Y-4.21
X5.155Y-4.03
X5.325Y-2.92
X5.37Y-2.58
T2
X1.75Y-2.55
X1.75Y-2.75
X1.95Y-2.55
X1.95Y-2.75
X3.225Y-1.875
X3.325Y-1.875
X3.425Y-1.875
X3.525Y-1.875
X3.625Y-1.875
X3.725Y-1.875
X3.825Y-1.875
X3.925Y-1.875
X4.025Y-1.875
X4.125Y-1.875
T3
X2.625Y-4.225
X2.625Y-4.825
X2.725Y-4.225
X2.725Y-4.825
X2.825Y-4.225
X2.825Y-4.825
X2.925Y-4.225
X2.925Y-4.825
X3.025Y-4.225
X3.025Y-4.825
X3.125Y-4.225
X3.125Y-4.825
X3.225Y-4.225
X3.225Y-4.825
X3.325Y-4.225
X3.325Y-4.825
X3.425Y-4.225
X3.425Y-4.825
X3.525Y-4.225
X3.525Y-4.825
X3.625Y-4.225
X3.625Y-4.825
X3.725Y-4.225
X3.725Y-4.825
X5.0016Y-2.325
X5.1Y-2.325
T4
X2.1752Y-1.775
X2.2248Y-2.425
X2.2248Y-2.9
X2.2752Y-1.775
X2.3248Y-2.425
X2.3248Y-2.9
X3.1998Y-2.95
X3.2998Y-2.95
X4.05Y-2.95
X4.15Y-2.95
T5
X3.325Y-5.45
X3.425Y-5.45
X3.525Y-5.45
X3.625Y-5.45
X3.725Y-5.45
X3.825Y-5.45
T6
X4.725Y-4.65
X4.775Y-1.725
X4.875Y-1.725
X4.975Y-1.725
X5.075Y-1.725
X5.1187Y-4.65
T7
X2.275Y-3.4872
X2.375Y-3.4872
X2.475Y-3.4872
X4.98Y-2.94
X5.08Y-2.94
X5.18Y-2.94
T8
X1.8Y-3.4
X1.8Y-3.6
X5.4Y-3.375
X5.4Y-3.575
T9
X3.1Y-3.4
X3.35Y-3.3
X3.95Y-3.4
X4.2Y-3.3
T10
X3.075Y-1.925
X3.075Y-2.725
X4.275Y-1.925
X4.275Y-2.725
T11
X1.75Y-1.75
X1.75Y-5.45
X5.45Y-1.75
X5.45Y-5.45
T0
M30
