%TF.GenerationSoftware,KiCad,Pcbnew,7.0.8-7.0.8~ubuntu22.04.1*%
%TF.CreationDate,2023-11-09T16:27:44-05:00*%
%TF.ProjectId,boot_camp_pcb,626f6f74-5f63-4616-9d70-5f7063622e6b,rev?*%
%TF.SameCoordinates,Original*%
%TF.FileFunction,Soldermask,Bot*%
%TF.FilePolarity,Negative*%
%FSLAX46Y46*%
G04 Gerber Fmt 4.6, Leading zero omitted, Abs format (unit mm)*
G04 Created by KiCad (PCBNEW 7.0.8-7.0.8~ubuntu22.04.1) date 2023-11-09 16:27:44*
%MOMM*%
%LPD*%
G01*
G04 APERTURE LIST*
%ADD10O,1.905000X2.000000*%
%ADD11R,1.905000X2.000000*%
%ADD12R,1.700000X1.700000*%
%ADD13O,1.700000X1.700000*%
%ADD14C,1.524000*%
%ADD15R,1.800000X1.800000*%
%ADD16C,1.800000*%
%ADD17R,1.600000X1.600000*%
%ADD18C,1.600000*%
%ADD19C,2.286000*%
%ADD20C,1.700000*%
%ADD21C,4.000000*%
%ADD22C,2.200000*%
%ADD23O,2.159000X1.651000*%
%ADD24C,6.400000*%
%ADD25O,1.600000X1.600000*%
G04 APERTURE END LIST*
D10*
%TO.C,Q1*%
X131572000Y-74676000D03*
X129032000Y-74676000D03*
D11*
X126492000Y-74676000D03*
%TD*%
D12*
%TO.C,J2*%
X84455000Y-138430000D03*
D13*
X86995000Y-138430000D03*
X89535000Y-138430000D03*
X92075000Y-138430000D03*
X94615000Y-138430000D03*
X97155000Y-138430000D03*
%TD*%
D14*
%TO.C,SW1*%
X49530000Y-64770000D03*
X49530000Y-69850000D03*
X44450000Y-64770000D03*
X44450000Y-69850000D03*
%TD*%
D15*
%TO.C,D4*%
X56510000Y-61595000D03*
D16*
X59050000Y-61595000D03*
%TD*%
D17*
%TO.C,TH1*%
X127040000Y-59055000D03*
D18*
X129540000Y-59055000D03*
%TD*%
D15*
%TO.C,D3*%
X102870000Y-74930000D03*
D16*
X105410000Y-74930000D03*
%TD*%
D14*
%TO.C,DP1*%
X81915000Y-47625000D03*
X84455000Y-47625000D03*
X86995000Y-47625000D03*
X89535000Y-47625000D03*
X92075000Y-47625000D03*
X94615000Y-47625000D03*
X97155000Y-47625000D03*
X99695000Y-47625000D03*
X102235000Y-47625000D03*
X104775000Y-47625000D03*
D19*
X78105000Y-48895000D03*
X108585000Y-48895000D03*
X108585000Y-69215000D03*
X78105000Y-69215000D03*
%TD*%
D20*
%TO.C,SW3*%
X99060000Y-88900000D03*
D21*
X104140000Y-88900000D03*
D20*
X109220000Y-88900000D03*
D22*
X106680000Y-83820000D03*
X100330000Y-86360000D03*
%TD*%
D23*
%TO.C,M2*%
X137160000Y-90805000D03*
X137160000Y-85725000D03*
%TD*%
D15*
%TO.C,D2*%
X81275000Y-74930000D03*
D16*
X83815000Y-74930000D03*
%TD*%
D15*
%TO.C,D1*%
X56510000Y-73660000D03*
D16*
X59050000Y-73660000D03*
%TD*%
D14*
%TO.C,LS1*%
X120015000Y-118110000D03*
X130015000Y-118110000D03*
%TD*%
D24*
%TO.C,H2*%
X138430000Y-44450000D03*
%TD*%
%TO.C,H1*%
X44450000Y-44450000D03*
%TD*%
D23*
%TO.C,J1*%
X45720000Y-91440000D03*
X45720000Y-86360000D03*
%TD*%
D10*
%TO.C,U2*%
X62865000Y-88575000D03*
X60325000Y-88575000D03*
D11*
X57785000Y-88575000D03*
%TD*%
D14*
%TO.C,U1*%
X128905000Y-43815000D03*
X126365000Y-43815000D03*
X123825000Y-43815000D03*
X121285000Y-43815000D03*
%TD*%
D17*
%TO.C,A1*%
X66675000Y-122555000D03*
D25*
X69215000Y-122555000D03*
X71755000Y-122555000D03*
X74295000Y-122555000D03*
X76835000Y-122555000D03*
X79375000Y-122555000D03*
X81915000Y-122555000D03*
X84455000Y-122555000D03*
X86995000Y-122555000D03*
X89535000Y-122555000D03*
X92075000Y-122555000D03*
X94615000Y-122555000D03*
X94615000Y-107315000D03*
X92075000Y-107315000D03*
X89535000Y-107315000D03*
X86995000Y-107315000D03*
X84455000Y-107315000D03*
X81915000Y-107315000D03*
X79375000Y-107315000D03*
X76835000Y-107315000D03*
X74295000Y-107315000D03*
X71755000Y-107315000D03*
X69215000Y-107315000D03*
X66675000Y-107315000D03*
%TD*%
D15*
%TO.C,R7*%
X57790000Y-45085000D03*
D16*
X55250000Y-45085000D03*
%TD*%
D24*
%TO.C,H3*%
X44450000Y-138430000D03*
%TD*%
D20*
%TO.C,SW2*%
X77470000Y-88900000D03*
D21*
X82550000Y-88900000D03*
D20*
X87630000Y-88900000D03*
D22*
X85090000Y-83820000D03*
X78740000Y-86360000D03*
%TD*%
D24*
%TO.C,H4*%
X138430000Y-138430000D03*
%TD*%
M02*
