%TF.GenerationSoftware,KiCad,Pcbnew,7.0.8-7.0.8~ubuntu22.04.1*%
%TF.CreationDate,2023-11-09T16:27:44-05:00*%
%TF.ProjectId,boot_camp_pcb,626f6f74-5f63-4616-9d70-5f7063622e6b,rev?*%
%TF.SameCoordinates,Original*%
%TF.FileFunction,Legend,Top*%
%TF.FilePolarity,Positive*%
%FSLAX46Y46*%
G04 Gerber Fmt 4.6, Leading zero omitted, Abs format (unit mm)*
G04 Created by KiCad (PCBNEW 7.0.8-7.0.8~ubuntu22.04.1) date 2023-11-09 16:27:44*
%MOMM*%
%LPD*%
G01*
G04 APERTURE LIST*
%ADD10C,0.203200*%
%ADD11C,0.120000*%
%ADD12C,0.100000*%
G04 APERTURE END LIST*
D10*
X71997541Y-111689924D02*
X71997541Y-110165924D01*
X71997541Y-110165924D02*
X72578112Y-110165924D01*
X72578112Y-110165924D02*
X72723255Y-110238495D01*
X72723255Y-110238495D02*
X72795826Y-110311067D01*
X72795826Y-110311067D02*
X72868398Y-110456210D01*
X72868398Y-110456210D02*
X72868398Y-110673924D01*
X72868398Y-110673924D02*
X72795826Y-110819067D01*
X72795826Y-110819067D02*
X72723255Y-110891638D01*
X72723255Y-110891638D02*
X72578112Y-110964210D01*
X72578112Y-110964210D02*
X71997541Y-110964210D01*
X73521541Y-111689924D02*
X73521541Y-110673924D01*
X73521541Y-110964210D02*
X73594112Y-110819067D01*
X73594112Y-110819067D02*
X73666684Y-110746495D01*
X73666684Y-110746495D02*
X73811826Y-110673924D01*
X73811826Y-110673924D02*
X73956969Y-110673924D01*
X74682684Y-111689924D02*
X74537541Y-111617353D01*
X74537541Y-111617353D02*
X74464970Y-111544781D01*
X74464970Y-111544781D02*
X74392398Y-111399638D01*
X74392398Y-111399638D02*
X74392398Y-110964210D01*
X74392398Y-110964210D02*
X74464970Y-110819067D01*
X74464970Y-110819067D02*
X74537541Y-110746495D01*
X74537541Y-110746495D02*
X74682684Y-110673924D01*
X74682684Y-110673924D02*
X74900398Y-110673924D01*
X74900398Y-110673924D02*
X75045541Y-110746495D01*
X75045541Y-110746495D02*
X75118113Y-110819067D01*
X75118113Y-110819067D02*
X75190684Y-110964210D01*
X75190684Y-110964210D02*
X75190684Y-111399638D01*
X75190684Y-111399638D02*
X75118113Y-111544781D01*
X75118113Y-111544781D02*
X75045541Y-111617353D01*
X75045541Y-111617353D02*
X74900398Y-111689924D01*
X74900398Y-111689924D02*
X74682684Y-111689924D01*
X77004970Y-111689924D02*
X77004970Y-110165924D01*
X77004970Y-110165924D02*
X77512970Y-111254495D01*
X77512970Y-111254495D02*
X78020970Y-110165924D01*
X78020970Y-110165924D02*
X78020970Y-111689924D01*
X78746684Y-111689924D02*
X78746684Y-110673924D01*
X78746684Y-110165924D02*
X78674112Y-110238495D01*
X78674112Y-110238495D02*
X78746684Y-110311067D01*
X78746684Y-110311067D02*
X78819255Y-110238495D01*
X78819255Y-110238495D02*
X78746684Y-110165924D01*
X78746684Y-110165924D02*
X78746684Y-110311067D01*
X80125541Y-111617353D02*
X79980398Y-111689924D01*
X79980398Y-111689924D02*
X79690112Y-111689924D01*
X79690112Y-111689924D02*
X79544969Y-111617353D01*
X79544969Y-111617353D02*
X79472398Y-111544781D01*
X79472398Y-111544781D02*
X79399826Y-111399638D01*
X79399826Y-111399638D02*
X79399826Y-110964210D01*
X79399826Y-110964210D02*
X79472398Y-110819067D01*
X79472398Y-110819067D02*
X79544969Y-110746495D01*
X79544969Y-110746495D02*
X79690112Y-110673924D01*
X79690112Y-110673924D02*
X79980398Y-110673924D01*
X79980398Y-110673924D02*
X80125541Y-110746495D01*
X80778684Y-111689924D02*
X80778684Y-110673924D01*
X80778684Y-110964210D02*
X80851255Y-110819067D01*
X80851255Y-110819067D02*
X80923827Y-110746495D01*
X80923827Y-110746495D02*
X81068969Y-110673924D01*
X81068969Y-110673924D02*
X81214112Y-110673924D01*
X81939827Y-111689924D02*
X81794684Y-111617353D01*
X81794684Y-111617353D02*
X81722113Y-111544781D01*
X81722113Y-111544781D02*
X81649541Y-111399638D01*
X81649541Y-111399638D02*
X81649541Y-110964210D01*
X81649541Y-110964210D02*
X81722113Y-110819067D01*
X81722113Y-110819067D02*
X81794684Y-110746495D01*
X81794684Y-110746495D02*
X81939827Y-110673924D01*
X81939827Y-110673924D02*
X82157541Y-110673924D01*
X82157541Y-110673924D02*
X82302684Y-110746495D01*
X82302684Y-110746495D02*
X82375256Y-110819067D01*
X82375256Y-110819067D02*
X82447827Y-110964210D01*
X82447827Y-110964210D02*
X82447827Y-111399638D01*
X82447827Y-111399638D02*
X82375256Y-111544781D01*
X82375256Y-111544781D02*
X82302684Y-111617353D01*
X82302684Y-111617353D02*
X82157541Y-111689924D01*
X82157541Y-111689924D02*
X81939827Y-111689924D01*
X84987827Y-110165924D02*
X84262113Y-110165924D01*
X84262113Y-110165924D02*
X84189541Y-110891638D01*
X84189541Y-110891638D02*
X84262113Y-110819067D01*
X84262113Y-110819067D02*
X84407256Y-110746495D01*
X84407256Y-110746495D02*
X84770113Y-110746495D01*
X84770113Y-110746495D02*
X84915256Y-110819067D01*
X84915256Y-110819067D02*
X84987827Y-110891638D01*
X84987827Y-110891638D02*
X85060398Y-111036781D01*
X85060398Y-111036781D02*
X85060398Y-111399638D01*
X85060398Y-111399638D02*
X84987827Y-111544781D01*
X84987827Y-111544781D02*
X84915256Y-111617353D01*
X84915256Y-111617353D02*
X84770113Y-111689924D01*
X84770113Y-111689924D02*
X84407256Y-111689924D01*
X84407256Y-111689924D02*
X84262113Y-111617353D01*
X84262113Y-111617353D02*
X84189541Y-111544781D01*
X85495827Y-110165924D02*
X86003827Y-111689924D01*
X86003827Y-111689924D02*
X86511827Y-110165924D01*
X41898541Y-74986924D02*
X41898541Y-73462924D01*
X41898541Y-73462924D02*
X42479112Y-73462924D01*
X42479112Y-73462924D02*
X42624255Y-73535495D01*
X42624255Y-73535495D02*
X42696826Y-73608067D01*
X42696826Y-73608067D02*
X42769398Y-73753210D01*
X42769398Y-73753210D02*
X42769398Y-73970924D01*
X42769398Y-73970924D02*
X42696826Y-74116067D01*
X42696826Y-74116067D02*
X42624255Y-74188638D01*
X42624255Y-74188638D02*
X42479112Y-74261210D01*
X42479112Y-74261210D02*
X41898541Y-74261210D01*
X43712826Y-73462924D02*
X44003112Y-73462924D01*
X44003112Y-73462924D02*
X44148255Y-73535495D01*
X44148255Y-73535495D02*
X44293398Y-73680638D01*
X44293398Y-73680638D02*
X44365969Y-73970924D01*
X44365969Y-73970924D02*
X44365969Y-74478924D01*
X44365969Y-74478924D02*
X44293398Y-74769210D01*
X44293398Y-74769210D02*
X44148255Y-74914353D01*
X44148255Y-74914353D02*
X44003112Y-74986924D01*
X44003112Y-74986924D02*
X43712826Y-74986924D01*
X43712826Y-74986924D02*
X43567684Y-74914353D01*
X43567684Y-74914353D02*
X43422541Y-74769210D01*
X43422541Y-74769210D02*
X43349969Y-74478924D01*
X43349969Y-74478924D02*
X43349969Y-73970924D01*
X43349969Y-73970924D02*
X43422541Y-73680638D01*
X43422541Y-73680638D02*
X43567684Y-73535495D01*
X43567684Y-73535495D02*
X43712826Y-73462924D01*
X44873969Y-73462924D02*
X45236826Y-74986924D01*
X45236826Y-74986924D02*
X45527112Y-73898353D01*
X45527112Y-73898353D02*
X45817397Y-74986924D01*
X45817397Y-74986924D02*
X46180255Y-73462924D01*
X46760826Y-74188638D02*
X47268826Y-74188638D01*
X47486540Y-74986924D02*
X46760826Y-74986924D01*
X46760826Y-74986924D02*
X46760826Y-73462924D01*
X46760826Y-73462924D02*
X47486540Y-73462924D01*
X49010540Y-74986924D02*
X48502540Y-74261210D01*
X48139683Y-74986924D02*
X48139683Y-73462924D01*
X48139683Y-73462924D02*
X48720254Y-73462924D01*
X48720254Y-73462924D02*
X48865397Y-73535495D01*
X48865397Y-73535495D02*
X48937968Y-73608067D01*
X48937968Y-73608067D02*
X49010540Y-73753210D01*
X49010540Y-73753210D02*
X49010540Y-73970924D01*
X49010540Y-73970924D02*
X48937968Y-74116067D01*
X48937968Y-74116067D02*
X48865397Y-74188638D01*
X48865397Y-74188638D02*
X48720254Y-74261210D01*
X48720254Y-74261210D02*
X48139683Y-74261210D01*
X55451255Y-76002924D02*
X54725541Y-76002924D01*
X54725541Y-76002924D02*
X54652969Y-76728638D01*
X54652969Y-76728638D02*
X54725541Y-76656067D01*
X54725541Y-76656067D02*
X54870684Y-76583495D01*
X54870684Y-76583495D02*
X55233541Y-76583495D01*
X55233541Y-76583495D02*
X55378684Y-76656067D01*
X55378684Y-76656067D02*
X55451255Y-76728638D01*
X55451255Y-76728638D02*
X55523826Y-76873781D01*
X55523826Y-76873781D02*
X55523826Y-77236638D01*
X55523826Y-77236638D02*
X55451255Y-77381781D01*
X55451255Y-77381781D02*
X55378684Y-77454353D01*
X55378684Y-77454353D02*
X55233541Y-77526924D01*
X55233541Y-77526924D02*
X54870684Y-77526924D01*
X54870684Y-77526924D02*
X54725541Y-77454353D01*
X54725541Y-77454353D02*
X54652969Y-77381781D01*
X55959255Y-76002924D02*
X56467255Y-77526924D01*
X56467255Y-77526924D02*
X56975255Y-76002924D01*
X58934684Y-76002924D02*
X59224970Y-76002924D01*
X59224970Y-76002924D02*
X59370113Y-76075495D01*
X59370113Y-76075495D02*
X59515256Y-76220638D01*
X59515256Y-76220638D02*
X59587827Y-76510924D01*
X59587827Y-76510924D02*
X59587827Y-77018924D01*
X59587827Y-77018924D02*
X59515256Y-77309210D01*
X59515256Y-77309210D02*
X59370113Y-77454353D01*
X59370113Y-77454353D02*
X59224970Y-77526924D01*
X59224970Y-77526924D02*
X58934684Y-77526924D01*
X58934684Y-77526924D02*
X58789542Y-77454353D01*
X58789542Y-77454353D02*
X58644399Y-77309210D01*
X58644399Y-77309210D02*
X58571827Y-77018924D01*
X58571827Y-77018924D02*
X58571827Y-76510924D01*
X58571827Y-76510924D02*
X58644399Y-76220638D01*
X58644399Y-76220638D02*
X58789542Y-76075495D01*
X58789542Y-76075495D02*
X58934684Y-76002924D01*
X60240970Y-77526924D02*
X60240970Y-76002924D01*
X60240970Y-76002924D02*
X61111827Y-77526924D01*
X61111827Y-77526924D02*
X61111827Y-76002924D01*
X55396826Y-65842924D02*
X54525969Y-65842924D01*
X54961398Y-65842924D02*
X54961398Y-64318924D01*
X54961398Y-64318924D02*
X54816255Y-64536638D01*
X54816255Y-64536638D02*
X54671112Y-64681781D01*
X54671112Y-64681781D02*
X54525969Y-64754353D01*
X55977398Y-64464067D02*
X56049970Y-64391495D01*
X56049970Y-64391495D02*
X56195113Y-64318924D01*
X56195113Y-64318924D02*
X56557970Y-64318924D01*
X56557970Y-64318924D02*
X56703113Y-64391495D01*
X56703113Y-64391495D02*
X56775684Y-64464067D01*
X56775684Y-64464067D02*
X56848255Y-64609210D01*
X56848255Y-64609210D02*
X56848255Y-64754353D01*
X56848255Y-64754353D02*
X56775684Y-64972067D01*
X56775684Y-64972067D02*
X55904827Y-65842924D01*
X55904827Y-65842924D02*
X56848255Y-65842924D01*
X57283684Y-64318924D02*
X57791684Y-65842924D01*
X57791684Y-65842924D02*
X58299684Y-64318924D01*
X60259113Y-64318924D02*
X60549399Y-64318924D01*
X60549399Y-64318924D02*
X60694542Y-64391495D01*
X60694542Y-64391495D02*
X60839685Y-64536638D01*
X60839685Y-64536638D02*
X60912256Y-64826924D01*
X60912256Y-64826924D02*
X60912256Y-65334924D01*
X60912256Y-65334924D02*
X60839685Y-65625210D01*
X60839685Y-65625210D02*
X60694542Y-65770353D01*
X60694542Y-65770353D02*
X60549399Y-65842924D01*
X60549399Y-65842924D02*
X60259113Y-65842924D01*
X60259113Y-65842924D02*
X60113971Y-65770353D01*
X60113971Y-65770353D02*
X59968828Y-65625210D01*
X59968828Y-65625210D02*
X59896256Y-65334924D01*
X59896256Y-65334924D02*
X59896256Y-64826924D01*
X59896256Y-64826924D02*
X59968828Y-64536638D01*
X59968828Y-64536638D02*
X60113971Y-64391495D01*
X60113971Y-64391495D02*
X60259113Y-64318924D01*
X61565399Y-65842924D02*
X61565399Y-64318924D01*
X61565399Y-64318924D02*
X62436256Y-65842924D01*
X62436256Y-65842924D02*
X62436256Y-64318924D01*
X50824826Y-90680495D02*
X50679684Y-90607924D01*
X50679684Y-90607924D02*
X50461969Y-90607924D01*
X50461969Y-90607924D02*
X50244255Y-90680495D01*
X50244255Y-90680495D02*
X50099112Y-90825638D01*
X50099112Y-90825638D02*
X50026541Y-90970781D01*
X50026541Y-90970781D02*
X49953969Y-91261067D01*
X49953969Y-91261067D02*
X49953969Y-91478781D01*
X49953969Y-91478781D02*
X50026541Y-91769067D01*
X50026541Y-91769067D02*
X50099112Y-91914210D01*
X50099112Y-91914210D02*
X50244255Y-92059353D01*
X50244255Y-92059353D02*
X50461969Y-92131924D01*
X50461969Y-92131924D02*
X50607112Y-92131924D01*
X50607112Y-92131924D02*
X50824826Y-92059353D01*
X50824826Y-92059353D02*
X50897398Y-91986781D01*
X50897398Y-91986781D02*
X50897398Y-91478781D01*
X50897398Y-91478781D02*
X50607112Y-91478781D01*
X51550541Y-92131924D02*
X51550541Y-90607924D01*
X51550541Y-90607924D02*
X52421398Y-92131924D01*
X52421398Y-92131924D02*
X52421398Y-90607924D01*
X53147112Y-92131924D02*
X53147112Y-90607924D01*
X53147112Y-90607924D02*
X53509969Y-90607924D01*
X53509969Y-90607924D02*
X53727683Y-90680495D01*
X53727683Y-90680495D02*
X53872826Y-90825638D01*
X53872826Y-90825638D02*
X53945397Y-90970781D01*
X53945397Y-90970781D02*
X54017969Y-91261067D01*
X54017969Y-91261067D02*
X54017969Y-91478781D01*
X54017969Y-91478781D02*
X53945397Y-91769067D01*
X53945397Y-91769067D02*
X53872826Y-91914210D01*
X53872826Y-91914210D02*
X53727683Y-92059353D01*
X53727683Y-92059353D02*
X53509969Y-92131924D01*
X53509969Y-92131924D02*
X53147112Y-92131924D01*
X50026541Y-86598353D02*
X51187684Y-86598353D01*
X50607112Y-87178924D02*
X50607112Y-86017781D01*
X52711683Y-87178924D02*
X51840826Y-87178924D01*
X52276255Y-87178924D02*
X52276255Y-85654924D01*
X52276255Y-85654924D02*
X52131112Y-85872638D01*
X52131112Y-85872638D02*
X51985969Y-86017781D01*
X51985969Y-86017781D02*
X51840826Y-86090353D01*
X53292255Y-85800067D02*
X53364827Y-85727495D01*
X53364827Y-85727495D02*
X53509970Y-85654924D01*
X53509970Y-85654924D02*
X53872827Y-85654924D01*
X53872827Y-85654924D02*
X54017970Y-85727495D01*
X54017970Y-85727495D02*
X54090541Y-85800067D01*
X54090541Y-85800067D02*
X54163112Y-85945210D01*
X54163112Y-85945210D02*
X54163112Y-86090353D01*
X54163112Y-86090353D02*
X54090541Y-86308067D01*
X54090541Y-86308067D02*
X53219684Y-87178924D01*
X53219684Y-87178924D02*
X54163112Y-87178924D01*
X83173541Y-133914924D02*
X83173541Y-135148638D01*
X83173541Y-135148638D02*
X83246112Y-135293781D01*
X83246112Y-135293781D02*
X83318684Y-135366353D01*
X83318684Y-135366353D02*
X83463826Y-135438924D01*
X83463826Y-135438924D02*
X83754112Y-135438924D01*
X83754112Y-135438924D02*
X83899255Y-135366353D01*
X83899255Y-135366353D02*
X83971826Y-135293781D01*
X83971826Y-135293781D02*
X84044398Y-135148638D01*
X84044398Y-135148638D02*
X84044398Y-133914924D01*
X84697540Y-135003495D02*
X85423255Y-135003495D01*
X84552397Y-135438924D02*
X85060397Y-133914924D01*
X85060397Y-133914924D02*
X85568397Y-135438924D01*
X86947255Y-135438924D02*
X86439255Y-134713210D01*
X86076398Y-135438924D02*
X86076398Y-133914924D01*
X86076398Y-133914924D02*
X86656969Y-133914924D01*
X86656969Y-133914924D02*
X86802112Y-133987495D01*
X86802112Y-133987495D02*
X86874683Y-134060067D01*
X86874683Y-134060067D02*
X86947255Y-134205210D01*
X86947255Y-134205210D02*
X86947255Y-134422924D01*
X86947255Y-134422924D02*
X86874683Y-134568067D01*
X86874683Y-134568067D02*
X86802112Y-134640638D01*
X86802112Y-134640638D02*
X86656969Y-134713210D01*
X86656969Y-134713210D02*
X86076398Y-134713210D01*
X87382683Y-133914924D02*
X88253541Y-133914924D01*
X87818112Y-135438924D02*
X87818112Y-133914924D01*
X104001541Y-136758998D02*
X104219255Y-136831570D01*
X104219255Y-136831570D02*
X104291826Y-136904141D01*
X104291826Y-136904141D02*
X104364398Y-137049284D01*
X104364398Y-137049284D02*
X104364398Y-137266998D01*
X104364398Y-137266998D02*
X104291826Y-137412141D01*
X104291826Y-137412141D02*
X104219255Y-137484713D01*
X104219255Y-137484713D02*
X104074112Y-137557284D01*
X104074112Y-137557284D02*
X103493541Y-137557284D01*
X103493541Y-137557284D02*
X103493541Y-136033284D01*
X103493541Y-136033284D02*
X104001541Y-136033284D01*
X104001541Y-136033284D02*
X104146684Y-136105855D01*
X104146684Y-136105855D02*
X104219255Y-136178427D01*
X104219255Y-136178427D02*
X104291826Y-136323570D01*
X104291826Y-136323570D02*
X104291826Y-136468713D01*
X104291826Y-136468713D02*
X104219255Y-136613855D01*
X104219255Y-136613855D02*
X104146684Y-136686427D01*
X104146684Y-136686427D02*
X104001541Y-136758998D01*
X104001541Y-136758998D02*
X103493541Y-136758998D01*
X105235255Y-137557284D02*
X105090112Y-137484713D01*
X105090112Y-137484713D02*
X105017541Y-137412141D01*
X105017541Y-137412141D02*
X104944969Y-137266998D01*
X104944969Y-137266998D02*
X104944969Y-136831570D01*
X104944969Y-136831570D02*
X105017541Y-136686427D01*
X105017541Y-136686427D02*
X105090112Y-136613855D01*
X105090112Y-136613855D02*
X105235255Y-136541284D01*
X105235255Y-136541284D02*
X105452969Y-136541284D01*
X105452969Y-136541284D02*
X105598112Y-136613855D01*
X105598112Y-136613855D02*
X105670684Y-136686427D01*
X105670684Y-136686427D02*
X105743255Y-136831570D01*
X105743255Y-136831570D02*
X105743255Y-137266998D01*
X105743255Y-137266998D02*
X105670684Y-137412141D01*
X105670684Y-137412141D02*
X105598112Y-137484713D01*
X105598112Y-137484713D02*
X105452969Y-137557284D01*
X105452969Y-137557284D02*
X105235255Y-137557284D01*
X106614112Y-137557284D02*
X106468969Y-137484713D01*
X106468969Y-137484713D02*
X106396398Y-137412141D01*
X106396398Y-137412141D02*
X106323826Y-137266998D01*
X106323826Y-137266998D02*
X106323826Y-136831570D01*
X106323826Y-136831570D02*
X106396398Y-136686427D01*
X106396398Y-136686427D02*
X106468969Y-136613855D01*
X106468969Y-136613855D02*
X106614112Y-136541284D01*
X106614112Y-136541284D02*
X106831826Y-136541284D01*
X106831826Y-136541284D02*
X106976969Y-136613855D01*
X106976969Y-136613855D02*
X107049541Y-136686427D01*
X107049541Y-136686427D02*
X107122112Y-136831570D01*
X107122112Y-136831570D02*
X107122112Y-137266998D01*
X107122112Y-137266998D02*
X107049541Y-137412141D01*
X107049541Y-137412141D02*
X106976969Y-137484713D01*
X106976969Y-137484713D02*
X106831826Y-137557284D01*
X106831826Y-137557284D02*
X106614112Y-137557284D01*
X107557540Y-136541284D02*
X108138112Y-136541284D01*
X107775255Y-136033284D02*
X107775255Y-137339570D01*
X107775255Y-137339570D02*
X107847826Y-137484713D01*
X107847826Y-137484713D02*
X107992969Y-137557284D01*
X107992969Y-137557284D02*
X108138112Y-137557284D01*
X110678112Y-137412141D02*
X110605540Y-137484713D01*
X110605540Y-137484713D02*
X110387826Y-137557284D01*
X110387826Y-137557284D02*
X110242683Y-137557284D01*
X110242683Y-137557284D02*
X110024969Y-137484713D01*
X110024969Y-137484713D02*
X109879826Y-137339570D01*
X109879826Y-137339570D02*
X109807255Y-137194427D01*
X109807255Y-137194427D02*
X109734683Y-136904141D01*
X109734683Y-136904141D02*
X109734683Y-136686427D01*
X109734683Y-136686427D02*
X109807255Y-136396141D01*
X109807255Y-136396141D02*
X109879826Y-136250998D01*
X109879826Y-136250998D02*
X110024969Y-136105855D01*
X110024969Y-136105855D02*
X110242683Y-136033284D01*
X110242683Y-136033284D02*
X110387826Y-136033284D01*
X110387826Y-136033284D02*
X110605540Y-136105855D01*
X110605540Y-136105855D02*
X110678112Y-136178427D01*
X111984398Y-137557284D02*
X111984398Y-136758998D01*
X111984398Y-136758998D02*
X111911826Y-136613855D01*
X111911826Y-136613855D02*
X111766683Y-136541284D01*
X111766683Y-136541284D02*
X111476398Y-136541284D01*
X111476398Y-136541284D02*
X111331255Y-136613855D01*
X111984398Y-137484713D02*
X111839255Y-137557284D01*
X111839255Y-137557284D02*
X111476398Y-137557284D01*
X111476398Y-137557284D02*
X111331255Y-137484713D01*
X111331255Y-137484713D02*
X111258683Y-137339570D01*
X111258683Y-137339570D02*
X111258683Y-137194427D01*
X111258683Y-137194427D02*
X111331255Y-137049284D01*
X111331255Y-137049284D02*
X111476398Y-136976713D01*
X111476398Y-136976713D02*
X111839255Y-136976713D01*
X111839255Y-136976713D02*
X111984398Y-136904141D01*
X112710112Y-137557284D02*
X112710112Y-136541284D01*
X112710112Y-136686427D02*
X112782683Y-136613855D01*
X112782683Y-136613855D02*
X112927826Y-136541284D01*
X112927826Y-136541284D02*
X113145540Y-136541284D01*
X113145540Y-136541284D02*
X113290683Y-136613855D01*
X113290683Y-136613855D02*
X113363255Y-136758998D01*
X113363255Y-136758998D02*
X113363255Y-137557284D01*
X113363255Y-136758998D02*
X113435826Y-136613855D01*
X113435826Y-136613855D02*
X113580969Y-136541284D01*
X113580969Y-136541284D02*
X113798683Y-136541284D01*
X113798683Y-136541284D02*
X113943826Y-136613855D01*
X113943826Y-136613855D02*
X114016397Y-136758998D01*
X114016397Y-136758998D02*
X114016397Y-137557284D01*
X114742112Y-136541284D02*
X114742112Y-138065284D01*
X114742112Y-136613855D02*
X114887255Y-136541284D01*
X114887255Y-136541284D02*
X115177540Y-136541284D01*
X115177540Y-136541284D02*
X115322683Y-136613855D01*
X115322683Y-136613855D02*
X115395255Y-136686427D01*
X115395255Y-136686427D02*
X115467826Y-136831570D01*
X115467826Y-136831570D02*
X115467826Y-137266998D01*
X115467826Y-137266998D02*
X115395255Y-137412141D01*
X115395255Y-137412141D02*
X115322683Y-137484713D01*
X115322683Y-137484713D02*
X115177540Y-137557284D01*
X115177540Y-137557284D02*
X114887255Y-137557284D01*
X114887255Y-137557284D02*
X114742112Y-137484713D01*
X117790112Y-136758998D02*
X118007826Y-136831570D01*
X118007826Y-136831570D02*
X118080397Y-136904141D01*
X118080397Y-136904141D02*
X118152969Y-137049284D01*
X118152969Y-137049284D02*
X118152969Y-137266998D01*
X118152969Y-137266998D02*
X118080397Y-137412141D01*
X118080397Y-137412141D02*
X118007826Y-137484713D01*
X118007826Y-137484713D02*
X117862683Y-137557284D01*
X117862683Y-137557284D02*
X117282112Y-137557284D01*
X117282112Y-137557284D02*
X117282112Y-136033284D01*
X117282112Y-136033284D02*
X117790112Y-136033284D01*
X117790112Y-136033284D02*
X117935255Y-136105855D01*
X117935255Y-136105855D02*
X118007826Y-136178427D01*
X118007826Y-136178427D02*
X118080397Y-136323570D01*
X118080397Y-136323570D02*
X118080397Y-136468713D01*
X118080397Y-136468713D02*
X118007826Y-136613855D01*
X118007826Y-136613855D02*
X117935255Y-136686427D01*
X117935255Y-136686427D02*
X117790112Y-136758998D01*
X117790112Y-136758998D02*
X117282112Y-136758998D01*
X119023826Y-137557284D02*
X118878683Y-137484713D01*
X118878683Y-137484713D02*
X118806112Y-137412141D01*
X118806112Y-137412141D02*
X118733540Y-137266998D01*
X118733540Y-137266998D02*
X118733540Y-136831570D01*
X118733540Y-136831570D02*
X118806112Y-136686427D01*
X118806112Y-136686427D02*
X118878683Y-136613855D01*
X118878683Y-136613855D02*
X119023826Y-136541284D01*
X119023826Y-136541284D02*
X119241540Y-136541284D01*
X119241540Y-136541284D02*
X119386683Y-136613855D01*
X119386683Y-136613855D02*
X119459255Y-136686427D01*
X119459255Y-136686427D02*
X119531826Y-136831570D01*
X119531826Y-136831570D02*
X119531826Y-137266998D01*
X119531826Y-137266998D02*
X119459255Y-137412141D01*
X119459255Y-137412141D02*
X119386683Y-137484713D01*
X119386683Y-137484713D02*
X119241540Y-137557284D01*
X119241540Y-137557284D02*
X119023826Y-137557284D01*
X120838112Y-137557284D02*
X120838112Y-136758998D01*
X120838112Y-136758998D02*
X120765540Y-136613855D01*
X120765540Y-136613855D02*
X120620397Y-136541284D01*
X120620397Y-136541284D02*
X120330112Y-136541284D01*
X120330112Y-136541284D02*
X120184969Y-136613855D01*
X120838112Y-137484713D02*
X120692969Y-137557284D01*
X120692969Y-137557284D02*
X120330112Y-137557284D01*
X120330112Y-137557284D02*
X120184969Y-137484713D01*
X120184969Y-137484713D02*
X120112397Y-137339570D01*
X120112397Y-137339570D02*
X120112397Y-137194427D01*
X120112397Y-137194427D02*
X120184969Y-137049284D01*
X120184969Y-137049284D02*
X120330112Y-136976713D01*
X120330112Y-136976713D02*
X120692969Y-136976713D01*
X120692969Y-136976713D02*
X120838112Y-136904141D01*
X121563826Y-137557284D02*
X121563826Y-136541284D01*
X121563826Y-136831570D02*
X121636397Y-136686427D01*
X121636397Y-136686427D02*
X121708969Y-136613855D01*
X121708969Y-136613855D02*
X121854111Y-136541284D01*
X121854111Y-136541284D02*
X121999254Y-136541284D01*
X123160398Y-137557284D02*
X123160398Y-136033284D01*
X123160398Y-137484713D02*
X123015255Y-137557284D01*
X123015255Y-137557284D02*
X122724969Y-137557284D01*
X122724969Y-137557284D02*
X122579826Y-137484713D01*
X122579826Y-137484713D02*
X122507255Y-137412141D01*
X122507255Y-137412141D02*
X122434683Y-137266998D01*
X122434683Y-137266998D02*
X122434683Y-136831570D01*
X122434683Y-136831570D02*
X122507255Y-136686427D01*
X122507255Y-136686427D02*
X122579826Y-136613855D01*
X122579826Y-136613855D02*
X122724969Y-136541284D01*
X122724969Y-136541284D02*
X123015255Y-136541284D01*
X123015255Y-136541284D02*
X123160398Y-136613855D01*
X125047255Y-136976713D02*
X126208398Y-136976713D01*
X127877540Y-136033284D02*
X128385540Y-137557284D01*
X128385540Y-137557284D02*
X128893540Y-136033284D01*
X130199826Y-137557284D02*
X129328969Y-137557284D01*
X129764398Y-137557284D02*
X129764398Y-136033284D01*
X129764398Y-136033284D02*
X129619255Y-136250998D01*
X129619255Y-136250998D02*
X129474112Y-136396141D01*
X129474112Y-136396141D02*
X129328969Y-136468713D01*
X130852970Y-137412141D02*
X130925541Y-137484713D01*
X130925541Y-137484713D02*
X130852970Y-137557284D01*
X130852970Y-137557284D02*
X130780398Y-137484713D01*
X130780398Y-137484713D02*
X130852970Y-137412141D01*
X130852970Y-137412141D02*
X130852970Y-137557284D01*
X131868969Y-136033284D02*
X132014112Y-136033284D01*
X132014112Y-136033284D02*
X132159255Y-136105855D01*
X132159255Y-136105855D02*
X132231827Y-136178427D01*
X132231827Y-136178427D02*
X132304398Y-136323570D01*
X132304398Y-136323570D02*
X132376969Y-136613855D01*
X132376969Y-136613855D02*
X132376969Y-136976713D01*
X132376969Y-136976713D02*
X132304398Y-137266998D01*
X132304398Y-137266998D02*
X132231827Y-137412141D01*
X132231827Y-137412141D02*
X132159255Y-137484713D01*
X132159255Y-137484713D02*
X132014112Y-137557284D01*
X132014112Y-137557284D02*
X131868969Y-137557284D01*
X131868969Y-137557284D02*
X131723827Y-137484713D01*
X131723827Y-137484713D02*
X131651255Y-137412141D01*
X131651255Y-137412141D02*
X131578684Y-137266998D01*
X131578684Y-137266998D02*
X131506112Y-136976713D01*
X131506112Y-136976713D02*
X131506112Y-136613855D01*
X131506112Y-136613855D02*
X131578684Y-136323570D01*
X131578684Y-136323570D02*
X131651255Y-136178427D01*
X131651255Y-136178427D02*
X131723827Y-136105855D01*
X131723827Y-136105855D02*
X131868969Y-136033284D01*
X103493541Y-139212638D02*
X104001541Y-139212638D01*
X104219255Y-140010924D02*
X103493541Y-140010924D01*
X103493541Y-140010924D02*
X103493541Y-138486924D01*
X103493541Y-138486924D02*
X104219255Y-138486924D01*
X104872398Y-139865781D02*
X104944969Y-139938353D01*
X104944969Y-139938353D02*
X104872398Y-140010924D01*
X104872398Y-140010924D02*
X104799826Y-139938353D01*
X104799826Y-139938353D02*
X104872398Y-139865781D01*
X104872398Y-139865781D02*
X104872398Y-140010924D01*
X106759255Y-140010924D02*
X106759255Y-138486924D01*
X106759255Y-139212638D02*
X107630112Y-139212638D01*
X107630112Y-140010924D02*
X107630112Y-138486924D01*
X109008969Y-140010924D02*
X109008969Y-139212638D01*
X109008969Y-139212638D02*
X108936397Y-139067495D01*
X108936397Y-139067495D02*
X108791254Y-138994924D01*
X108791254Y-138994924D02*
X108500969Y-138994924D01*
X108500969Y-138994924D02*
X108355826Y-139067495D01*
X109008969Y-139938353D02*
X108863826Y-140010924D01*
X108863826Y-140010924D02*
X108500969Y-140010924D01*
X108500969Y-140010924D02*
X108355826Y-139938353D01*
X108355826Y-139938353D02*
X108283254Y-139793210D01*
X108283254Y-139793210D02*
X108283254Y-139648067D01*
X108283254Y-139648067D02*
X108355826Y-139502924D01*
X108355826Y-139502924D02*
X108500969Y-139430353D01*
X108500969Y-139430353D02*
X108863826Y-139430353D01*
X108863826Y-139430353D02*
X109008969Y-139357781D01*
X109589540Y-138994924D02*
X110387826Y-138994924D01*
X110387826Y-138994924D02*
X109589540Y-140010924D01*
X109589540Y-140010924D02*
X110387826Y-140010924D01*
X111548968Y-139938353D02*
X111403825Y-140010924D01*
X111403825Y-140010924D02*
X111113540Y-140010924D01*
X111113540Y-140010924D02*
X110968397Y-139938353D01*
X110968397Y-139938353D02*
X110895825Y-139793210D01*
X110895825Y-139793210D02*
X110895825Y-139212638D01*
X110895825Y-139212638D02*
X110968397Y-139067495D01*
X110968397Y-139067495D02*
X111113540Y-138994924D01*
X111113540Y-138994924D02*
X111403825Y-138994924D01*
X111403825Y-138994924D02*
X111548968Y-139067495D01*
X111548968Y-139067495D02*
X111621540Y-139212638D01*
X111621540Y-139212638D02*
X111621540Y-139357781D01*
X111621540Y-139357781D02*
X110895825Y-139502924D01*
X112274683Y-138994924D02*
X112274683Y-140010924D01*
X112274683Y-139140067D02*
X112347254Y-139067495D01*
X112347254Y-139067495D02*
X112492397Y-138994924D01*
X112492397Y-138994924D02*
X112710111Y-138994924D01*
X112710111Y-138994924D02*
X112855254Y-139067495D01*
X112855254Y-139067495D02*
X112927826Y-139212638D01*
X112927826Y-139212638D02*
X112927826Y-140010924D01*
X114814683Y-139430353D02*
X115975826Y-139430353D01*
X118660968Y-140010924D02*
X117790111Y-140010924D01*
X118225540Y-140010924D02*
X118225540Y-138486924D01*
X118225540Y-138486924D02*
X118080397Y-138704638D01*
X118080397Y-138704638D02*
X117935254Y-138849781D01*
X117935254Y-138849781D02*
X117790111Y-138922353D01*
X120112397Y-140010924D02*
X119241540Y-140010924D01*
X119676969Y-140010924D02*
X119676969Y-138486924D01*
X119676969Y-138486924D02*
X119531826Y-138704638D01*
X119531826Y-138704638D02*
X119386683Y-138849781D01*
X119386683Y-138849781D02*
X119241540Y-138922353D01*
X121854112Y-138414353D02*
X120547826Y-140373781D01*
X122289540Y-138632067D02*
X122362112Y-138559495D01*
X122362112Y-138559495D02*
X122507255Y-138486924D01*
X122507255Y-138486924D02*
X122870112Y-138486924D01*
X122870112Y-138486924D02*
X123015255Y-138559495D01*
X123015255Y-138559495D02*
X123087826Y-138632067D01*
X123087826Y-138632067D02*
X123160397Y-138777210D01*
X123160397Y-138777210D02*
X123160397Y-138922353D01*
X123160397Y-138922353D02*
X123087826Y-139140067D01*
X123087826Y-139140067D02*
X122216969Y-140010924D01*
X122216969Y-140010924D02*
X123160397Y-140010924D01*
X124103826Y-138486924D02*
X124248969Y-138486924D01*
X124248969Y-138486924D02*
X124394112Y-138559495D01*
X124394112Y-138559495D02*
X124466684Y-138632067D01*
X124466684Y-138632067D02*
X124539255Y-138777210D01*
X124539255Y-138777210D02*
X124611826Y-139067495D01*
X124611826Y-139067495D02*
X124611826Y-139430353D01*
X124611826Y-139430353D02*
X124539255Y-139720638D01*
X124539255Y-139720638D02*
X124466684Y-139865781D01*
X124466684Y-139865781D02*
X124394112Y-139938353D01*
X124394112Y-139938353D02*
X124248969Y-140010924D01*
X124248969Y-140010924D02*
X124103826Y-140010924D01*
X124103826Y-140010924D02*
X123958684Y-139938353D01*
X123958684Y-139938353D02*
X123886112Y-139865781D01*
X123886112Y-139865781D02*
X123813541Y-139720638D01*
X123813541Y-139720638D02*
X123740969Y-139430353D01*
X123740969Y-139430353D02*
X123740969Y-139067495D01*
X123740969Y-139067495D02*
X123813541Y-138777210D01*
X123813541Y-138777210D02*
X123886112Y-138632067D01*
X123886112Y-138632067D02*
X123958684Y-138559495D01*
X123958684Y-138559495D02*
X124103826Y-138486924D01*
X125192398Y-138632067D02*
X125264970Y-138559495D01*
X125264970Y-138559495D02*
X125410113Y-138486924D01*
X125410113Y-138486924D02*
X125772970Y-138486924D01*
X125772970Y-138486924D02*
X125918113Y-138559495D01*
X125918113Y-138559495D02*
X125990684Y-138632067D01*
X125990684Y-138632067D02*
X126063255Y-138777210D01*
X126063255Y-138777210D02*
X126063255Y-138922353D01*
X126063255Y-138922353D02*
X125990684Y-139140067D01*
X125990684Y-139140067D02*
X125119827Y-140010924D01*
X125119827Y-140010924D02*
X126063255Y-140010924D01*
X126571256Y-138486924D02*
X127514684Y-138486924D01*
X127514684Y-138486924D02*
X127006684Y-139067495D01*
X127006684Y-139067495D02*
X127224399Y-139067495D01*
X127224399Y-139067495D02*
X127369542Y-139140067D01*
X127369542Y-139140067D02*
X127442113Y-139212638D01*
X127442113Y-139212638D02*
X127514684Y-139357781D01*
X127514684Y-139357781D02*
X127514684Y-139720638D01*
X127514684Y-139720638D02*
X127442113Y-139865781D01*
X127442113Y-139865781D02*
X127369542Y-139938353D01*
X127369542Y-139938353D02*
X127224399Y-140010924D01*
X127224399Y-140010924D02*
X126788970Y-140010924D01*
X126788970Y-140010924D02*
X126643827Y-139938353D01*
X126643827Y-139938353D02*
X126571256Y-139865781D01*
X104563969Y-132049778D02*
X105017541Y-132200968D01*
X105017541Y-132200968D02*
X105168731Y-132352159D01*
X105168731Y-132352159D02*
X105319922Y-132654540D01*
X105319922Y-132654540D02*
X105319922Y-133108111D01*
X105319922Y-133108111D02*
X105168731Y-133410492D01*
X105168731Y-133410492D02*
X105017541Y-133561683D01*
X105017541Y-133561683D02*
X104715160Y-133712873D01*
X104715160Y-133712873D02*
X103505636Y-133712873D01*
X103505636Y-133712873D02*
X103505636Y-130537873D01*
X103505636Y-130537873D02*
X104563969Y-130537873D01*
X104563969Y-130537873D02*
X104866350Y-130689063D01*
X104866350Y-130689063D02*
X105017541Y-130840254D01*
X105017541Y-130840254D02*
X105168731Y-131142635D01*
X105168731Y-131142635D02*
X105168731Y-131445016D01*
X105168731Y-131445016D02*
X105017541Y-131747397D01*
X105017541Y-131747397D02*
X104866350Y-131898587D01*
X104866350Y-131898587D02*
X104563969Y-132049778D01*
X104563969Y-132049778D02*
X103505636Y-132049778D01*
X106680636Y-130537873D02*
X106680636Y-133108111D01*
X106680636Y-133108111D02*
X106831826Y-133410492D01*
X106831826Y-133410492D02*
X106983017Y-133561683D01*
X106983017Y-133561683D02*
X107285398Y-133712873D01*
X107285398Y-133712873D02*
X107890160Y-133712873D01*
X107890160Y-133712873D02*
X108192541Y-133561683D01*
X108192541Y-133561683D02*
X108343731Y-133410492D01*
X108343731Y-133410492D02*
X108494922Y-133108111D01*
X108494922Y-133108111D02*
X108494922Y-130537873D01*
X112425874Y-132049778D02*
X113484207Y-132049778D01*
X113937779Y-133712873D02*
X112425874Y-133712873D01*
X112425874Y-133712873D02*
X112425874Y-130537873D01*
X112425874Y-130537873D02*
X113937779Y-130537873D01*
X115298493Y-133712873D02*
X115298493Y-130537873D01*
X115298493Y-130537873D02*
X116508017Y-130537873D01*
X116508017Y-130537873D02*
X116810398Y-130689063D01*
X116810398Y-130689063D02*
X116961588Y-130840254D01*
X116961588Y-130840254D02*
X117112779Y-131142635D01*
X117112779Y-131142635D02*
X117112779Y-131596206D01*
X117112779Y-131596206D02*
X116961588Y-131898587D01*
X116961588Y-131898587D02*
X116810398Y-132049778D01*
X116810398Y-132049778D02*
X116508017Y-132200968D01*
X116508017Y-132200968D02*
X115298493Y-132200968D01*
X118473493Y-133712873D02*
X118473493Y-130537873D01*
X121799684Y-133410492D02*
X121648493Y-133561683D01*
X121648493Y-133561683D02*
X121194922Y-133712873D01*
X121194922Y-133712873D02*
X120892541Y-133712873D01*
X120892541Y-133712873D02*
X120438969Y-133561683D01*
X120438969Y-133561683D02*
X120136588Y-133259302D01*
X120136588Y-133259302D02*
X119985398Y-132956921D01*
X119985398Y-132956921D02*
X119834207Y-132352159D01*
X119834207Y-132352159D02*
X119834207Y-131898587D01*
X119834207Y-131898587D02*
X119985398Y-131293825D01*
X119985398Y-131293825D02*
X120136588Y-130991444D01*
X120136588Y-130991444D02*
X120438969Y-130689063D01*
X120438969Y-130689063D02*
X120892541Y-130537873D01*
X120892541Y-130537873D02*
X121194922Y-130537873D01*
X121194922Y-130537873D02*
X121648493Y-130689063D01*
X121648493Y-130689063D02*
X121799684Y-130840254D01*
X128759857Y-70054607D02*
X128614714Y-69982035D01*
X128614714Y-69982035D02*
X128469571Y-69836893D01*
X128469571Y-69836893D02*
X128251857Y-69619178D01*
X128251857Y-69619178D02*
X128106714Y-69546607D01*
X128106714Y-69546607D02*
X127961571Y-69546607D01*
X128034142Y-69909464D02*
X127889000Y-69836893D01*
X127889000Y-69836893D02*
X127743857Y-69691750D01*
X127743857Y-69691750D02*
X127671285Y-69401464D01*
X127671285Y-69401464D02*
X127671285Y-68893464D01*
X127671285Y-68893464D02*
X127743857Y-68603178D01*
X127743857Y-68603178D02*
X127889000Y-68458035D01*
X127889000Y-68458035D02*
X128034142Y-68385464D01*
X128034142Y-68385464D02*
X128324428Y-68385464D01*
X128324428Y-68385464D02*
X128469571Y-68458035D01*
X128469571Y-68458035D02*
X128614714Y-68603178D01*
X128614714Y-68603178D02*
X128687285Y-68893464D01*
X128687285Y-68893464D02*
X128687285Y-69401464D01*
X128687285Y-69401464D02*
X128614714Y-69691750D01*
X128614714Y-69691750D02*
X128469571Y-69836893D01*
X128469571Y-69836893D02*
X128324428Y-69909464D01*
X128324428Y-69909464D02*
X128034142Y-69909464D01*
X130138713Y-69909464D02*
X129267856Y-69909464D01*
X129703285Y-69909464D02*
X129703285Y-68385464D01*
X129703285Y-68385464D02*
X129558142Y-68603178D01*
X129558142Y-68603178D02*
X129412999Y-68748321D01*
X129412999Y-68748321D02*
X129267856Y-68820893D01*
X109764285Y-78164464D02*
X109256285Y-77438750D01*
X108893428Y-78164464D02*
X108893428Y-76640464D01*
X108893428Y-76640464D02*
X109473999Y-76640464D01*
X109473999Y-76640464D02*
X109619142Y-76713035D01*
X109619142Y-76713035D02*
X109691713Y-76785607D01*
X109691713Y-76785607D02*
X109764285Y-76930750D01*
X109764285Y-76930750D02*
X109764285Y-77148464D01*
X109764285Y-77148464D02*
X109691713Y-77293607D01*
X109691713Y-77293607D02*
X109619142Y-77366178D01*
X109619142Y-77366178D02*
X109473999Y-77438750D01*
X109473999Y-77438750D02*
X108893428Y-77438750D01*
X111215713Y-78164464D02*
X110344856Y-78164464D01*
X110780285Y-78164464D02*
X110780285Y-76640464D01*
X110780285Y-76640464D02*
X110635142Y-76858178D01*
X110635142Y-76858178D02*
X110489999Y-77003321D01*
X110489999Y-77003321D02*
X110344856Y-77075893D01*
X112667142Y-78164464D02*
X111796285Y-78164464D01*
X112231714Y-78164464D02*
X112231714Y-76640464D01*
X112231714Y-76640464D02*
X112086571Y-76858178D01*
X112086571Y-76858178D02*
X111941428Y-77003321D01*
X111941428Y-77003321D02*
X111796285Y-77075893D01*
X89063285Y-78164464D02*
X88555285Y-77438750D01*
X88192428Y-78164464D02*
X88192428Y-76640464D01*
X88192428Y-76640464D02*
X88772999Y-76640464D01*
X88772999Y-76640464D02*
X88918142Y-76713035D01*
X88918142Y-76713035D02*
X88990713Y-76785607D01*
X88990713Y-76785607D02*
X89063285Y-76930750D01*
X89063285Y-76930750D02*
X89063285Y-77148464D01*
X89063285Y-77148464D02*
X88990713Y-77293607D01*
X88990713Y-77293607D02*
X88918142Y-77366178D01*
X88918142Y-77366178D02*
X88772999Y-77438750D01*
X88772999Y-77438750D02*
X88192428Y-77438750D01*
X90514713Y-78164464D02*
X89643856Y-78164464D01*
X90079285Y-78164464D02*
X90079285Y-76640464D01*
X90079285Y-76640464D02*
X89934142Y-76858178D01*
X89934142Y-76858178D02*
X89788999Y-77003321D01*
X89788999Y-77003321D02*
X89643856Y-77075893D01*
X91458142Y-76640464D02*
X91603285Y-76640464D01*
X91603285Y-76640464D02*
X91748428Y-76713035D01*
X91748428Y-76713035D02*
X91821000Y-76785607D01*
X91821000Y-76785607D02*
X91893571Y-76930750D01*
X91893571Y-76930750D02*
X91966142Y-77221035D01*
X91966142Y-77221035D02*
X91966142Y-77583893D01*
X91966142Y-77583893D02*
X91893571Y-77874178D01*
X91893571Y-77874178D02*
X91821000Y-78019321D01*
X91821000Y-78019321D02*
X91748428Y-78091893D01*
X91748428Y-78091893D02*
X91603285Y-78164464D01*
X91603285Y-78164464D02*
X91458142Y-78164464D01*
X91458142Y-78164464D02*
X91313000Y-78091893D01*
X91313000Y-78091893D02*
X91240428Y-78019321D01*
X91240428Y-78019321D02*
X91167857Y-77874178D01*
X91167857Y-77874178D02*
X91095285Y-77583893D01*
X91095285Y-77583893D02*
X91095285Y-77221035D01*
X91095285Y-77221035D02*
X91167857Y-76930750D01*
X91167857Y-76930750D02*
X91240428Y-76785607D01*
X91240428Y-76785607D02*
X91313000Y-76713035D01*
X91313000Y-76713035D02*
X91458142Y-76640464D01*
X79374999Y-137473464D02*
X79374999Y-138562035D01*
X79374999Y-138562035D02*
X79302428Y-138779750D01*
X79302428Y-138779750D02*
X79157285Y-138924893D01*
X79157285Y-138924893D02*
X78939571Y-138997464D01*
X78939571Y-138997464D02*
X78794428Y-138997464D01*
X80028142Y-137618607D02*
X80100714Y-137546035D01*
X80100714Y-137546035D02*
X80245857Y-137473464D01*
X80245857Y-137473464D02*
X80608714Y-137473464D01*
X80608714Y-137473464D02*
X80753857Y-137546035D01*
X80753857Y-137546035D02*
X80826428Y-137618607D01*
X80826428Y-137618607D02*
X80898999Y-137763750D01*
X80898999Y-137763750D02*
X80898999Y-137908893D01*
X80898999Y-137908893D02*
X80826428Y-138126607D01*
X80826428Y-138126607D02*
X79955571Y-138997464D01*
X79955571Y-138997464D02*
X80898999Y-138997464D01*
X42925999Y-60184893D02*
X43143714Y-60257464D01*
X43143714Y-60257464D02*
X43506571Y-60257464D01*
X43506571Y-60257464D02*
X43651714Y-60184893D01*
X43651714Y-60184893D02*
X43724285Y-60112321D01*
X43724285Y-60112321D02*
X43796856Y-59967178D01*
X43796856Y-59967178D02*
X43796856Y-59822035D01*
X43796856Y-59822035D02*
X43724285Y-59676893D01*
X43724285Y-59676893D02*
X43651714Y-59604321D01*
X43651714Y-59604321D02*
X43506571Y-59531750D01*
X43506571Y-59531750D02*
X43216285Y-59459178D01*
X43216285Y-59459178D02*
X43071142Y-59386607D01*
X43071142Y-59386607D02*
X42998571Y-59314035D01*
X42998571Y-59314035D02*
X42925999Y-59168893D01*
X42925999Y-59168893D02*
X42925999Y-59023750D01*
X42925999Y-59023750D02*
X42998571Y-58878607D01*
X42998571Y-58878607D02*
X43071142Y-58806035D01*
X43071142Y-58806035D02*
X43216285Y-58733464D01*
X43216285Y-58733464D02*
X43579142Y-58733464D01*
X43579142Y-58733464D02*
X43796856Y-58806035D01*
X44304857Y-58733464D02*
X44667714Y-60257464D01*
X44667714Y-60257464D02*
X44958000Y-59168893D01*
X44958000Y-59168893D02*
X45248285Y-60257464D01*
X45248285Y-60257464D02*
X45611143Y-58733464D01*
X46989999Y-60257464D02*
X46119142Y-60257464D01*
X46554571Y-60257464D02*
X46554571Y-58733464D01*
X46554571Y-58733464D02*
X46409428Y-58951178D01*
X46409428Y-58951178D02*
X46264285Y-59096321D01*
X46264285Y-59096321D02*
X46119142Y-59168893D01*
X57041143Y-57971464D02*
X57041143Y-56447464D01*
X57041143Y-56447464D02*
X57404000Y-56447464D01*
X57404000Y-56447464D02*
X57621714Y-56520035D01*
X57621714Y-56520035D02*
X57766857Y-56665178D01*
X57766857Y-56665178D02*
X57839428Y-56810321D01*
X57839428Y-56810321D02*
X57912000Y-57100607D01*
X57912000Y-57100607D02*
X57912000Y-57318321D01*
X57912000Y-57318321D02*
X57839428Y-57608607D01*
X57839428Y-57608607D02*
X57766857Y-57753750D01*
X57766857Y-57753750D02*
X57621714Y-57898893D01*
X57621714Y-57898893D02*
X57404000Y-57971464D01*
X57404000Y-57971464D02*
X57041143Y-57971464D01*
X59218286Y-56955464D02*
X59218286Y-57971464D01*
X58855428Y-56374893D02*
X58492571Y-57463464D01*
X58492571Y-57463464D02*
X59436000Y-57463464D01*
X72771000Y-129726464D02*
X72263000Y-129000750D01*
X71900143Y-129726464D02*
X71900143Y-128202464D01*
X71900143Y-128202464D02*
X72480714Y-128202464D01*
X72480714Y-128202464D02*
X72625857Y-128275035D01*
X72625857Y-128275035D02*
X72698428Y-128347607D01*
X72698428Y-128347607D02*
X72771000Y-128492750D01*
X72771000Y-128492750D02*
X72771000Y-128710464D01*
X72771000Y-128710464D02*
X72698428Y-128855607D01*
X72698428Y-128855607D02*
X72625857Y-128928178D01*
X72625857Y-128928178D02*
X72480714Y-129000750D01*
X72480714Y-129000750D02*
X71900143Y-129000750D01*
X74149857Y-128202464D02*
X73424143Y-128202464D01*
X73424143Y-128202464D02*
X73351571Y-128928178D01*
X73351571Y-128928178D02*
X73424143Y-128855607D01*
X73424143Y-128855607D02*
X73569286Y-128783035D01*
X73569286Y-128783035D02*
X73932143Y-128783035D01*
X73932143Y-128783035D02*
X74077286Y-128855607D01*
X74077286Y-128855607D02*
X74149857Y-128928178D01*
X74149857Y-128928178D02*
X74222428Y-129073321D01*
X74222428Y-129073321D02*
X74222428Y-129436178D01*
X74222428Y-129436178D02*
X74149857Y-129581321D01*
X74149857Y-129581321D02*
X74077286Y-129653893D01*
X74077286Y-129653893D02*
X73932143Y-129726464D01*
X73932143Y-129726464D02*
X73569286Y-129726464D01*
X73569286Y-129726464D02*
X73424143Y-129653893D01*
X73424143Y-129653893D02*
X73351571Y-129581321D01*
X133422571Y-58352464D02*
X134293429Y-58352464D01*
X133858000Y-59876464D02*
X133858000Y-58352464D01*
X134801429Y-59876464D02*
X134801429Y-58352464D01*
X134801429Y-59078178D02*
X135672286Y-59078178D01*
X135672286Y-59876464D02*
X135672286Y-58352464D01*
X137196285Y-59876464D02*
X136325428Y-59876464D01*
X136760857Y-59876464D02*
X136760857Y-58352464D01*
X136760857Y-58352464D02*
X136615714Y-58570178D01*
X136615714Y-58570178D02*
X136470571Y-58715321D01*
X136470571Y-58715321D02*
X136325428Y-58787893D01*
X62230000Y-70671464D02*
X61722000Y-69945750D01*
X61359143Y-70671464D02*
X61359143Y-69147464D01*
X61359143Y-69147464D02*
X61939714Y-69147464D01*
X61939714Y-69147464D02*
X62084857Y-69220035D01*
X62084857Y-69220035D02*
X62157428Y-69292607D01*
X62157428Y-69292607D02*
X62230000Y-69437750D01*
X62230000Y-69437750D02*
X62230000Y-69655464D01*
X62230000Y-69655464D02*
X62157428Y-69800607D01*
X62157428Y-69800607D02*
X62084857Y-69873178D01*
X62084857Y-69873178D02*
X61939714Y-69945750D01*
X61939714Y-69945750D02*
X61359143Y-69945750D01*
X63536286Y-69147464D02*
X63246000Y-69147464D01*
X63246000Y-69147464D02*
X63100857Y-69220035D01*
X63100857Y-69220035D02*
X63028286Y-69292607D01*
X63028286Y-69292607D02*
X62883143Y-69510321D01*
X62883143Y-69510321D02*
X62810571Y-69800607D01*
X62810571Y-69800607D02*
X62810571Y-70381178D01*
X62810571Y-70381178D02*
X62883143Y-70526321D01*
X62883143Y-70526321D02*
X62955714Y-70598893D01*
X62955714Y-70598893D02*
X63100857Y-70671464D01*
X63100857Y-70671464D02*
X63391143Y-70671464D01*
X63391143Y-70671464D02*
X63536286Y-70598893D01*
X63536286Y-70598893D02*
X63608857Y-70526321D01*
X63608857Y-70526321D02*
X63681428Y-70381178D01*
X63681428Y-70381178D02*
X63681428Y-70018321D01*
X63681428Y-70018321D02*
X63608857Y-69873178D01*
X63608857Y-69873178D02*
X63536286Y-69800607D01*
X63536286Y-69800607D02*
X63391143Y-69728035D01*
X63391143Y-69728035D02*
X63100857Y-69728035D01*
X63100857Y-69728035D02*
X62955714Y-69800607D01*
X62955714Y-69800607D02*
X62883143Y-69873178D01*
X62883143Y-69873178D02*
X62810571Y-70018321D01*
X98316143Y-75497464D02*
X98316143Y-73973464D01*
X98316143Y-73973464D02*
X98679000Y-73973464D01*
X98679000Y-73973464D02*
X98896714Y-74046035D01*
X98896714Y-74046035D02*
X99041857Y-74191178D01*
X99041857Y-74191178D02*
X99114428Y-74336321D01*
X99114428Y-74336321D02*
X99187000Y-74626607D01*
X99187000Y-74626607D02*
X99187000Y-74844321D01*
X99187000Y-74844321D02*
X99114428Y-75134607D01*
X99114428Y-75134607D02*
X99041857Y-75279750D01*
X99041857Y-75279750D02*
X98896714Y-75424893D01*
X98896714Y-75424893D02*
X98679000Y-75497464D01*
X98679000Y-75497464D02*
X98316143Y-75497464D01*
X99695000Y-73973464D02*
X100638428Y-73973464D01*
X100638428Y-73973464D02*
X100130428Y-74554035D01*
X100130428Y-74554035D02*
X100348143Y-74554035D01*
X100348143Y-74554035D02*
X100493286Y-74626607D01*
X100493286Y-74626607D02*
X100565857Y-74699178D01*
X100565857Y-74699178D02*
X100638428Y-74844321D01*
X100638428Y-74844321D02*
X100638428Y-75207178D01*
X100638428Y-75207178D02*
X100565857Y-75352321D01*
X100565857Y-75352321D02*
X100493286Y-75424893D01*
X100493286Y-75424893D02*
X100348143Y-75497464D01*
X100348143Y-75497464D02*
X99912714Y-75497464D01*
X99912714Y-75497464D02*
X99767571Y-75424893D01*
X99767571Y-75424893D02*
X99695000Y-75352321D01*
X51943000Y-81575321D02*
X51870428Y-81647893D01*
X51870428Y-81647893D02*
X51652714Y-81720464D01*
X51652714Y-81720464D02*
X51507571Y-81720464D01*
X51507571Y-81720464D02*
X51289857Y-81647893D01*
X51289857Y-81647893D02*
X51144714Y-81502750D01*
X51144714Y-81502750D02*
X51072143Y-81357607D01*
X51072143Y-81357607D02*
X50999571Y-81067321D01*
X50999571Y-81067321D02*
X50999571Y-80849607D01*
X50999571Y-80849607D02*
X51072143Y-80559321D01*
X51072143Y-80559321D02*
X51144714Y-80414178D01*
X51144714Y-80414178D02*
X51289857Y-80269035D01*
X51289857Y-80269035D02*
X51507571Y-80196464D01*
X51507571Y-80196464D02*
X51652714Y-80196464D01*
X51652714Y-80196464D02*
X51870428Y-80269035D01*
X51870428Y-80269035D02*
X51943000Y-80341607D01*
X52523571Y-80341607D02*
X52596143Y-80269035D01*
X52596143Y-80269035D02*
X52741286Y-80196464D01*
X52741286Y-80196464D02*
X53104143Y-80196464D01*
X53104143Y-80196464D02*
X53249286Y-80269035D01*
X53249286Y-80269035D02*
X53321857Y-80341607D01*
X53321857Y-80341607D02*
X53394428Y-80486750D01*
X53394428Y-80486750D02*
X53394428Y-80631893D01*
X53394428Y-80631893D02*
X53321857Y-80849607D01*
X53321857Y-80849607D02*
X52451000Y-81720464D01*
X52451000Y-81720464D02*
X53394428Y-81720464D01*
X73297143Y-45271464D02*
X73297143Y-43747464D01*
X73297143Y-43747464D02*
X73660000Y-43747464D01*
X73660000Y-43747464D02*
X73877714Y-43820035D01*
X73877714Y-43820035D02*
X74022857Y-43965178D01*
X74022857Y-43965178D02*
X74095428Y-44110321D01*
X74095428Y-44110321D02*
X74168000Y-44400607D01*
X74168000Y-44400607D02*
X74168000Y-44618321D01*
X74168000Y-44618321D02*
X74095428Y-44908607D01*
X74095428Y-44908607D02*
X74022857Y-45053750D01*
X74022857Y-45053750D02*
X73877714Y-45198893D01*
X73877714Y-45198893D02*
X73660000Y-45271464D01*
X73660000Y-45271464D02*
X73297143Y-45271464D01*
X74821143Y-45271464D02*
X74821143Y-43747464D01*
X74821143Y-43747464D02*
X75401714Y-43747464D01*
X75401714Y-43747464D02*
X75546857Y-43820035D01*
X75546857Y-43820035D02*
X75619428Y-43892607D01*
X75619428Y-43892607D02*
X75692000Y-44037750D01*
X75692000Y-44037750D02*
X75692000Y-44255464D01*
X75692000Y-44255464D02*
X75619428Y-44400607D01*
X75619428Y-44400607D02*
X75546857Y-44473178D01*
X75546857Y-44473178D02*
X75401714Y-44545750D01*
X75401714Y-44545750D02*
X74821143Y-44545750D01*
X77143428Y-45271464D02*
X76272571Y-45271464D01*
X76708000Y-45271464D02*
X76708000Y-43747464D01*
X76708000Y-43747464D02*
X76562857Y-43965178D01*
X76562857Y-43965178D02*
X76417714Y-44110321D01*
X76417714Y-44110321D02*
X76272571Y-44182893D01*
X102361999Y-81139893D02*
X102579714Y-81212464D01*
X102579714Y-81212464D02*
X102942571Y-81212464D01*
X102942571Y-81212464D02*
X103087714Y-81139893D01*
X103087714Y-81139893D02*
X103160285Y-81067321D01*
X103160285Y-81067321D02*
X103232856Y-80922178D01*
X103232856Y-80922178D02*
X103232856Y-80777035D01*
X103232856Y-80777035D02*
X103160285Y-80631893D01*
X103160285Y-80631893D02*
X103087714Y-80559321D01*
X103087714Y-80559321D02*
X102942571Y-80486750D01*
X102942571Y-80486750D02*
X102652285Y-80414178D01*
X102652285Y-80414178D02*
X102507142Y-80341607D01*
X102507142Y-80341607D02*
X102434571Y-80269035D01*
X102434571Y-80269035D02*
X102361999Y-80123893D01*
X102361999Y-80123893D02*
X102361999Y-79978750D01*
X102361999Y-79978750D02*
X102434571Y-79833607D01*
X102434571Y-79833607D02*
X102507142Y-79761035D01*
X102507142Y-79761035D02*
X102652285Y-79688464D01*
X102652285Y-79688464D02*
X103015142Y-79688464D01*
X103015142Y-79688464D02*
X103232856Y-79761035D01*
X103740857Y-79688464D02*
X104103714Y-81212464D01*
X104103714Y-81212464D02*
X104394000Y-80123893D01*
X104394000Y-80123893D02*
X104684285Y-81212464D01*
X104684285Y-81212464D02*
X105047143Y-79688464D01*
X105482571Y-79688464D02*
X106425999Y-79688464D01*
X106425999Y-79688464D02*
X105917999Y-80269035D01*
X105917999Y-80269035D02*
X106135714Y-80269035D01*
X106135714Y-80269035D02*
X106280857Y-80341607D01*
X106280857Y-80341607D02*
X106353428Y-80414178D01*
X106353428Y-80414178D02*
X106425999Y-80559321D01*
X106425999Y-80559321D02*
X106425999Y-80922178D01*
X106425999Y-80922178D02*
X106353428Y-81067321D01*
X106353428Y-81067321D02*
X106280857Y-81139893D01*
X106280857Y-81139893D02*
X106135714Y-81212464D01*
X106135714Y-81212464D02*
X105700285Y-81212464D01*
X105700285Y-81212464D02*
X105555142Y-81139893D01*
X105555142Y-81139893D02*
X105482571Y-81067321D01*
X136434286Y-82101464D02*
X136434286Y-80577464D01*
X136434286Y-80577464D02*
X136942286Y-81666035D01*
X136942286Y-81666035D02*
X137450286Y-80577464D01*
X137450286Y-80577464D02*
X137450286Y-82101464D01*
X138103428Y-80722607D02*
X138176000Y-80650035D01*
X138176000Y-80650035D02*
X138321143Y-80577464D01*
X138321143Y-80577464D02*
X138684000Y-80577464D01*
X138684000Y-80577464D02*
X138829143Y-80650035D01*
X138829143Y-80650035D02*
X138901714Y-80722607D01*
X138901714Y-80722607D02*
X138974285Y-80867750D01*
X138974285Y-80867750D02*
X138974285Y-81012893D01*
X138974285Y-81012893D02*
X138901714Y-81230607D01*
X138901714Y-81230607D02*
X138030857Y-82101464D01*
X138030857Y-82101464D02*
X138974285Y-82101464D01*
X76218143Y-75751464D02*
X76218143Y-74227464D01*
X76218143Y-74227464D02*
X76581000Y-74227464D01*
X76581000Y-74227464D02*
X76798714Y-74300035D01*
X76798714Y-74300035D02*
X76943857Y-74445178D01*
X76943857Y-74445178D02*
X77016428Y-74590321D01*
X77016428Y-74590321D02*
X77089000Y-74880607D01*
X77089000Y-74880607D02*
X77089000Y-75098321D01*
X77089000Y-75098321D02*
X77016428Y-75388607D01*
X77016428Y-75388607D02*
X76943857Y-75533750D01*
X76943857Y-75533750D02*
X76798714Y-75678893D01*
X76798714Y-75678893D02*
X76581000Y-75751464D01*
X76581000Y-75751464D02*
X76218143Y-75751464D01*
X77669571Y-74372607D02*
X77742143Y-74300035D01*
X77742143Y-74300035D02*
X77887286Y-74227464D01*
X77887286Y-74227464D02*
X78250143Y-74227464D01*
X78250143Y-74227464D02*
X78395286Y-74300035D01*
X78395286Y-74300035D02*
X78467857Y-74372607D01*
X78467857Y-74372607D02*
X78540428Y-74517750D01*
X78540428Y-74517750D02*
X78540428Y-74662893D01*
X78540428Y-74662893D02*
X78467857Y-74880607D01*
X78467857Y-74880607D02*
X77597000Y-75751464D01*
X77597000Y-75751464D02*
X78540428Y-75751464D01*
X56787143Y-70544464D02*
X56787143Y-69020464D01*
X56787143Y-69020464D02*
X57150000Y-69020464D01*
X57150000Y-69020464D02*
X57367714Y-69093035D01*
X57367714Y-69093035D02*
X57512857Y-69238178D01*
X57512857Y-69238178D02*
X57585428Y-69383321D01*
X57585428Y-69383321D02*
X57658000Y-69673607D01*
X57658000Y-69673607D02*
X57658000Y-69891321D01*
X57658000Y-69891321D02*
X57585428Y-70181607D01*
X57585428Y-70181607D02*
X57512857Y-70326750D01*
X57512857Y-70326750D02*
X57367714Y-70471893D01*
X57367714Y-70471893D02*
X57150000Y-70544464D01*
X57150000Y-70544464D02*
X56787143Y-70544464D01*
X59109428Y-70544464D02*
X58238571Y-70544464D01*
X58674000Y-70544464D02*
X58674000Y-69020464D01*
X58674000Y-69020464D02*
X58528857Y-69238178D01*
X58528857Y-69238178D02*
X58383714Y-69383321D01*
X58383714Y-69383321D02*
X58238571Y-69455893D01*
X119507000Y-56574464D02*
X118999000Y-55848750D01*
X118636143Y-56574464D02*
X118636143Y-55050464D01*
X118636143Y-55050464D02*
X119216714Y-55050464D01*
X119216714Y-55050464D02*
X119361857Y-55123035D01*
X119361857Y-55123035D02*
X119434428Y-55195607D01*
X119434428Y-55195607D02*
X119507000Y-55340750D01*
X119507000Y-55340750D02*
X119507000Y-55558464D01*
X119507000Y-55558464D02*
X119434428Y-55703607D01*
X119434428Y-55703607D02*
X119361857Y-55776178D01*
X119361857Y-55776178D02*
X119216714Y-55848750D01*
X119216714Y-55848750D02*
X118636143Y-55848750D01*
X120958428Y-56574464D02*
X120087571Y-56574464D01*
X120523000Y-56574464D02*
X120523000Y-55050464D01*
X120523000Y-55050464D02*
X120377857Y-55268178D01*
X120377857Y-55268178D02*
X120232714Y-55413321D01*
X120232714Y-55413321D02*
X120087571Y-55485893D01*
X124535285Y-106304464D02*
X123809571Y-106304464D01*
X123809571Y-106304464D02*
X123809571Y-104780464D01*
X124970713Y-106231893D02*
X125188428Y-106304464D01*
X125188428Y-106304464D02*
X125551285Y-106304464D01*
X125551285Y-106304464D02*
X125696428Y-106231893D01*
X125696428Y-106231893D02*
X125768999Y-106159321D01*
X125768999Y-106159321D02*
X125841570Y-106014178D01*
X125841570Y-106014178D02*
X125841570Y-105869035D01*
X125841570Y-105869035D02*
X125768999Y-105723893D01*
X125768999Y-105723893D02*
X125696428Y-105651321D01*
X125696428Y-105651321D02*
X125551285Y-105578750D01*
X125551285Y-105578750D02*
X125260999Y-105506178D01*
X125260999Y-105506178D02*
X125115856Y-105433607D01*
X125115856Y-105433607D02*
X125043285Y-105361035D01*
X125043285Y-105361035D02*
X124970713Y-105215893D01*
X124970713Y-105215893D02*
X124970713Y-105070750D01*
X124970713Y-105070750D02*
X125043285Y-104925607D01*
X125043285Y-104925607D02*
X125115856Y-104853035D01*
X125115856Y-104853035D02*
X125260999Y-104780464D01*
X125260999Y-104780464D02*
X125623856Y-104780464D01*
X125623856Y-104780464D02*
X125841570Y-104853035D01*
X127292999Y-106304464D02*
X126422142Y-106304464D01*
X126857571Y-106304464D02*
X126857571Y-104780464D01*
X126857571Y-104780464D02*
X126712428Y-104998178D01*
X126712428Y-104998178D02*
X126567285Y-105143321D01*
X126567285Y-105143321D02*
X126422142Y-105215893D01*
X82042000Y-129599464D02*
X81534000Y-128873750D01*
X81171143Y-129599464D02*
X81171143Y-128075464D01*
X81171143Y-128075464D02*
X81751714Y-128075464D01*
X81751714Y-128075464D02*
X81896857Y-128148035D01*
X81896857Y-128148035D02*
X81969428Y-128220607D01*
X81969428Y-128220607D02*
X82042000Y-128365750D01*
X82042000Y-128365750D02*
X82042000Y-128583464D01*
X82042000Y-128583464D02*
X81969428Y-128728607D01*
X81969428Y-128728607D02*
X81896857Y-128801178D01*
X81896857Y-128801178D02*
X81751714Y-128873750D01*
X81751714Y-128873750D02*
X81171143Y-128873750D01*
X83348286Y-128583464D02*
X83348286Y-129599464D01*
X82985428Y-128002893D02*
X82622571Y-129091464D01*
X82622571Y-129091464D02*
X83566000Y-129091464D01*
X45084999Y-81339464D02*
X45084999Y-82428035D01*
X45084999Y-82428035D02*
X45012428Y-82645750D01*
X45012428Y-82645750D02*
X44867285Y-82790893D01*
X44867285Y-82790893D02*
X44649571Y-82863464D01*
X44649571Y-82863464D02*
X44504428Y-82863464D01*
X46608999Y-82863464D02*
X45738142Y-82863464D01*
X46173571Y-82863464D02*
X46173571Y-81339464D01*
X46173571Y-81339464D02*
X46028428Y-81557178D01*
X46028428Y-81557178D02*
X45883285Y-81702321D01*
X45883285Y-81702321D02*
X45738142Y-81774893D01*
X56896000Y-96833464D02*
X56388000Y-96107750D01*
X56025143Y-96833464D02*
X56025143Y-95309464D01*
X56025143Y-95309464D02*
X56605714Y-95309464D01*
X56605714Y-95309464D02*
X56750857Y-95382035D01*
X56750857Y-95382035D02*
X56823428Y-95454607D01*
X56823428Y-95454607D02*
X56896000Y-95599750D01*
X56896000Y-95599750D02*
X56896000Y-95817464D01*
X56896000Y-95817464D02*
X56823428Y-95962607D01*
X56823428Y-95962607D02*
X56750857Y-96035178D01*
X56750857Y-96035178D02*
X56605714Y-96107750D01*
X56605714Y-96107750D02*
X56025143Y-96107750D01*
X57621714Y-96833464D02*
X57912000Y-96833464D01*
X57912000Y-96833464D02*
X58057143Y-96760893D01*
X58057143Y-96760893D02*
X58129714Y-96688321D01*
X58129714Y-96688321D02*
X58274857Y-96470607D01*
X58274857Y-96470607D02*
X58347428Y-96180321D01*
X58347428Y-96180321D02*
X58347428Y-95599750D01*
X58347428Y-95599750D02*
X58274857Y-95454607D01*
X58274857Y-95454607D02*
X58202286Y-95382035D01*
X58202286Y-95382035D02*
X58057143Y-95309464D01*
X58057143Y-95309464D02*
X57766857Y-95309464D01*
X57766857Y-95309464D02*
X57621714Y-95382035D01*
X57621714Y-95382035D02*
X57549143Y-95454607D01*
X57549143Y-95454607D02*
X57476571Y-95599750D01*
X57476571Y-95599750D02*
X57476571Y-95962607D01*
X57476571Y-95962607D02*
X57549143Y-96107750D01*
X57549143Y-96107750D02*
X57621714Y-96180321D01*
X57621714Y-96180321D02*
X57766857Y-96252893D01*
X57766857Y-96252893D02*
X58057143Y-96252893D01*
X58057143Y-96252893D02*
X58202286Y-96180321D01*
X58202286Y-96180321D02*
X58274857Y-96107750D01*
X58274857Y-96107750D02*
X58347428Y-95962607D01*
X58909857Y-82609464D02*
X58909857Y-83843178D01*
X58909857Y-83843178D02*
X58982428Y-83988321D01*
X58982428Y-83988321D02*
X59055000Y-84060893D01*
X59055000Y-84060893D02*
X59200142Y-84133464D01*
X59200142Y-84133464D02*
X59490428Y-84133464D01*
X59490428Y-84133464D02*
X59635571Y-84060893D01*
X59635571Y-84060893D02*
X59708142Y-83988321D01*
X59708142Y-83988321D02*
X59780714Y-83843178D01*
X59780714Y-83843178D02*
X59780714Y-82609464D01*
X60433856Y-82754607D02*
X60506428Y-82682035D01*
X60506428Y-82682035D02*
X60651571Y-82609464D01*
X60651571Y-82609464D02*
X61014428Y-82609464D01*
X61014428Y-82609464D02*
X61159571Y-82682035D01*
X61159571Y-82682035D02*
X61232142Y-82754607D01*
X61232142Y-82754607D02*
X61304713Y-82899750D01*
X61304713Y-82899750D02*
X61304713Y-83044893D01*
X61304713Y-83044893D02*
X61232142Y-83262607D01*
X61232142Y-83262607D02*
X60361285Y-84133464D01*
X60361285Y-84133464D02*
X61304713Y-84133464D01*
X138049000Y-71796321D02*
X137976428Y-71868893D01*
X137976428Y-71868893D02*
X137758714Y-71941464D01*
X137758714Y-71941464D02*
X137613571Y-71941464D01*
X137613571Y-71941464D02*
X137395857Y-71868893D01*
X137395857Y-71868893D02*
X137250714Y-71723750D01*
X137250714Y-71723750D02*
X137178143Y-71578607D01*
X137178143Y-71578607D02*
X137105571Y-71288321D01*
X137105571Y-71288321D02*
X137105571Y-71070607D01*
X137105571Y-71070607D02*
X137178143Y-70780321D01*
X137178143Y-70780321D02*
X137250714Y-70635178D01*
X137250714Y-70635178D02*
X137395857Y-70490035D01*
X137395857Y-70490035D02*
X137613571Y-70417464D01*
X137613571Y-70417464D02*
X137758714Y-70417464D01*
X137758714Y-70417464D02*
X137976428Y-70490035D01*
X137976428Y-70490035D02*
X138049000Y-70562607D01*
X138557000Y-70417464D02*
X139500428Y-70417464D01*
X139500428Y-70417464D02*
X138992428Y-70998035D01*
X138992428Y-70998035D02*
X139210143Y-70998035D01*
X139210143Y-70998035D02*
X139355286Y-71070607D01*
X139355286Y-71070607D02*
X139427857Y-71143178D01*
X139427857Y-71143178D02*
X139500428Y-71288321D01*
X139500428Y-71288321D02*
X139500428Y-71651178D01*
X139500428Y-71651178D02*
X139427857Y-71796321D01*
X139427857Y-71796321D02*
X139355286Y-71868893D01*
X139355286Y-71868893D02*
X139210143Y-71941464D01*
X139210143Y-71941464D02*
X138774714Y-71941464D01*
X138774714Y-71941464D02*
X138629571Y-71868893D01*
X138629571Y-71868893D02*
X138557000Y-71796321D01*
X127743857Y-46795464D02*
X127743857Y-48029178D01*
X127743857Y-48029178D02*
X127816428Y-48174321D01*
X127816428Y-48174321D02*
X127889000Y-48246893D01*
X127889000Y-48246893D02*
X128034142Y-48319464D01*
X128034142Y-48319464D02*
X128324428Y-48319464D01*
X128324428Y-48319464D02*
X128469571Y-48246893D01*
X128469571Y-48246893D02*
X128542142Y-48174321D01*
X128542142Y-48174321D02*
X128614714Y-48029178D01*
X128614714Y-48029178D02*
X128614714Y-46795464D01*
X130138713Y-48319464D02*
X129267856Y-48319464D01*
X129703285Y-48319464D02*
X129703285Y-46795464D01*
X129703285Y-46795464D02*
X129558142Y-47013178D01*
X129558142Y-47013178D02*
X129412999Y-47158321D01*
X129412999Y-47158321D02*
X129267856Y-47230893D01*
X67564000Y-81194321D02*
X67491428Y-81266893D01*
X67491428Y-81266893D02*
X67273714Y-81339464D01*
X67273714Y-81339464D02*
X67128571Y-81339464D01*
X67128571Y-81339464D02*
X66910857Y-81266893D01*
X66910857Y-81266893D02*
X66765714Y-81121750D01*
X66765714Y-81121750D02*
X66693143Y-80976607D01*
X66693143Y-80976607D02*
X66620571Y-80686321D01*
X66620571Y-80686321D02*
X66620571Y-80468607D01*
X66620571Y-80468607D02*
X66693143Y-80178321D01*
X66693143Y-80178321D02*
X66765714Y-80033178D01*
X66765714Y-80033178D02*
X66910857Y-79888035D01*
X66910857Y-79888035D02*
X67128571Y-79815464D01*
X67128571Y-79815464D02*
X67273714Y-79815464D01*
X67273714Y-79815464D02*
X67491428Y-79888035D01*
X67491428Y-79888035D02*
X67564000Y-79960607D01*
X69015428Y-81339464D02*
X68144571Y-81339464D01*
X68580000Y-81339464D02*
X68580000Y-79815464D01*
X68580000Y-79815464D02*
X68434857Y-80033178D01*
X68434857Y-80033178D02*
X68289714Y-80178321D01*
X68289714Y-80178321D02*
X68144571Y-80250893D01*
X61649428Y-115067035D02*
X62375143Y-115067035D01*
X61504285Y-115502464D02*
X62012285Y-113978464D01*
X62012285Y-113978464D02*
X62520285Y-115502464D01*
X63826571Y-115502464D02*
X62955714Y-115502464D01*
X63391143Y-115502464D02*
X63391143Y-113978464D01*
X63391143Y-113978464D02*
X63246000Y-114196178D01*
X63246000Y-114196178D02*
X63100857Y-114341321D01*
X63100857Y-114341321D02*
X62955714Y-114413893D01*
X62357000Y-96833464D02*
X61849000Y-96107750D01*
X61486143Y-96833464D02*
X61486143Y-95309464D01*
X61486143Y-95309464D02*
X62066714Y-95309464D01*
X62066714Y-95309464D02*
X62211857Y-95382035D01*
X62211857Y-95382035D02*
X62284428Y-95454607D01*
X62284428Y-95454607D02*
X62357000Y-95599750D01*
X62357000Y-95599750D02*
X62357000Y-95817464D01*
X62357000Y-95817464D02*
X62284428Y-95962607D01*
X62284428Y-95962607D02*
X62211857Y-96035178D01*
X62211857Y-96035178D02*
X62066714Y-96107750D01*
X62066714Y-96107750D02*
X61486143Y-96107750D01*
X63227857Y-95962607D02*
X63082714Y-95890035D01*
X63082714Y-95890035D02*
X63010143Y-95817464D01*
X63010143Y-95817464D02*
X62937571Y-95672321D01*
X62937571Y-95672321D02*
X62937571Y-95599750D01*
X62937571Y-95599750D02*
X63010143Y-95454607D01*
X63010143Y-95454607D02*
X63082714Y-95382035D01*
X63082714Y-95382035D02*
X63227857Y-95309464D01*
X63227857Y-95309464D02*
X63518143Y-95309464D01*
X63518143Y-95309464D02*
X63663286Y-95382035D01*
X63663286Y-95382035D02*
X63735857Y-95454607D01*
X63735857Y-95454607D02*
X63808428Y-95599750D01*
X63808428Y-95599750D02*
X63808428Y-95672321D01*
X63808428Y-95672321D02*
X63735857Y-95817464D01*
X63735857Y-95817464D02*
X63663286Y-95890035D01*
X63663286Y-95890035D02*
X63518143Y-95962607D01*
X63518143Y-95962607D02*
X63227857Y-95962607D01*
X63227857Y-95962607D02*
X63082714Y-96035178D01*
X63082714Y-96035178D02*
X63010143Y-96107750D01*
X63010143Y-96107750D02*
X62937571Y-96252893D01*
X62937571Y-96252893D02*
X62937571Y-96543178D01*
X62937571Y-96543178D02*
X63010143Y-96688321D01*
X63010143Y-96688321D02*
X63082714Y-96760893D01*
X63082714Y-96760893D02*
X63227857Y-96833464D01*
X63227857Y-96833464D02*
X63518143Y-96833464D01*
X63518143Y-96833464D02*
X63663286Y-96760893D01*
X63663286Y-96760893D02*
X63735857Y-96688321D01*
X63735857Y-96688321D02*
X63808428Y-96543178D01*
X63808428Y-96543178D02*
X63808428Y-96252893D01*
X63808428Y-96252893D02*
X63735857Y-96107750D01*
X63735857Y-96107750D02*
X63663286Y-96035178D01*
X63663286Y-96035178D02*
X63518143Y-95962607D01*
X56134000Y-49843464D02*
X55626000Y-49117750D01*
X55263143Y-49843464D02*
X55263143Y-48319464D01*
X55263143Y-48319464D02*
X55843714Y-48319464D01*
X55843714Y-48319464D02*
X55988857Y-48392035D01*
X55988857Y-48392035D02*
X56061428Y-48464607D01*
X56061428Y-48464607D02*
X56134000Y-48609750D01*
X56134000Y-48609750D02*
X56134000Y-48827464D01*
X56134000Y-48827464D02*
X56061428Y-48972607D01*
X56061428Y-48972607D02*
X55988857Y-49045178D01*
X55988857Y-49045178D02*
X55843714Y-49117750D01*
X55843714Y-49117750D02*
X55263143Y-49117750D01*
X56642000Y-48319464D02*
X57658000Y-48319464D01*
X57658000Y-48319464D02*
X57004857Y-49843464D01*
X80390999Y-81393893D02*
X80608714Y-81466464D01*
X80608714Y-81466464D02*
X80971571Y-81466464D01*
X80971571Y-81466464D02*
X81116714Y-81393893D01*
X81116714Y-81393893D02*
X81189285Y-81321321D01*
X81189285Y-81321321D02*
X81261856Y-81176178D01*
X81261856Y-81176178D02*
X81261856Y-81031035D01*
X81261856Y-81031035D02*
X81189285Y-80885893D01*
X81189285Y-80885893D02*
X81116714Y-80813321D01*
X81116714Y-80813321D02*
X80971571Y-80740750D01*
X80971571Y-80740750D02*
X80681285Y-80668178D01*
X80681285Y-80668178D02*
X80536142Y-80595607D01*
X80536142Y-80595607D02*
X80463571Y-80523035D01*
X80463571Y-80523035D02*
X80390999Y-80377893D01*
X80390999Y-80377893D02*
X80390999Y-80232750D01*
X80390999Y-80232750D02*
X80463571Y-80087607D01*
X80463571Y-80087607D02*
X80536142Y-80015035D01*
X80536142Y-80015035D02*
X80681285Y-79942464D01*
X80681285Y-79942464D02*
X81044142Y-79942464D01*
X81044142Y-79942464D02*
X81261856Y-80015035D01*
X81769857Y-79942464D02*
X82132714Y-81466464D01*
X82132714Y-81466464D02*
X82423000Y-80377893D01*
X82423000Y-80377893D02*
X82713285Y-81466464D01*
X82713285Y-81466464D02*
X83076143Y-79942464D01*
X83584142Y-80087607D02*
X83656714Y-80015035D01*
X83656714Y-80015035D02*
X83801857Y-79942464D01*
X83801857Y-79942464D02*
X84164714Y-79942464D01*
X84164714Y-79942464D02*
X84309857Y-80015035D01*
X84309857Y-80015035D02*
X84382428Y-80087607D01*
X84382428Y-80087607D02*
X84454999Y-80232750D01*
X84454999Y-80232750D02*
X84454999Y-80377893D01*
X84454999Y-80377893D02*
X84382428Y-80595607D01*
X84382428Y-80595607D02*
X83511571Y-81466464D01*
X83511571Y-81466464D02*
X84454999Y-81466464D01*
X64008000Y-57844464D02*
X63500000Y-57118750D01*
X63137143Y-57844464D02*
X63137143Y-56320464D01*
X63137143Y-56320464D02*
X63717714Y-56320464D01*
X63717714Y-56320464D02*
X63862857Y-56393035D01*
X63862857Y-56393035D02*
X63935428Y-56465607D01*
X63935428Y-56465607D02*
X64008000Y-56610750D01*
X64008000Y-56610750D02*
X64008000Y-56828464D01*
X64008000Y-56828464D02*
X63935428Y-56973607D01*
X63935428Y-56973607D02*
X63862857Y-57046178D01*
X63862857Y-57046178D02*
X63717714Y-57118750D01*
X63717714Y-57118750D02*
X63137143Y-57118750D01*
X64588571Y-56465607D02*
X64661143Y-56393035D01*
X64661143Y-56393035D02*
X64806286Y-56320464D01*
X64806286Y-56320464D02*
X65169143Y-56320464D01*
X65169143Y-56320464D02*
X65314286Y-56393035D01*
X65314286Y-56393035D02*
X65386857Y-56465607D01*
X65386857Y-56465607D02*
X65459428Y-56610750D01*
X65459428Y-56610750D02*
X65459428Y-56755893D01*
X65459428Y-56755893D02*
X65386857Y-56973607D01*
X65386857Y-56973607D02*
X64516000Y-57844464D01*
X64516000Y-57844464D02*
X65459428Y-57844464D01*
X65659000Y-49589464D02*
X65151000Y-48863750D01*
X64788143Y-49589464D02*
X64788143Y-48065464D01*
X64788143Y-48065464D02*
X65368714Y-48065464D01*
X65368714Y-48065464D02*
X65513857Y-48138035D01*
X65513857Y-48138035D02*
X65586428Y-48210607D01*
X65586428Y-48210607D02*
X65659000Y-48355750D01*
X65659000Y-48355750D02*
X65659000Y-48573464D01*
X65659000Y-48573464D02*
X65586428Y-48718607D01*
X65586428Y-48718607D02*
X65513857Y-48791178D01*
X65513857Y-48791178D02*
X65368714Y-48863750D01*
X65368714Y-48863750D02*
X64788143Y-48863750D01*
X66167000Y-48065464D02*
X67110428Y-48065464D01*
X67110428Y-48065464D02*
X66602428Y-48646035D01*
X66602428Y-48646035D02*
X66820143Y-48646035D01*
X66820143Y-48646035D02*
X66965286Y-48718607D01*
X66965286Y-48718607D02*
X67037857Y-48791178D01*
X67037857Y-48791178D02*
X67110428Y-48936321D01*
X67110428Y-48936321D02*
X67110428Y-49299178D01*
X67110428Y-49299178D02*
X67037857Y-49444321D01*
X67037857Y-49444321D02*
X66965286Y-49516893D01*
X66965286Y-49516893D02*
X66820143Y-49589464D01*
X66820143Y-49589464D02*
X66384714Y-49589464D01*
X66384714Y-49589464D02*
X66239571Y-49516893D01*
X66239571Y-49516893D02*
X66167000Y-49444321D01*
D11*
%TO.C,Q1*%
X123912000Y-72916000D02*
X134152000Y-72916000D01*
X134152000Y-71406000D02*
X134152000Y-76047000D01*
X123912000Y-76047000D02*
X134152000Y-76047000D01*
X123912000Y-71406000D02*
X123912000Y-76047000D01*
X130883000Y-71406000D02*
X130883000Y-72916000D01*
X127182000Y-71406000D02*
X127182000Y-72916000D01*
X123912000Y-71406000D02*
X134152000Y-71406000D01*
%TO.C,R11*%
X110366436Y-75538000D02*
X110820564Y-75538000D01*
X110366436Y-74068000D02*
X110820564Y-74068000D01*
%TO.C,R10*%
X89030436Y-75665000D02*
X89484564Y-75665000D01*
X89030436Y-74195000D02*
X89484564Y-74195000D01*
%TO.C,J2*%
X85725000Y-139760000D02*
X98485000Y-139760000D01*
X84455000Y-139760000D02*
X83125000Y-139760000D01*
X83125000Y-139760000D02*
X83125000Y-138430000D01*
X85725000Y-139760000D02*
X85725000Y-137100000D01*
X98485000Y-139760000D02*
X98485000Y-137100000D01*
X85725000Y-137100000D02*
X98485000Y-137100000D01*
D12*
%TO.C,SW1*%
X39370000Y-64770000D02*
X39370000Y-67310000D01*
X39370000Y-67310000D02*
X40640000Y-67310000D01*
X40640000Y-62230000D02*
X40640000Y-72390000D01*
X40640000Y-64770000D02*
X39370000Y-64770000D01*
X40640000Y-72390000D02*
X49530000Y-72390000D01*
X49530000Y-62230000D02*
X40640000Y-62230000D01*
X49530000Y-63500000D02*
X49530000Y-62230000D01*
X49530000Y-72390000D02*
X49530000Y-71120000D01*
D11*
%TO.C,D4*%
X56220000Y-60359000D02*
X56220000Y-60515000D01*
X56220000Y-62675000D02*
X56220000Y-62831000D01*
X59452334Y-60516392D02*
G75*
G03*
X56220001Y-60359485I-1672334J-1078608D01*
G01*
X58821129Y-60515164D02*
G75*
G03*
X56739040Y-60515001I-1041129J-1079836D01*
G01*
X56739040Y-62674999D02*
G75*
G03*
X58821129Y-62674836I1040960J1079999D01*
G01*
X56220001Y-62830515D02*
G75*
G03*
X59452334Y-62673608I1559999J1235515D01*
G01*
%TO.C,R5*%
X75211000Y-129132064D02*
X75211000Y-128677936D01*
X76681000Y-129132064D02*
X76681000Y-128677936D01*
%TO.C,TH1*%
X124415277Y-57020000D02*
X125115277Y-57020000D01*
X124765277Y-56670000D02*
X124765277Y-57370000D01*
X131910000Y-59055000D02*
G75*
G03*
X131910000Y-59055000I-3620000J0D01*
G01*
%TO.C,R6*%
X64362064Y-74395000D02*
X63907936Y-74395000D01*
X64362064Y-72925000D02*
X63907936Y-72925000D01*
%TO.C,D3*%
X102580000Y-73694000D02*
X102580000Y-73850000D01*
X102580000Y-76010000D02*
X102580000Y-76166000D01*
X105812334Y-73851392D02*
G75*
G03*
X102580001Y-73694485I-1672334J-1078608D01*
G01*
X105181129Y-73850164D02*
G75*
G03*
X103099040Y-73850001I-1041129J-1079836D01*
G01*
X103099040Y-76009999D02*
G75*
G03*
X105181129Y-76009836I1040960J1079999D01*
G01*
X102580001Y-76165515D02*
G75*
G03*
X105812334Y-76008608I1559999J1235515D01*
G01*
%TO.C,C2*%
X55938748Y-79910000D02*
X56461252Y-79910000D01*
X55938748Y-81380000D02*
X56461252Y-81380000D01*
D12*
%TO.C,DP1*%
X73025000Y-46355000D02*
X113665000Y-46355000D01*
X73025000Y-71755000D02*
X73025000Y-46355000D01*
X113665000Y-46355000D02*
X113665000Y-71755000D01*
X113665000Y-71755000D02*
X73025000Y-71755000D01*
D11*
%TO.C,SW3*%
X97155000Y-81915000D02*
X111125000Y-81915000D01*
X97155000Y-95885000D02*
X97155000Y-81915000D01*
X111125000Y-81915000D02*
X111125000Y-95885000D01*
X111125000Y-95885000D02*
X97155000Y-95885000D01*
D12*
%TO.C,M2*%
X133350000Y-92583000D02*
X133350000Y-83947000D01*
X141478000Y-92583000D02*
X133350000Y-92583000D01*
X133350000Y-83947000D02*
X141478000Y-83947000D01*
X141478000Y-83947000D02*
X141478000Y-92583000D01*
D11*
%TO.C,D2*%
X80985000Y-73694000D02*
X80985000Y-73850000D01*
X80985000Y-76010000D02*
X80985000Y-76166000D01*
X84217334Y-73851392D02*
G75*
G03*
X80985001Y-73694485I-1672334J-1078608D01*
G01*
X83586129Y-73850164D02*
G75*
G03*
X81504040Y-73850001I-1041129J-1079836D01*
G01*
X81504040Y-76009999D02*
G75*
G03*
X83586129Y-76009836I1040960J1079999D01*
G01*
X80985001Y-76165515D02*
G75*
G03*
X84217334Y-76008608I1559999J1235515D01*
G01*
%TO.C,D1*%
X56220000Y-72424000D02*
X56220000Y-72580000D01*
X56220000Y-74740000D02*
X56220000Y-74896000D01*
X59452334Y-72581392D02*
G75*
G03*
X56220001Y-72424485I-1672334J-1078608D01*
G01*
X58821129Y-72580164D02*
G75*
G03*
X56739040Y-72580001I-1041129J-1079836D01*
G01*
X56739040Y-74739999D02*
G75*
G03*
X58821129Y-74739836I1040960J1079999D01*
G01*
X56220001Y-74895515D02*
G75*
G03*
X59452334Y-74738608I1559999J1235515D01*
G01*
%TO.C,R1*%
X119787936Y-58320000D02*
X120242064Y-58320000D01*
X119787936Y-59790000D02*
X120242064Y-59790000D01*
D12*
%TO.C,LS1*%
X136427712Y-118110000D02*
G75*
G03*
X136427712Y-118110000I-11412712J0D01*
G01*
D11*
%TO.C,R4*%
X78640000Y-129132064D02*
X78640000Y-128677936D01*
X80110000Y-129132064D02*
X80110000Y-128677936D01*
D12*
%TO.C,J1*%
X41402000Y-93218000D02*
X41402000Y-84582000D01*
X49530000Y-93218000D02*
X41402000Y-93218000D01*
X41402000Y-84582000D02*
X49530000Y-84582000D01*
X49530000Y-84582000D02*
X49530000Y-93218000D01*
D11*
%TO.C,R9*%
X56922936Y-98325000D02*
X57377064Y-98325000D01*
X56922936Y-99795000D02*
X57377064Y-99795000D01*
%TO.C,U2*%
X65445000Y-85305000D02*
X65445000Y-89946000D01*
X62176000Y-85305000D02*
X62176000Y-86815000D01*
X58475000Y-85305000D02*
X58475000Y-86815000D01*
X55205000Y-89946000D02*
X65445000Y-89946000D01*
X55205000Y-86815000D02*
X65445000Y-86815000D01*
X55205000Y-85305000D02*
X65445000Y-85305000D01*
X55205000Y-85305000D02*
X55205000Y-89946000D01*
%TO.C,C3*%
X137533748Y-73560000D02*
X138056252Y-73560000D01*
X137533748Y-75030000D02*
X138056252Y-75030000D01*
D12*
%TO.C,U1*%
X131445000Y-46355000D02*
X131445000Y-41275000D01*
X131445000Y-41275000D02*
X118745000Y-41275000D01*
X125095000Y-46355000D02*
X131445000Y-46355000D01*
X118745000Y-46355000D02*
X125095000Y-46355000D01*
X118745000Y-41275000D02*
X118745000Y-46355000D01*
D11*
%TO.C,C1*%
X64193748Y-80145000D02*
X64716252Y-80145000D01*
X64193748Y-81615000D02*
X64716252Y-81615000D01*
%TO.C,A1*%
X65285000Y-123885000D02*
X96005000Y-123885000D01*
X96005000Y-123885000D02*
X96005000Y-105985000D01*
X65345000Y-121395000D02*
X95945000Y-121395000D01*
X95945000Y-121395000D02*
X95945000Y-108475000D01*
X65345000Y-115935000D02*
X65345000Y-121395000D01*
X65345000Y-108475000D02*
X65345000Y-113935000D01*
X95945000Y-108475000D02*
X65345000Y-108475000D01*
X65285000Y-105985000D02*
X65285000Y-123885000D01*
X96005000Y-105985000D02*
X65285000Y-105985000D01*
X65345000Y-115935000D02*
G75*
G03*
X65345000Y-113935000I0J1000000D01*
G01*
%TO.C,R8*%
X62637936Y-98325000D02*
X63092064Y-98325000D01*
X62637936Y-99795000D02*
X63092064Y-99795000D01*
%TO.C,R7*%
X58080000Y-46321000D02*
X58080000Y-46165000D01*
X58080000Y-44005000D02*
X58080000Y-43849000D01*
X54847666Y-46163608D02*
G75*
G03*
X58079999Y-46320515I1672334J1078608D01*
G01*
X55478871Y-46164836D02*
G75*
G03*
X57560960Y-46164999I1041129J1079836D01*
G01*
X57560960Y-44005001D02*
G75*
G03*
X55478871Y-44005164I-1040960J-1079999D01*
G01*
X58079999Y-43849485D02*
G75*
G03*
X54847666Y-44006392I-1559999J-1235515D01*
G01*
%TO.C,SW2*%
X75565000Y-81915000D02*
X89535000Y-81915000D01*
X75565000Y-95885000D02*
X75565000Y-81915000D01*
X89535000Y-81915000D02*
X89535000Y-95885000D01*
X89535000Y-95885000D02*
X75565000Y-95885000D01*
%TO.C,R2*%
X64362064Y-60860000D02*
X63907936Y-60860000D01*
X64362064Y-62330000D02*
X63907936Y-62330000D01*
%TO.C,R3*%
X65989564Y-45820000D02*
X65535436Y-45820000D01*
X65989564Y-44350000D02*
X65535436Y-44350000D01*
%TD*%
M02*
