%TF.GenerationSoftware,KiCad,Pcbnew,7.0.8-7.0.8~ubuntu22.04.1*%
%TF.CreationDate,2023-11-09T16:27:44-05:00*%
%TF.ProjectId,boot_camp_pcb,626f6f74-5f63-4616-9d70-5f7063622e6b,rev?*%
%TF.SameCoordinates,Original*%
%TF.FileFunction,Soldermask,Top*%
%TF.FilePolarity,Negative*%
%FSLAX46Y46*%
G04 Gerber Fmt 4.6, Leading zero omitted, Abs format (unit mm)*
G04 Created by KiCad (PCBNEW 7.0.8-7.0.8~ubuntu22.04.1) date 2023-11-09 16:27:44*
%MOMM*%
%LPD*%
G01*
G04 APERTURE LIST*
G04 Aperture macros list*
%AMRoundRect*
0 Rectangle with rounded corners*
0 $1 Rounding radius*
0 $2 $3 $4 $5 $6 $7 $8 $9 X,Y pos of 4 corners*
0 Add a 4 corners polygon primitive as box body*
4,1,4,$2,$3,$4,$5,$6,$7,$8,$9,$2,$3,0*
0 Add four circle primitives for the rounded corners*
1,1,$1+$1,$2,$3*
1,1,$1+$1,$4,$5*
1,1,$1+$1,$6,$7*
1,1,$1+$1,$8,$9*
0 Add four rect primitives between the rounded corners*
20,1,$1+$1,$2,$3,$4,$5,0*
20,1,$1+$1,$4,$5,$6,$7,0*
20,1,$1+$1,$6,$7,$8,$9,0*
20,1,$1+$1,$8,$9,$2,$3,0*%
G04 Aperture macros list end*
%ADD10O,1.905000X2.000000*%
%ADD11R,1.905000X2.000000*%
%ADD12RoundRect,0.250000X-0.262500X-0.450000X0.262500X-0.450000X0.262500X0.450000X-0.262500X0.450000X0*%
%ADD13R,1.700000X1.700000*%
%ADD14O,1.700000X1.700000*%
%ADD15C,1.524000*%
%ADD16R,1.800000X1.800000*%
%ADD17C,1.800000*%
%ADD18RoundRect,0.250000X0.450000X-0.262500X0.450000X0.262500X-0.450000X0.262500X-0.450000X-0.262500X0*%
%ADD19R,1.600000X1.600000*%
%ADD20C,1.600000*%
%ADD21RoundRect,0.250000X0.262500X0.450000X-0.262500X0.450000X-0.262500X-0.450000X0.262500X-0.450000X0*%
%ADD22RoundRect,0.250000X-0.250000X-0.475000X0.250000X-0.475000X0.250000X0.475000X-0.250000X0.475000X0*%
%ADD23C,2.286000*%
%ADD24C,1.700000*%
%ADD25C,4.000000*%
%ADD26C,2.200000*%
%ADD27O,2.159000X1.651000*%
%ADD28C,6.400000*%
%ADD29O,1.600000X1.600000*%
G04 APERTURE END LIST*
D10*
%TO.C,Q1*%
X131572000Y-74676000D03*
X129032000Y-74676000D03*
D11*
X126492000Y-74676000D03*
%TD*%
D12*
%TO.C,R11*%
X111506000Y-74803000D03*
X109681000Y-74803000D03*
%TD*%
%TO.C,R10*%
X90170000Y-74930000D03*
X88345000Y-74930000D03*
%TD*%
D13*
%TO.C,J2*%
X84455000Y-138430000D03*
D14*
X86995000Y-138430000D03*
X89535000Y-138430000D03*
X92075000Y-138430000D03*
X94615000Y-138430000D03*
X97155000Y-138430000D03*
%TD*%
D15*
%TO.C,SW1*%
X49530000Y-64770000D03*
X49530000Y-69850000D03*
X44450000Y-64770000D03*
X44450000Y-69850000D03*
%TD*%
D16*
%TO.C,D4*%
X56510000Y-61595000D03*
D17*
X59050000Y-61595000D03*
%TD*%
D18*
%TO.C,R5*%
X75946000Y-129817500D03*
X75946000Y-127992500D03*
%TD*%
D19*
%TO.C,TH1*%
X127040000Y-59055000D03*
D20*
X129540000Y-59055000D03*
%TD*%
D21*
%TO.C,R6*%
X65047500Y-73660000D03*
X63222500Y-73660000D03*
%TD*%
D16*
%TO.C,D3*%
X102870000Y-74930000D03*
D17*
X105410000Y-74930000D03*
%TD*%
D22*
%TO.C,C2*%
X55250000Y-80645000D03*
X57150000Y-80645000D03*
%TD*%
D15*
%TO.C,DP1*%
X81915000Y-47625000D03*
X84455000Y-47625000D03*
X86995000Y-47625000D03*
X89535000Y-47625000D03*
X92075000Y-47625000D03*
X94615000Y-47625000D03*
X97155000Y-47625000D03*
X99695000Y-47625000D03*
X102235000Y-47625000D03*
X104775000Y-47625000D03*
D23*
X78105000Y-48895000D03*
X108585000Y-48895000D03*
X108585000Y-69215000D03*
X78105000Y-69215000D03*
%TD*%
D24*
%TO.C,SW3*%
X99060000Y-88900000D03*
D25*
X104140000Y-88900000D03*
D24*
X109220000Y-88900000D03*
D26*
X106680000Y-83820000D03*
X100330000Y-86360000D03*
%TD*%
D27*
%TO.C,M2*%
X137160000Y-90805000D03*
X137160000Y-85725000D03*
%TD*%
D16*
%TO.C,D2*%
X81275000Y-74930000D03*
D17*
X83815000Y-74930000D03*
%TD*%
D16*
%TO.C,D1*%
X56510000Y-73660000D03*
D17*
X59050000Y-73660000D03*
%TD*%
D12*
%TO.C,R1*%
X119102500Y-59055000D03*
X120927500Y-59055000D03*
%TD*%
D15*
%TO.C,LS1*%
X120015000Y-118110000D03*
X130015000Y-118110000D03*
%TD*%
D18*
%TO.C,R4*%
X79375000Y-129817500D03*
X79375000Y-127992500D03*
%TD*%
D28*
%TO.C,H2*%
X138430000Y-44450000D03*
%TD*%
%TO.C,H1*%
X44450000Y-44450000D03*
%TD*%
D27*
%TO.C,J1*%
X45720000Y-91440000D03*
X45720000Y-86360000D03*
%TD*%
D12*
%TO.C,R9*%
X56237500Y-99060000D03*
X58062500Y-99060000D03*
%TD*%
D10*
%TO.C,U2*%
X62865000Y-88575000D03*
X60325000Y-88575000D03*
D11*
X57785000Y-88575000D03*
%TD*%
D22*
%TO.C,C3*%
X136845000Y-74295000D03*
X138745000Y-74295000D03*
%TD*%
D15*
%TO.C,U1*%
X128905000Y-43815000D03*
X126365000Y-43815000D03*
X123825000Y-43815000D03*
X121285000Y-43815000D03*
%TD*%
D22*
%TO.C,C1*%
X63505000Y-80880000D03*
X65405000Y-80880000D03*
%TD*%
D19*
%TO.C,A1*%
X66675000Y-122555000D03*
D29*
X69215000Y-122555000D03*
X71755000Y-122555000D03*
X74295000Y-122555000D03*
X76835000Y-122555000D03*
X79375000Y-122555000D03*
X81915000Y-122555000D03*
X84455000Y-122555000D03*
X86995000Y-122555000D03*
X89535000Y-122555000D03*
X92075000Y-122555000D03*
X94615000Y-122555000D03*
X94615000Y-107315000D03*
X92075000Y-107315000D03*
X89535000Y-107315000D03*
X86995000Y-107315000D03*
X84455000Y-107315000D03*
X81915000Y-107315000D03*
X79375000Y-107315000D03*
X76835000Y-107315000D03*
X74295000Y-107315000D03*
X71755000Y-107315000D03*
X69215000Y-107315000D03*
X66675000Y-107315000D03*
%TD*%
D12*
%TO.C,R8*%
X61952500Y-99060000D03*
X63777500Y-99060000D03*
%TD*%
D16*
%TO.C,R7*%
X57790000Y-45085000D03*
D17*
X55250000Y-45085000D03*
%TD*%
D28*
%TO.C,H3*%
X44450000Y-138430000D03*
%TD*%
D24*
%TO.C,SW2*%
X77470000Y-88900000D03*
D25*
X82550000Y-88900000D03*
D24*
X87630000Y-88900000D03*
D26*
X85090000Y-83820000D03*
X78740000Y-86360000D03*
%TD*%
D21*
%TO.C,R2*%
X63222500Y-61595000D03*
X65047500Y-61595000D03*
%TD*%
%TO.C,R3*%
X66675000Y-45085000D03*
X64850000Y-45085000D03*
%TD*%
D28*
%TO.C,H4*%
X138430000Y-138430000D03*
%TD*%
M02*
