%TF.GenerationSoftware,KiCad,Pcbnew,7.0.8-7.0.8~ubuntu22.04.1*%
%TF.CreationDate,2023-11-09T16:27:44-05:00*%
%TF.ProjectId,boot_camp_pcb,626f6f74-5f63-4616-9d70-5f7063622e6b,rev?*%
%TF.SameCoordinates,Original*%
%TF.FileFunction,Copper,L2,Bot*%
%TF.FilePolarity,Positive*%
%FSLAX46Y46*%
G04 Gerber Fmt 4.6, Leading zero omitted, Abs format (unit mm)*
G04 Created by KiCad (PCBNEW 7.0.8-7.0.8~ubuntu22.04.1) date 2023-11-09 16:27:44*
%MOMM*%
%LPD*%
G01*
G04 APERTURE LIST*
%TA.AperFunction,ComponentPad*%
%ADD10O,1.905000X2.000000*%
%TD*%
%TA.AperFunction,ComponentPad*%
%ADD11R,1.905000X2.000000*%
%TD*%
%TA.AperFunction,ComponentPad*%
%ADD12R,1.700000X1.700000*%
%TD*%
%TA.AperFunction,ComponentPad*%
%ADD13O,1.700000X1.700000*%
%TD*%
%TA.AperFunction,ComponentPad*%
%ADD14C,1.524000*%
%TD*%
%TA.AperFunction,ComponentPad*%
%ADD15R,1.800000X1.800000*%
%TD*%
%TA.AperFunction,ComponentPad*%
%ADD16C,1.800000*%
%TD*%
%TA.AperFunction,ComponentPad*%
%ADD17R,1.600000X1.600000*%
%TD*%
%TA.AperFunction,ComponentPad*%
%ADD18C,1.600000*%
%TD*%
%TA.AperFunction,ComponentPad*%
%ADD19C,2.286000*%
%TD*%
%TA.AperFunction,ComponentPad*%
%ADD20C,2.200000*%
%TD*%
%TA.AperFunction,ComponentPad*%
%ADD21O,2.159000X1.651000*%
%TD*%
%TA.AperFunction,ComponentPad*%
%ADD22C,6.400000*%
%TD*%
%TA.AperFunction,ComponentPad*%
%ADD23O,1.600000X1.600000*%
%TD*%
%TA.AperFunction,ViaPad*%
%ADD24C,0.800000*%
%TD*%
%TA.AperFunction,Conductor*%
%ADD25C,0.250000*%
%TD*%
%TA.AperFunction,Conductor*%
%ADD26C,0.635000*%
%TD*%
G04 APERTURE END LIST*
D10*
%TO.P,Q1,3,S*%
%TO.N,GND*%
X131572000Y-74676000D03*
%TO.P,Q1,2,D*%
%TO.N,Net-(M2--)*%
X129032000Y-74676000D03*
D11*
%TO.P,Q1,1,G*%
%TO.N,Net-(A1-D10)*%
X126492000Y-74676000D03*
%TD*%
D12*
%TO.P,J2,1,Pin_1*%
%TO.N,GND*%
X84455000Y-138430000D03*
D13*
%TO.P,J2,2,Pin_2*%
%TO.N,unconnected-(J2-Pin_2-Pad2)*%
X86995000Y-138430000D03*
%TO.P,J2,3,Pin_3*%
%TO.N,unconnected-(J2-Pin_3-Pad3)*%
X89535000Y-138430000D03*
%TO.P,J2,4,Pin_4*%
%TO.N,/RX*%
X92075000Y-138430000D03*
%TO.P,J2,5,Pin_5*%
%TO.N,/TX*%
X94615000Y-138430000D03*
%TO.P,J2,6,Pin_6*%
%TO.N,unconnected-(J2-Pin_6-Pad6)*%
X97155000Y-138430000D03*
%TD*%
D14*
%TO.P,SW1,1,A*%
%TO.N,Net-(J1-Pin_1)*%
X49530000Y-64770000D03*
%TO.P,SW1,2,B*%
%TO.N,+12V*%
X49530000Y-69850000D03*
%TO.P,SW1,3*%
%TO.N,N/C*%
X44450000Y-64770000D03*
%TO.P,SW1,4*%
X44450000Y-69850000D03*
%TD*%
D15*
%TO.P,D4,1,K*%
%TO.N,GND*%
X56510000Y-61595000D03*
D16*
%TO.P,D4,2,A*%
%TO.N,Net-(D4-A)*%
X59050000Y-61595000D03*
%TD*%
D17*
%TO.P,TH1,1*%
%TO.N,Net-(R1-Pad2)*%
X127040000Y-59055000D03*
D18*
%TO.P,TH1,2*%
%TO.N,Net-(A1-A0)*%
X129540000Y-59055000D03*
%TD*%
D15*
%TO.P,D3,1,K*%
%TO.N,GND*%
X102870000Y-74930000D03*
D16*
%TO.P,D3,2,A*%
%TO.N,Net-(D3-A)*%
X105410000Y-74930000D03*
%TD*%
D14*
%TO.P,DP1,1,RX*%
%TO.N,/TX*%
X81915000Y-47625000D03*
%TO.P,DP1,2*%
%TO.N,N/C*%
X84455000Y-47625000D03*
%TO.P,DP1,3*%
X86995000Y-47625000D03*
%TO.P,DP1,4*%
X89535000Y-47625000D03*
%TO.P,DP1,5*%
X92075000Y-47625000D03*
%TO.P,DP1,6*%
X94615000Y-47625000D03*
%TO.P,DP1,7,VCC*%
%TO.N,+5V*%
X97155000Y-47625000D03*
%TO.P,DP1,8,GND*%
%TO.N,GND*%
X99695000Y-47625000D03*
%TO.P,DP1,9*%
%TO.N,N/C*%
X102235000Y-47625000D03*
%TO.P,DP1,10*%
X104775000Y-47625000D03*
D19*
%TO.P,DP1,11*%
X78105000Y-48895000D03*
%TO.P,DP1,12*%
X108585000Y-48895000D03*
%TO.P,DP1,13*%
X108585000Y-69215000D03*
%TO.P,DP1,14*%
X78105000Y-69215000D03*
%TD*%
D20*
%TO.P,SW3,1,1*%
%TO.N,GND*%
X106680000Y-83820000D03*
%TO.P,SW3,2,2*%
%TO.N,Net-(A1-D5)*%
X100330000Y-86360000D03*
%TD*%
D21*
%TO.P,M2,1,+*%
%TO.N,+12V*%
X137160000Y-90805000D03*
%TO.P,M2,2,-*%
%TO.N,Net-(M2--)*%
X137160000Y-85725000D03*
%TD*%
D15*
%TO.P,D2,1,K*%
%TO.N,GND*%
X81275000Y-74930000D03*
D16*
%TO.P,D2,2,A*%
%TO.N,Net-(D2-A)*%
X83815000Y-74930000D03*
%TD*%
D15*
%TO.P,D1,1,K*%
%TO.N,GND*%
X56510000Y-73660000D03*
D16*
%TO.P,D1,2,A*%
%TO.N,Net-(D1-A)*%
X59050000Y-73660000D03*
%TD*%
D14*
%TO.P,LS1,1,1*%
%TO.N,Net-(A1-D6)*%
X120015000Y-118110000D03*
%TO.P,LS1,2,2*%
%TO.N,Net-(A1-D7)*%
X130015000Y-118110000D03*
%TD*%
D22*
%TO.P,H2,1*%
%TO.N,N/C*%
X138430000Y-44450000D03*
%TD*%
%TO.P,H1,1*%
%TO.N,N/C*%
X44450000Y-44450000D03*
%TD*%
D21*
%TO.P,J1,2,Pin_2*%
%TO.N,GND*%
X45720000Y-91440000D03*
%TO.P,J1,1,Pin_1*%
%TO.N,Net-(J1-Pin_1)*%
X45720000Y-86360000D03*
%TD*%
D10*
%TO.P,U2,3,VO*%
%TO.N,+5V*%
X62865000Y-88575000D03*
%TO.P,U2,2,GND*%
%TO.N,GND*%
X60325000Y-88575000D03*
D11*
%TO.P,U2,1,VI*%
%TO.N,+12V*%
X57785000Y-88575000D03*
%TD*%
D14*
%TO.P,U1,1,VDD*%
%TO.N,+5V*%
X128905000Y-43815000D03*
%TO.P,U1,2,SDA*%
%TO.N,/SDA*%
X126365000Y-43815000D03*
%TO.P,U1,3,GND*%
%TO.N,GND*%
X123825000Y-43815000D03*
%TO.P,U1,4,SCL*%
%TO.N,/SCL*%
X121285000Y-43815000D03*
%TD*%
D17*
%TO.P,A1,1,D1/TX*%
%TO.N,/TX*%
X66675000Y-122555000D03*
D23*
%TO.P,A1,2,D0/RX*%
%TO.N,/RX*%
X69215000Y-122555000D03*
%TO.P,A1,3,GND*%
%TO.N,GND*%
X71755000Y-122555000D03*
%TO.P,A1,4,GND*%
X74295000Y-122555000D03*
%TO.P,A1,5,D2*%
%TO.N,/SDA*%
X76835000Y-122555000D03*
%TO.P,A1,6,D3*%
%TO.N,/SCL*%
X79375000Y-122555000D03*
%TO.P,A1,7,D4*%
%TO.N,Net-(A1-D4)*%
X81915000Y-122555000D03*
%TO.P,A1,8,D5*%
%TO.N,Net-(A1-D5)*%
X84455000Y-122555000D03*
%TO.P,A1,9,D6*%
%TO.N,Net-(A1-D6)*%
X86995000Y-122555000D03*
%TO.P,A1,10,D7*%
%TO.N,Net-(A1-D7)*%
X89535000Y-122555000D03*
%TO.P,A1,11,D8*%
%TO.N,Net-(A1-D8)*%
X92075000Y-122555000D03*
%TO.P,A1,12,D9*%
%TO.N,Net-(A1-D9)*%
X94615000Y-122555000D03*
%TO.P,A1,13,D10*%
%TO.N,Net-(A1-D10)*%
X94615000Y-107315000D03*
%TO.P,A1,14,D16*%
%TO.N,/MOSI*%
X92075000Y-107315000D03*
%TO.P,A1,15,D14*%
%TO.N,/MISO*%
X89535000Y-107315000D03*
%TO.P,A1,16,D15*%
%TO.N,/SCK*%
X86995000Y-107315000D03*
%TO.P,A1,17,A0*%
%TO.N,Net-(A1-A0)*%
X84455000Y-107315000D03*
%TO.P,A1,18,A1*%
%TO.N,Net-(A1-A1)*%
X81915000Y-107315000D03*
%TO.P,A1,19,A2*%
%TO.N,Net-(A1-A2)*%
X79375000Y-107315000D03*
%TO.P,A1,20,A3*%
%TO.N,unconnected-(A1-A3-Pad20)*%
X76835000Y-107315000D03*
%TO.P,A1,21,+5V*%
%TO.N,+5V*%
X74295000Y-107315000D03*
%TO.P,A1,22,~{RESET}*%
%TO.N,unconnected-(A1-~{RESET}-Pad22)*%
X71755000Y-107315000D03*
%TO.P,A1,23,GND*%
%TO.N,GND*%
X69215000Y-107315000D03*
%TO.P,A1,24*%
%TO.N,N/C*%
X66675000Y-107315000D03*
%TD*%
D15*
%TO.P,R7,1*%
%TO.N,Net-(R3-Pad2)*%
X57790000Y-45085000D03*
D16*
%TO.P,R7,2*%
%TO.N,Net-(A1-A1)*%
X55250000Y-45085000D03*
%TD*%
D22*
%TO.P,H3,1*%
%TO.N,N/C*%
X44450000Y-138430000D03*
%TD*%
D20*
%TO.P,SW2,1,1*%
%TO.N,GND*%
X85090000Y-83820000D03*
%TO.P,SW2,2,2*%
%TO.N,Net-(A1-D4)*%
X78740000Y-86360000D03*
%TD*%
D22*
%TO.P,H4,1*%
%TO.N,N/C*%
X138430000Y-138430000D03*
%TD*%
D24*
%TO.N,+5V*%
X75946000Y-131064000D03*
X68072000Y-45085000D03*
X66675000Y-73533000D03*
X61976000Y-80899000D03*
%TO.N,+12V*%
X63754000Y-97282000D03*
%TO.N,Net-(A1-A1)*%
X52197000Y-104648000D03*
%TO.N,+5V*%
X119126000Y-57531000D03*
%TO.N,Net-(A1-A0)*%
X84328000Y-102616000D03*
X130937000Y-102362000D03*
%TO.N,+12V*%
X135255000Y-74168000D03*
X136398000Y-65532000D03*
X65024000Y-62992000D03*
X65024000Y-69850000D03*
%TO.N,/TX*%
X65442000Y-135165000D03*
%TO.N,/RX*%
X71120000Y-135890000D03*
%TO.N,/TX*%
X66929000Y-52070000D03*
%TO.N,Net-(A1-D10)*%
X126492000Y-106934000D03*
%TO.N,Net-(A1-D8)*%
X91313000Y-74930000D03*
%TO.N,Net-(A1-D9)*%
X112903000Y-74803000D03*
X112776000Y-122428000D03*
%TO.N,Net-(A1-A2)*%
X77470000Y-100965000D03*
%TO.N,Net-(A1-D5)*%
X100457000Y-119253000D03*
%TO.N,/SDA*%
X76835000Y-114554000D03*
X123444000Y-114554000D03*
%TO.N,/SCL*%
X79248000Y-113538000D03*
X116967000Y-113411000D03*
%TD*%
D25*
%TO.N,+12V*%
X63754000Y-97282000D02*
X57785000Y-91313000D01*
X57785000Y-91313000D02*
X57785000Y-88575000D01*
%TO.N,Net-(A1-A1)*%
X55250000Y-45085000D02*
X52197000Y-48138000D01*
X52197000Y-48138000D02*
X52197000Y-104648000D01*
%TO.N,+5V*%
X119126000Y-57531000D02*
X119126000Y-57912000D01*
X119126000Y-57912000D02*
X119380000Y-58166000D01*
%TO.N,Net-(A1-A0)*%
X84328000Y-102616000D02*
X84455000Y-102743000D01*
X84455000Y-102743000D02*
X84455000Y-107315000D01*
X129540000Y-59055000D02*
X133223000Y-62738000D01*
X133223000Y-62738000D02*
X133223000Y-78867000D01*
X133223000Y-78867000D02*
X130937000Y-81153000D01*
X130937000Y-81153000D02*
X130937000Y-102362000D01*
D26*
%TO.N,+12V*%
X135255000Y-74168000D02*
X135255000Y-82677000D01*
X135255000Y-82677000D02*
X134366000Y-83566000D01*
X134366000Y-83566000D02*
X134366000Y-88011000D01*
X134366000Y-88011000D02*
X137160000Y-90805000D01*
X136398000Y-65532000D02*
X136398000Y-73025000D01*
X136398000Y-73025000D02*
X135255000Y-74168000D01*
X65024000Y-69850000D02*
X65024000Y-62992000D01*
%TO.N,Net-(J1-Pin_1)*%
X49530000Y-64770000D02*
X46863000Y-67437000D01*
X46863000Y-67437000D02*
X46863000Y-85217000D01*
X46863000Y-85217000D02*
X45720000Y-86360000D01*
D25*
%TO.N,/TX*%
X65442000Y-135165000D02*
X65442000Y-125439000D01*
X65442000Y-125439000D02*
X66675000Y-124206000D01*
X66675000Y-124206000D02*
X66675000Y-122555000D01*
%TO.N,/RX*%
X71120000Y-135890000D02*
X71120000Y-128778000D01*
X69215000Y-126873000D02*
X69215000Y-122555000D01*
X71120000Y-128778000D02*
X69215000Y-126873000D01*
%TO.N,/TX*%
X66929000Y-52070000D02*
X67800000Y-52941000D01*
X67800000Y-52941000D02*
X67800000Y-121430000D01*
X67800000Y-121430000D02*
X66675000Y-122555000D01*
%TO.N,Net-(A1-D10)*%
X126492000Y-74676000D02*
X126492000Y-106934000D01*
X126492000Y-107061000D02*
X126492000Y-106934000D01*
%TO.N,Net-(A1-D8)*%
X91313000Y-74930000D02*
X90950000Y-75293000D01*
X90950000Y-75293000D02*
X90950000Y-121430000D01*
X90950000Y-121430000D02*
X92075000Y-122555000D01*
%TO.N,Net-(A1-D9)*%
X112903000Y-122301000D02*
X112776000Y-122428000D01*
X112903000Y-74803000D02*
X112903000Y-122301000D01*
%TO.N,Net-(A1-A2)*%
X77470000Y-100965000D02*
X77470000Y-105410000D01*
X77470000Y-105410000D02*
X79375000Y-107315000D01*
%TO.N,Net-(A1-D5)*%
X100330000Y-86360000D02*
X100330000Y-119126000D01*
X100330000Y-119126000D02*
X100457000Y-119253000D01*
%TO.N,Net-(A1-D4)*%
X78740000Y-86360000D02*
X78740000Y-105029000D01*
X78740000Y-105029000D02*
X80790000Y-107079000D01*
X80790000Y-107079000D02*
X80790000Y-121430000D01*
X80790000Y-121430000D02*
X81915000Y-122555000D01*
%TO.N,/SDA*%
X76835000Y-114554000D02*
X76835000Y-122555000D01*
X126365000Y-43815000D02*
X126365000Y-51943000D01*
X126365000Y-51943000D02*
X123444000Y-54864000D01*
X123444000Y-54864000D02*
X123444000Y-114554000D01*
%TO.N,/SCL*%
X79248000Y-113538000D02*
X79375000Y-113665000D01*
X79375000Y-113665000D02*
X79375000Y-122555000D01*
X121285000Y-43815000D02*
X118237000Y-43815000D01*
X118237000Y-43815000D02*
X116840000Y-45212000D01*
X116840000Y-45212000D02*
X116840000Y-113284000D01*
X116840000Y-113284000D02*
X116967000Y-113411000D01*
%TD*%
%TA.AperFunction,Conductor*%
%TO.N,+5V*%
G36*
X74545000Y-108593872D02*
G01*
X74741317Y-108541269D01*
X74741326Y-108541265D01*
X74947482Y-108445134D01*
X75133820Y-108314657D01*
X75294657Y-108153820D01*
X75425132Y-107967484D01*
X75452341Y-107909134D01*
X75498513Y-107856695D01*
X75565707Y-107837542D01*
X75632588Y-107857757D01*
X75677106Y-107909133D01*
X75704431Y-107967732D01*
X75704432Y-107967734D01*
X75834954Y-108154141D01*
X75995858Y-108315045D01*
X75995861Y-108315047D01*
X76182266Y-108445568D01*
X76388504Y-108541739D01*
X76608308Y-108600635D01*
X76770230Y-108614801D01*
X76834998Y-108620468D01*
X76835000Y-108620468D01*
X76835002Y-108620468D01*
X76891673Y-108615509D01*
X77061692Y-108600635D01*
X77281496Y-108541739D01*
X77487734Y-108445568D01*
X77674139Y-108315047D01*
X77835047Y-108154139D01*
X77965568Y-107967734D01*
X77992618Y-107909724D01*
X78038790Y-107857285D01*
X78105983Y-107838133D01*
X78172865Y-107858348D01*
X78217382Y-107909725D01*
X78244429Y-107967728D01*
X78244432Y-107967734D01*
X78374954Y-108154141D01*
X78535858Y-108315045D01*
X78535861Y-108315047D01*
X78722266Y-108445568D01*
X78928504Y-108541739D01*
X79148308Y-108600635D01*
X79310230Y-108614801D01*
X79374998Y-108620468D01*
X79375000Y-108620468D01*
X79375002Y-108620468D01*
X79431673Y-108615509D01*
X79601692Y-108600635D01*
X79821496Y-108541739D01*
X79988095Y-108464051D01*
X80057173Y-108453560D01*
X80120957Y-108482080D01*
X80159196Y-108540556D01*
X80164500Y-108576434D01*
X80164500Y-112887069D01*
X80144815Y-112954108D01*
X80092011Y-112999863D01*
X80022853Y-113009807D01*
X79959297Y-112980782D01*
X79948350Y-112970041D01*
X79853870Y-112865111D01*
X79700734Y-112753851D01*
X79700729Y-112753848D01*
X79527807Y-112676857D01*
X79527802Y-112676855D01*
X79382001Y-112645865D01*
X79342646Y-112637500D01*
X79153354Y-112637500D01*
X79120897Y-112644398D01*
X78968197Y-112676855D01*
X78968192Y-112676857D01*
X78795270Y-112753848D01*
X78795265Y-112753851D01*
X78642129Y-112865111D01*
X78515466Y-113005785D01*
X78420821Y-113169715D01*
X78420818Y-113169722D01*
X78362327Y-113349740D01*
X78362326Y-113349744D01*
X78342540Y-113538000D01*
X78362326Y-113726256D01*
X78362327Y-113726259D01*
X78420818Y-113906277D01*
X78420821Y-113906284D01*
X78515467Y-114070216D01*
X78627957Y-114195148D01*
X78642129Y-114210888D01*
X78642133Y-114210891D01*
X78698384Y-114251759D01*
X78741050Y-114307088D01*
X78749500Y-114352078D01*
X78749500Y-121340811D01*
X78729815Y-121407850D01*
X78696623Y-121442386D01*
X78535859Y-121554953D01*
X78374954Y-121715858D01*
X78244432Y-121902265D01*
X78244431Y-121902267D01*
X78217382Y-121960275D01*
X78171209Y-122012714D01*
X78104016Y-122031866D01*
X78037135Y-122011650D01*
X77992618Y-121960275D01*
X77992089Y-121959141D01*
X77965568Y-121902266D01*
X77835047Y-121715861D01*
X77835045Y-121715858D01*
X77674140Y-121554953D01*
X77513377Y-121442386D01*
X77469752Y-121387809D01*
X77460500Y-121340811D01*
X77460500Y-115252687D01*
X77480185Y-115185648D01*
X77492350Y-115169715D01*
X77510891Y-115149122D01*
X77567533Y-115086216D01*
X77662179Y-114922284D01*
X77720674Y-114742256D01*
X77740460Y-114554000D01*
X77720674Y-114365744D01*
X77662179Y-114185716D01*
X77567533Y-114021784D01*
X77440871Y-113881112D01*
X77440870Y-113881111D01*
X77287734Y-113769851D01*
X77287729Y-113769848D01*
X77114807Y-113692857D01*
X77114802Y-113692855D01*
X76969001Y-113661865D01*
X76929646Y-113653500D01*
X76740354Y-113653500D01*
X76707897Y-113660398D01*
X76555197Y-113692855D01*
X76555192Y-113692857D01*
X76382270Y-113769848D01*
X76382265Y-113769851D01*
X76229129Y-113881111D01*
X76102466Y-114021785D01*
X76007821Y-114185715D01*
X76007818Y-114185722D01*
X75966951Y-114311500D01*
X75949326Y-114365744D01*
X75929540Y-114554000D01*
X75949326Y-114742256D01*
X75949327Y-114742259D01*
X76007818Y-114922277D01*
X76007821Y-114922284D01*
X76102467Y-115086216D01*
X76145772Y-115134310D01*
X76177650Y-115169715D01*
X76207880Y-115232706D01*
X76209500Y-115252687D01*
X76209500Y-121340811D01*
X76189815Y-121407850D01*
X76156623Y-121442386D01*
X75995859Y-121554953D01*
X75834954Y-121715858D01*
X75704432Y-121902265D01*
X75704431Y-121902267D01*
X75677382Y-121960275D01*
X75631209Y-122012714D01*
X75564016Y-122031866D01*
X75497135Y-122011650D01*
X75452618Y-121960275D01*
X75452089Y-121959141D01*
X75425568Y-121902266D01*
X75295047Y-121715861D01*
X75295045Y-121715858D01*
X75134141Y-121554954D01*
X74947734Y-121424432D01*
X74947732Y-121424431D01*
X74741497Y-121328261D01*
X74741488Y-121328258D01*
X74521697Y-121269366D01*
X74521693Y-121269365D01*
X74521692Y-121269365D01*
X74521691Y-121269364D01*
X74521686Y-121269364D01*
X74295002Y-121249532D01*
X74294998Y-121249532D01*
X74068313Y-121269364D01*
X74068302Y-121269366D01*
X73848511Y-121328258D01*
X73848502Y-121328261D01*
X73642267Y-121424431D01*
X73642265Y-121424432D01*
X73455858Y-121554954D01*
X73294954Y-121715858D01*
X73164432Y-121902265D01*
X73164431Y-121902267D01*
X73137382Y-121960275D01*
X73091209Y-122012714D01*
X73024016Y-122031866D01*
X72957135Y-122011650D01*
X72912618Y-121960275D01*
X72912089Y-121959141D01*
X72885568Y-121902266D01*
X72755047Y-121715861D01*
X72755045Y-121715858D01*
X72594141Y-121554954D01*
X72407734Y-121424432D01*
X72407732Y-121424431D01*
X72201497Y-121328261D01*
X72201488Y-121328258D01*
X71981697Y-121269366D01*
X71981693Y-121269365D01*
X71981692Y-121269365D01*
X71981691Y-121269364D01*
X71981686Y-121269364D01*
X71755002Y-121249532D01*
X71754998Y-121249532D01*
X71528313Y-121269364D01*
X71528302Y-121269366D01*
X71308511Y-121328258D01*
X71308502Y-121328261D01*
X71102267Y-121424431D01*
X71102265Y-121424432D01*
X70915858Y-121554954D01*
X70754954Y-121715858D01*
X70624432Y-121902265D01*
X70624431Y-121902267D01*
X70597382Y-121960275D01*
X70551209Y-122012714D01*
X70484016Y-122031866D01*
X70417135Y-122011650D01*
X70372618Y-121960275D01*
X70372089Y-121959141D01*
X70345568Y-121902266D01*
X70215047Y-121715861D01*
X70215045Y-121715858D01*
X70054141Y-121554954D01*
X69867734Y-121424432D01*
X69867732Y-121424431D01*
X69661497Y-121328261D01*
X69661488Y-121328258D01*
X69441697Y-121269366D01*
X69441693Y-121269365D01*
X69441692Y-121269365D01*
X69441691Y-121269364D01*
X69441686Y-121269364D01*
X69215002Y-121249532D01*
X69214998Y-121249532D01*
X68988313Y-121269364D01*
X68988302Y-121269366D01*
X68768511Y-121328258D01*
X68768504Y-121328260D01*
X68768504Y-121328261D01*
X68620125Y-121397452D01*
X68601905Y-121405948D01*
X68532827Y-121416440D01*
X68469043Y-121387920D01*
X68430804Y-121329444D01*
X68425500Y-121293566D01*
X68425500Y-108576434D01*
X68445185Y-108509395D01*
X68497989Y-108463640D01*
X68567147Y-108453696D01*
X68601904Y-108464051D01*
X68768504Y-108541739D01*
X68988308Y-108600635D01*
X69150230Y-108614801D01*
X69214998Y-108620468D01*
X69215000Y-108620468D01*
X69215002Y-108620468D01*
X69271673Y-108615509D01*
X69441692Y-108600635D01*
X69661496Y-108541739D01*
X69867734Y-108445568D01*
X70054139Y-108315047D01*
X70215047Y-108154139D01*
X70345568Y-107967734D01*
X70372618Y-107909724D01*
X70418790Y-107857285D01*
X70485983Y-107838133D01*
X70552865Y-107858348D01*
X70597382Y-107909725D01*
X70624429Y-107967728D01*
X70624432Y-107967734D01*
X70754954Y-108154141D01*
X70915858Y-108315045D01*
X70915861Y-108315047D01*
X71102266Y-108445568D01*
X71308504Y-108541739D01*
X71528308Y-108600635D01*
X71690230Y-108614801D01*
X71754998Y-108620468D01*
X71755000Y-108620468D01*
X71755002Y-108620468D01*
X71811673Y-108615509D01*
X71981692Y-108600635D01*
X72201496Y-108541739D01*
X72407734Y-108445568D01*
X72594139Y-108315047D01*
X72755047Y-108154139D01*
X72885568Y-107967734D01*
X72912895Y-107909129D01*
X72959064Y-107856695D01*
X73026257Y-107837542D01*
X73093139Y-107857757D01*
X73137657Y-107909133D01*
X73164865Y-107967482D01*
X73295342Y-108153820D01*
X73456179Y-108314657D01*
X73642517Y-108445134D01*
X73848673Y-108541265D01*
X73848682Y-108541269D01*
X74044999Y-108593872D01*
X74045000Y-108593871D01*
X74045000Y-107630686D01*
X74056955Y-107642641D01*
X74169852Y-107700165D01*
X74263519Y-107715000D01*
X74326481Y-107715000D01*
X74420148Y-107700165D01*
X74533045Y-107642641D01*
X74545000Y-107630686D01*
X74545000Y-108593872D01*
G37*
%TD.AperFunction*%
%TA.AperFunction,Conductor*%
G36*
X136807552Y-40914185D02*
G01*
X136853307Y-40966989D01*
X136863251Y-41036147D01*
X136834226Y-41099703D01*
X136796808Y-41128985D01*
X136577206Y-41240877D01*
X136251917Y-41452122D01*
X135950488Y-41696215D01*
X135950480Y-41696222D01*
X135676222Y-41970480D01*
X135676215Y-41970488D01*
X135432122Y-42271917D01*
X135220877Y-42597206D01*
X135044787Y-42942802D01*
X134905788Y-43304905D01*
X134805397Y-43679570D01*
X134805397Y-43679572D01*
X134744722Y-44062660D01*
X134724422Y-44449999D01*
X134724422Y-44450000D01*
X134744722Y-44837339D01*
X134805397Y-45220427D01*
X134805397Y-45220429D01*
X134905788Y-45595094D01*
X135044787Y-45957197D01*
X135220877Y-46302793D01*
X135432122Y-46628082D01*
X135432124Y-46628084D01*
X135676219Y-46929516D01*
X135950484Y-47203781D01*
X136094225Y-47320180D01*
X136251917Y-47447877D01*
X136577206Y-47659122D01*
X136577211Y-47659125D01*
X136922806Y-47835214D01*
X137284913Y-47974214D01*
X137659567Y-48074602D01*
X138042662Y-48135278D01*
X138408576Y-48154455D01*
X138429999Y-48155578D01*
X138430000Y-48155578D01*
X138430001Y-48155578D01*
X138450301Y-48154514D01*
X138817338Y-48135278D01*
X139200433Y-48074602D01*
X139575087Y-47974214D01*
X139937194Y-47835214D01*
X140282789Y-47659125D01*
X140608084Y-47447876D01*
X140909516Y-47203781D01*
X141183781Y-46929516D01*
X141427876Y-46628084D01*
X141553848Y-46434104D01*
X141639124Y-46302791D01*
X141639125Y-46302789D01*
X141751015Y-46083192D01*
X141798989Y-46032395D01*
X141866810Y-46015600D01*
X141932945Y-46038137D01*
X141976397Y-46092852D01*
X141985500Y-46139486D01*
X141985500Y-136740513D01*
X141965815Y-136807552D01*
X141913011Y-136853307D01*
X141843853Y-136863251D01*
X141780297Y-136834226D01*
X141751015Y-136796808D01*
X141639122Y-136577206D01*
X141427877Y-136251917D01*
X141183784Y-135950488D01*
X141183781Y-135950484D01*
X140909516Y-135676219D01*
X140733006Y-135533284D01*
X140608082Y-135432122D01*
X140282793Y-135220877D01*
X139937197Y-135044787D01*
X139575094Y-134905788D01*
X139575087Y-134905786D01*
X139200433Y-134805398D01*
X139200429Y-134805397D01*
X139200428Y-134805397D01*
X138817339Y-134744722D01*
X138430001Y-134724422D01*
X138429999Y-134724422D01*
X138042660Y-134744722D01*
X137659572Y-134805397D01*
X137659570Y-134805397D01*
X137284905Y-134905788D01*
X136922802Y-135044787D01*
X136577206Y-135220877D01*
X136251917Y-135432122D01*
X135950488Y-135676215D01*
X135950480Y-135676222D01*
X135676222Y-135950480D01*
X135676215Y-135950488D01*
X135432122Y-136251917D01*
X135220877Y-136577206D01*
X135044787Y-136922802D01*
X134905788Y-137284905D01*
X134805397Y-137659570D01*
X134805397Y-137659572D01*
X134744722Y-138042660D01*
X134724422Y-138429999D01*
X134724422Y-138430000D01*
X134744722Y-138817339D01*
X134756811Y-138893664D01*
X134805398Y-139200433D01*
X134832452Y-139301402D01*
X134905788Y-139575094D01*
X135044787Y-139937197D01*
X135220877Y-140282793D01*
X135432122Y-140608082D01*
X135432124Y-140608084D01*
X135676219Y-140909516D01*
X135950484Y-141183781D01*
X135950488Y-141183784D01*
X136251917Y-141427877D01*
X136577206Y-141639122D01*
X136577211Y-141639125D01*
X136785589Y-141745298D01*
X136796808Y-141751015D01*
X136847604Y-141798989D01*
X136864399Y-141866810D01*
X136841862Y-141932945D01*
X136787147Y-141976397D01*
X136740513Y-141985500D01*
X46139487Y-141985500D01*
X46072448Y-141965815D01*
X46026693Y-141913011D01*
X46016749Y-141843853D01*
X46045774Y-141780297D01*
X46083192Y-141751015D01*
X46088614Y-141748251D01*
X46302789Y-141639125D01*
X46628084Y-141427876D01*
X46929516Y-141183781D01*
X47203781Y-140909516D01*
X47447876Y-140608084D01*
X47659125Y-140282789D01*
X47835214Y-139937194D01*
X47974214Y-139575087D01*
X48040455Y-139327870D01*
X83104500Y-139327870D01*
X83104501Y-139327876D01*
X83110908Y-139387483D01*
X83161202Y-139522328D01*
X83161206Y-139522335D01*
X83247452Y-139637544D01*
X83247455Y-139637547D01*
X83362664Y-139723793D01*
X83362671Y-139723797D01*
X83497517Y-139774091D01*
X83497516Y-139774091D01*
X83504444Y-139774835D01*
X83557127Y-139780500D01*
X85352872Y-139780499D01*
X85412483Y-139774091D01*
X85547331Y-139723796D01*
X85662546Y-139637546D01*
X85748796Y-139522331D01*
X85797810Y-139390916D01*
X85839681Y-139334984D01*
X85905145Y-139310566D01*
X85973418Y-139325417D01*
X86001673Y-139346569D01*
X86123599Y-139468495D01*
X86220384Y-139536265D01*
X86317165Y-139604032D01*
X86317167Y-139604033D01*
X86317170Y-139604035D01*
X86531337Y-139703903D01*
X86759592Y-139765063D01*
X86936034Y-139780500D01*
X86994999Y-139785659D01*
X86995000Y-139785659D01*
X86995001Y-139785659D01*
X87053966Y-139780500D01*
X87230408Y-139765063D01*
X87458663Y-139703903D01*
X87672830Y-139604035D01*
X87866401Y-139468495D01*
X88033495Y-139301401D01*
X88163425Y-139115842D01*
X88218002Y-139072217D01*
X88287500Y-139065023D01*
X88349855Y-139096546D01*
X88366575Y-139115842D01*
X88496500Y-139301395D01*
X88496505Y-139301401D01*
X88663599Y-139468495D01*
X88760384Y-139536265D01*
X88857165Y-139604032D01*
X88857167Y-139604033D01*
X88857170Y-139604035D01*
X89071337Y-139703903D01*
X89299592Y-139765063D01*
X89476034Y-139780500D01*
X89534999Y-139785659D01*
X89535000Y-139785659D01*
X89535001Y-139785659D01*
X89593966Y-139780500D01*
X89770408Y-139765063D01*
X89998663Y-139703903D01*
X90212830Y-139604035D01*
X90406401Y-139468495D01*
X90573495Y-139301401D01*
X90703425Y-139115842D01*
X90758002Y-139072217D01*
X90827500Y-139065023D01*
X90889855Y-139096546D01*
X90906575Y-139115842D01*
X91036500Y-139301395D01*
X91036505Y-139301401D01*
X91203599Y-139468495D01*
X91300384Y-139536265D01*
X91397165Y-139604032D01*
X91397167Y-139604033D01*
X91397170Y-139604035D01*
X91611337Y-139703903D01*
X91839592Y-139765063D01*
X92016034Y-139780500D01*
X92074999Y-139785659D01*
X92075000Y-139785659D01*
X92075001Y-139785659D01*
X92133966Y-139780500D01*
X92310408Y-139765063D01*
X92538663Y-139703903D01*
X92752830Y-139604035D01*
X92946401Y-139468495D01*
X93113495Y-139301401D01*
X93243425Y-139115842D01*
X93298002Y-139072217D01*
X93367500Y-139065023D01*
X93429855Y-139096546D01*
X93446575Y-139115842D01*
X93576500Y-139301395D01*
X93576505Y-139301401D01*
X93743599Y-139468495D01*
X93840384Y-139536265D01*
X93937165Y-139604032D01*
X93937167Y-139604033D01*
X93937170Y-139604035D01*
X94151337Y-139703903D01*
X94379592Y-139765063D01*
X94556034Y-139780500D01*
X94614999Y-139785659D01*
X94615000Y-139785659D01*
X94615001Y-139785659D01*
X94673966Y-139780500D01*
X94850408Y-139765063D01*
X95078663Y-139703903D01*
X95292830Y-139604035D01*
X95486401Y-139468495D01*
X95653495Y-139301401D01*
X95783425Y-139115842D01*
X95838002Y-139072217D01*
X95907500Y-139065023D01*
X95969855Y-139096546D01*
X95986575Y-139115842D01*
X96116500Y-139301395D01*
X96116505Y-139301401D01*
X96283599Y-139468495D01*
X96380384Y-139536265D01*
X96477165Y-139604032D01*
X96477167Y-139604033D01*
X96477170Y-139604035D01*
X96691337Y-139703903D01*
X96919592Y-139765063D01*
X97096034Y-139780500D01*
X97154999Y-139785659D01*
X97155000Y-139785659D01*
X97155001Y-139785659D01*
X97213966Y-139780500D01*
X97390408Y-139765063D01*
X97618663Y-139703903D01*
X97832830Y-139604035D01*
X98026401Y-139468495D01*
X98193495Y-139301401D01*
X98329035Y-139107830D01*
X98428903Y-138893663D01*
X98490063Y-138665408D01*
X98510659Y-138430000D01*
X98490063Y-138194592D01*
X98428903Y-137966337D01*
X98329035Y-137752171D01*
X98323425Y-137744158D01*
X98193494Y-137558597D01*
X98026402Y-137391506D01*
X98026395Y-137391501D01*
X97832834Y-137255967D01*
X97832830Y-137255965D01*
X97832828Y-137255964D01*
X97618663Y-137156097D01*
X97618659Y-137156096D01*
X97618655Y-137156094D01*
X97390413Y-137094938D01*
X97390403Y-137094936D01*
X97155001Y-137074341D01*
X97154999Y-137074341D01*
X96919596Y-137094936D01*
X96919586Y-137094938D01*
X96691344Y-137156094D01*
X96691335Y-137156098D01*
X96477171Y-137255964D01*
X96477169Y-137255965D01*
X96283597Y-137391505D01*
X96116505Y-137558597D01*
X95986575Y-137744158D01*
X95931998Y-137787783D01*
X95862500Y-137794977D01*
X95800145Y-137763454D01*
X95783425Y-137744158D01*
X95653494Y-137558597D01*
X95486402Y-137391506D01*
X95486395Y-137391501D01*
X95292834Y-137255967D01*
X95292830Y-137255965D01*
X95292828Y-137255964D01*
X95078663Y-137156097D01*
X95078659Y-137156096D01*
X95078655Y-137156094D01*
X94850413Y-137094938D01*
X94850403Y-137094936D01*
X94615001Y-137074341D01*
X94614999Y-137074341D01*
X94379596Y-137094936D01*
X94379586Y-137094938D01*
X94151344Y-137156094D01*
X94151335Y-137156098D01*
X93937171Y-137255964D01*
X93937169Y-137255965D01*
X93743597Y-137391505D01*
X93576505Y-137558597D01*
X93446575Y-137744158D01*
X93391998Y-137787783D01*
X93322500Y-137794977D01*
X93260145Y-137763454D01*
X93243425Y-137744158D01*
X93113494Y-137558597D01*
X92946402Y-137391506D01*
X92946395Y-137391501D01*
X92752834Y-137255967D01*
X92752830Y-137255965D01*
X92752828Y-137255964D01*
X92538663Y-137156097D01*
X92538659Y-137156096D01*
X92538655Y-137156094D01*
X92310413Y-137094938D01*
X92310403Y-137094936D01*
X92075001Y-137074341D01*
X92074999Y-137074341D01*
X91839596Y-137094936D01*
X91839586Y-137094938D01*
X91611344Y-137156094D01*
X91611335Y-137156098D01*
X91397171Y-137255964D01*
X91397169Y-137255965D01*
X91203597Y-137391505D01*
X91036505Y-137558597D01*
X90906575Y-137744158D01*
X90851998Y-137787783D01*
X90782500Y-137794977D01*
X90720145Y-137763454D01*
X90703425Y-137744158D01*
X90573494Y-137558597D01*
X90406402Y-137391506D01*
X90406395Y-137391501D01*
X90212834Y-137255967D01*
X90212830Y-137255965D01*
X90212828Y-137255964D01*
X89998663Y-137156097D01*
X89998659Y-137156096D01*
X89998655Y-137156094D01*
X89770413Y-137094938D01*
X89770403Y-137094936D01*
X89535001Y-137074341D01*
X89534999Y-137074341D01*
X89299596Y-137094936D01*
X89299586Y-137094938D01*
X89071344Y-137156094D01*
X89071335Y-137156098D01*
X88857171Y-137255964D01*
X88857169Y-137255965D01*
X88663597Y-137391505D01*
X88496505Y-137558597D01*
X88366575Y-137744158D01*
X88311998Y-137787783D01*
X88242500Y-137794977D01*
X88180145Y-137763454D01*
X88163425Y-137744158D01*
X88033494Y-137558597D01*
X87866402Y-137391506D01*
X87866395Y-137391501D01*
X87672834Y-137255967D01*
X87672830Y-137255965D01*
X87672828Y-137255964D01*
X87458663Y-137156097D01*
X87458659Y-137156096D01*
X87458655Y-137156094D01*
X87230413Y-137094938D01*
X87230403Y-137094936D01*
X86995001Y-137074341D01*
X86994999Y-137074341D01*
X86759596Y-137094936D01*
X86759586Y-137094938D01*
X86531344Y-137156094D01*
X86531335Y-137156098D01*
X86317171Y-137255964D01*
X86317169Y-137255965D01*
X86123600Y-137391503D01*
X86001673Y-137513430D01*
X85940350Y-137546914D01*
X85870658Y-137541930D01*
X85814725Y-137500058D01*
X85797810Y-137469081D01*
X85748797Y-137337671D01*
X85748793Y-137337664D01*
X85662547Y-137222455D01*
X85662544Y-137222452D01*
X85547335Y-137136206D01*
X85547328Y-137136202D01*
X85412482Y-137085908D01*
X85412483Y-137085908D01*
X85352883Y-137079501D01*
X85352881Y-137079500D01*
X85352873Y-137079500D01*
X85352864Y-137079500D01*
X83557129Y-137079500D01*
X83557123Y-137079501D01*
X83497516Y-137085908D01*
X83362671Y-137136202D01*
X83362664Y-137136206D01*
X83247455Y-137222452D01*
X83247452Y-137222455D01*
X83161206Y-137337664D01*
X83161202Y-137337671D01*
X83110908Y-137472517D01*
X83104501Y-137532116D01*
X83104500Y-137532135D01*
X83104500Y-139327870D01*
X48040455Y-139327870D01*
X48074602Y-139200433D01*
X48135278Y-138817338D01*
X48155578Y-138430000D01*
X48135278Y-138042662D01*
X48074602Y-137659567D01*
X47974214Y-137284913D01*
X47835214Y-136922806D01*
X47659125Y-136577211D01*
X47558469Y-136422214D01*
X47447877Y-136251917D01*
X47203784Y-135950488D01*
X47203781Y-135950484D01*
X46929516Y-135676219D01*
X46753006Y-135533284D01*
X46628082Y-135432122D01*
X46302793Y-135220877D01*
X46193128Y-135165000D01*
X64536540Y-135165000D01*
X64556326Y-135353256D01*
X64556327Y-135353259D01*
X64614818Y-135533277D01*
X64614821Y-135533284D01*
X64709467Y-135697216D01*
X64836129Y-135837888D01*
X64989265Y-135949148D01*
X64989270Y-135949151D01*
X65162192Y-136026142D01*
X65162197Y-136026144D01*
X65347354Y-136065500D01*
X65347355Y-136065500D01*
X65536644Y-136065500D01*
X65536646Y-136065500D01*
X65721803Y-136026144D01*
X65894730Y-135949151D01*
X66047871Y-135837888D01*
X66174533Y-135697216D01*
X66269179Y-135533284D01*
X66327674Y-135353256D01*
X66347460Y-135165000D01*
X66327674Y-134976744D01*
X66269179Y-134796716D01*
X66174533Y-134632784D01*
X66099350Y-134549284D01*
X66069120Y-134486292D01*
X66067500Y-134466312D01*
X66067500Y-125749452D01*
X66087185Y-125682413D01*
X66103819Y-125661771D01*
X66558684Y-125206906D01*
X67058788Y-124706801D01*
X67071042Y-124696986D01*
X67070859Y-124696764D01*
X67076866Y-124691792D01*
X67076877Y-124691786D01*
X67107775Y-124658882D01*
X67124227Y-124641364D01*
X67134671Y-124630918D01*
X67145120Y-124620471D01*
X67149379Y-124614978D01*
X67153152Y-124610561D01*
X67185062Y-124576582D01*
X67194713Y-124559024D01*
X67205396Y-124542761D01*
X67217673Y-124526936D01*
X67236185Y-124484153D01*
X67238738Y-124478941D01*
X67261197Y-124438092D01*
X67266180Y-124418680D01*
X67272481Y-124400280D01*
X67280437Y-124381896D01*
X67287729Y-124335852D01*
X67288906Y-124330171D01*
X67300500Y-124285019D01*
X67300500Y-124264983D01*
X67302027Y-124245582D01*
X67305160Y-124225804D01*
X67300775Y-124179415D01*
X67300500Y-124173577D01*
X67300500Y-123979499D01*
X67320185Y-123912460D01*
X67372989Y-123866705D01*
X67424500Y-123855499D01*
X67522871Y-123855499D01*
X67522872Y-123855499D01*
X67582483Y-123849091D01*
X67717331Y-123798796D01*
X67832546Y-123712546D01*
X67918796Y-123597331D01*
X67969091Y-123462483D01*
X67972862Y-123427401D01*
X67999599Y-123362855D01*
X68056990Y-123323006D01*
X68126816Y-123320511D01*
X68186905Y-123356163D01*
X68197726Y-123369536D01*
X68214956Y-123394143D01*
X68375858Y-123555045D01*
X68536623Y-123667613D01*
X68580248Y-123722189D01*
X68589500Y-123769188D01*
X68589500Y-126790255D01*
X68587775Y-126805872D01*
X68588061Y-126805899D01*
X68587326Y-126813665D01*
X68589500Y-126882814D01*
X68589500Y-126912343D01*
X68589501Y-126912360D01*
X68590368Y-126919231D01*
X68590826Y-126925050D01*
X68592290Y-126971624D01*
X68592291Y-126971627D01*
X68597880Y-126990867D01*
X68601824Y-127009911D01*
X68604336Y-127029791D01*
X68621490Y-127073119D01*
X68623382Y-127078647D01*
X68636381Y-127123388D01*
X68646580Y-127140634D01*
X68655138Y-127158103D01*
X68662514Y-127176732D01*
X68689898Y-127214423D01*
X68693106Y-127219307D01*
X68716827Y-127259416D01*
X68716833Y-127259424D01*
X68730990Y-127273580D01*
X68743628Y-127288376D01*
X68755405Y-127304586D01*
X68755406Y-127304587D01*
X68791309Y-127334288D01*
X68795620Y-127338210D01*
X69770186Y-128312776D01*
X70458181Y-129000771D01*
X70491666Y-129062094D01*
X70494500Y-129088452D01*
X70494500Y-135191312D01*
X70474815Y-135258351D01*
X70462650Y-135274284D01*
X70387466Y-135357784D01*
X70292821Y-135521715D01*
X70292818Y-135521722D01*
X70235798Y-135697214D01*
X70234326Y-135701744D01*
X70214540Y-135890000D01*
X70234326Y-136078256D01*
X70234327Y-136078259D01*
X70292818Y-136258277D01*
X70292821Y-136258284D01*
X70387467Y-136422216D01*
X70514129Y-136562888D01*
X70667265Y-136674148D01*
X70667270Y-136674151D01*
X70840192Y-136751142D01*
X70840197Y-136751144D01*
X71025354Y-136790500D01*
X71025355Y-136790500D01*
X71214644Y-136790500D01*
X71214646Y-136790500D01*
X71399803Y-136751144D01*
X71572730Y-136674151D01*
X71725871Y-136562888D01*
X71852533Y-136422216D01*
X71947179Y-136258284D01*
X72005674Y-136078256D01*
X72025460Y-135890000D01*
X72005674Y-135701744D01*
X71947179Y-135521716D01*
X71852533Y-135357784D01*
X71848456Y-135353256D01*
X71777350Y-135274284D01*
X71747120Y-135211292D01*
X71745500Y-135191312D01*
X71745500Y-128860742D01*
X71747224Y-128845122D01*
X71746939Y-128845096D01*
X71747671Y-128837340D01*
X71747673Y-128837333D01*
X71745500Y-128768185D01*
X71745500Y-128738650D01*
X71744631Y-128731772D01*
X71744172Y-128725943D01*
X71742709Y-128679372D01*
X71737122Y-128660144D01*
X71733174Y-128641084D01*
X71730663Y-128621204D01*
X71713512Y-128577887D01*
X71711619Y-128572358D01*
X71698618Y-128527609D01*
X71698616Y-128527606D01*
X71688423Y-128510371D01*
X71679861Y-128492894D01*
X71672487Y-128474270D01*
X71672486Y-128474268D01*
X71645079Y-128436545D01*
X71641888Y-128431686D01*
X71618172Y-128391583D01*
X71618165Y-128391574D01*
X71604006Y-128377415D01*
X71591368Y-128362619D01*
X71579594Y-128346413D01*
X71543688Y-128316709D01*
X71539376Y-128312786D01*
X69876819Y-126650228D01*
X69843334Y-126588905D01*
X69840500Y-126562547D01*
X69840500Y-123769188D01*
X69860185Y-123702149D01*
X69893377Y-123667613D01*
X69993745Y-123597335D01*
X70054139Y-123555047D01*
X70215047Y-123394139D01*
X70345568Y-123207734D01*
X70372618Y-123149724D01*
X70418790Y-123097285D01*
X70485983Y-123078133D01*
X70552865Y-123098348D01*
X70597382Y-123149725D01*
X70624429Y-123207728D01*
X70624432Y-123207734D01*
X70754954Y-123394141D01*
X70915858Y-123555045D01*
X70915861Y-123555047D01*
X71102266Y-123685568D01*
X71308504Y-123781739D01*
X71528308Y-123840635D01*
X71690230Y-123854801D01*
X71754998Y-123860468D01*
X71755000Y-123860468D01*
X71755002Y-123860468D01*
X71811807Y-123855498D01*
X71981692Y-123840635D01*
X72201496Y-123781739D01*
X72407734Y-123685568D01*
X72594139Y-123555047D01*
X72755047Y-123394139D01*
X72885568Y-123207734D01*
X72912618Y-123149724D01*
X72958790Y-123097285D01*
X73025983Y-123078133D01*
X73092865Y-123098348D01*
X73137382Y-123149725D01*
X73164429Y-123207728D01*
X73164432Y-123207734D01*
X73294954Y-123394141D01*
X73455858Y-123555045D01*
X73455861Y-123555047D01*
X73642266Y-123685568D01*
X73848504Y-123781739D01*
X74068308Y-123840635D01*
X74230230Y-123854801D01*
X74294998Y-123860468D01*
X74295000Y-123860468D01*
X74295002Y-123860468D01*
X74351807Y-123855498D01*
X74521692Y-123840635D01*
X74741496Y-123781739D01*
X74947734Y-123685568D01*
X75134139Y-123555047D01*
X75295047Y-123394139D01*
X75425568Y-123207734D01*
X75452618Y-123149724D01*
X75498790Y-123097285D01*
X75565983Y-123078133D01*
X75632865Y-123098348D01*
X75677382Y-123149725D01*
X75704429Y-123207728D01*
X75704432Y-123207734D01*
X75834954Y-123394141D01*
X75995858Y-123555045D01*
X75995861Y-123555047D01*
X76182266Y-123685568D01*
X76388504Y-123781739D01*
X76608308Y-123840635D01*
X76770230Y-123854801D01*
X76834998Y-123860468D01*
X76835000Y-123860468D01*
X76835002Y-123860468D01*
X76891807Y-123855498D01*
X77061692Y-123840635D01*
X77281496Y-123781739D01*
X77487734Y-123685568D01*
X77674139Y-123555047D01*
X77835047Y-123394139D01*
X77965568Y-123207734D01*
X77992618Y-123149724D01*
X78038790Y-123097285D01*
X78105983Y-123078133D01*
X78172865Y-123098348D01*
X78217382Y-123149725D01*
X78244429Y-123207728D01*
X78244432Y-123207734D01*
X78374954Y-123394141D01*
X78535858Y-123555045D01*
X78535861Y-123555047D01*
X78722266Y-123685568D01*
X78928504Y-123781739D01*
X79148308Y-123840635D01*
X79310230Y-123854801D01*
X79374998Y-123860468D01*
X79375000Y-123860468D01*
X79375002Y-123860468D01*
X79431807Y-123855498D01*
X79601692Y-123840635D01*
X79821496Y-123781739D01*
X80027734Y-123685568D01*
X80214139Y-123555047D01*
X80375047Y-123394139D01*
X80505568Y-123207734D01*
X80532618Y-123149724D01*
X80578790Y-123097285D01*
X80645983Y-123078133D01*
X80712865Y-123098348D01*
X80757382Y-123149725D01*
X80784429Y-123207728D01*
X80784432Y-123207734D01*
X80914954Y-123394141D01*
X81075858Y-123555045D01*
X81075861Y-123555047D01*
X81262266Y-123685568D01*
X81468504Y-123781739D01*
X81688308Y-123840635D01*
X81850230Y-123854801D01*
X81914998Y-123860468D01*
X81915000Y-123860468D01*
X81915002Y-123860468D01*
X81971807Y-123855498D01*
X82141692Y-123840635D01*
X82361496Y-123781739D01*
X82567734Y-123685568D01*
X82754139Y-123555047D01*
X82915047Y-123394139D01*
X83045568Y-123207734D01*
X83072618Y-123149724D01*
X83118790Y-123097285D01*
X83185983Y-123078133D01*
X83252865Y-123098348D01*
X83297382Y-123149725D01*
X83324429Y-123207728D01*
X83324432Y-123207734D01*
X83454954Y-123394141D01*
X83615858Y-123555045D01*
X83615861Y-123555047D01*
X83802266Y-123685568D01*
X84008504Y-123781739D01*
X84228308Y-123840635D01*
X84390230Y-123854801D01*
X84454998Y-123860468D01*
X84455000Y-123860468D01*
X84455002Y-123860468D01*
X84511807Y-123855498D01*
X84681692Y-123840635D01*
X84901496Y-123781739D01*
X85107734Y-123685568D01*
X85294139Y-123555047D01*
X85455047Y-123394139D01*
X85585568Y-123207734D01*
X85612618Y-123149724D01*
X85658790Y-123097285D01*
X85725983Y-123078133D01*
X85792865Y-123098348D01*
X85837382Y-123149725D01*
X85864429Y-123207728D01*
X85864432Y-123207734D01*
X85994954Y-123394141D01*
X86155858Y-123555045D01*
X86155861Y-123555047D01*
X86342266Y-123685568D01*
X86548504Y-123781739D01*
X86768308Y-123840635D01*
X86930230Y-123854801D01*
X86994998Y-123860468D01*
X86995000Y-123860468D01*
X86995002Y-123860468D01*
X87051807Y-123855498D01*
X87221692Y-123840635D01*
X87441496Y-123781739D01*
X87647734Y-123685568D01*
X87834139Y-123555047D01*
X87995047Y-123394139D01*
X88125568Y-123207734D01*
X88152618Y-123149724D01*
X88198790Y-123097285D01*
X88265983Y-123078133D01*
X88332865Y-123098348D01*
X88377382Y-123149725D01*
X88404429Y-123207728D01*
X88404432Y-123207734D01*
X88534954Y-123394141D01*
X88695858Y-123555045D01*
X88695861Y-123555047D01*
X88882266Y-123685568D01*
X89088504Y-123781739D01*
X89308308Y-123840635D01*
X89470230Y-123854801D01*
X89534998Y-123860468D01*
X89535000Y-123860468D01*
X89535002Y-123860468D01*
X89591807Y-123855498D01*
X89761692Y-123840635D01*
X89981496Y-123781739D01*
X90187734Y-123685568D01*
X90374139Y-123555047D01*
X90535047Y-123394139D01*
X90665568Y-123207734D01*
X90692618Y-123149724D01*
X90738790Y-123097285D01*
X90805983Y-123078133D01*
X90872865Y-123098348D01*
X90917382Y-123149725D01*
X90944429Y-123207728D01*
X90944432Y-123207734D01*
X91074954Y-123394141D01*
X91235858Y-123555045D01*
X91235861Y-123555047D01*
X91422266Y-123685568D01*
X91628504Y-123781739D01*
X91848308Y-123840635D01*
X92010230Y-123854801D01*
X92074998Y-123860468D01*
X92075000Y-123860468D01*
X92075002Y-123860468D01*
X92131807Y-123855498D01*
X92301692Y-123840635D01*
X92521496Y-123781739D01*
X92727734Y-123685568D01*
X92914139Y-123555047D01*
X93075047Y-123394139D01*
X93205568Y-123207734D01*
X93232618Y-123149724D01*
X93278790Y-123097285D01*
X93345983Y-123078133D01*
X93412865Y-123098348D01*
X93457382Y-123149725D01*
X93484429Y-123207728D01*
X93484432Y-123207734D01*
X93614954Y-123394141D01*
X93775858Y-123555045D01*
X93775861Y-123555047D01*
X93962266Y-123685568D01*
X94168504Y-123781739D01*
X94388308Y-123840635D01*
X94550230Y-123854801D01*
X94614998Y-123860468D01*
X94615000Y-123860468D01*
X94615002Y-123860468D01*
X94671807Y-123855498D01*
X94841692Y-123840635D01*
X95061496Y-123781739D01*
X95267734Y-123685568D01*
X95454139Y-123555047D01*
X95615047Y-123394139D01*
X95745568Y-123207734D01*
X95841739Y-123001496D01*
X95900635Y-122781692D01*
X95920468Y-122555000D01*
X95909357Y-122428000D01*
X111870540Y-122428000D01*
X111890326Y-122616256D01*
X111890327Y-122616259D01*
X111948818Y-122796277D01*
X111948821Y-122796284D01*
X112043467Y-122960216D01*
X112080629Y-123001488D01*
X112170129Y-123100888D01*
X112323265Y-123212148D01*
X112323270Y-123212151D01*
X112496192Y-123289142D01*
X112496197Y-123289144D01*
X112681354Y-123328500D01*
X112681355Y-123328500D01*
X112870644Y-123328500D01*
X112870646Y-123328500D01*
X113055803Y-123289144D01*
X113228730Y-123212151D01*
X113381871Y-123100888D01*
X113508533Y-122960216D01*
X113603179Y-122796284D01*
X113661674Y-122616256D01*
X113681460Y-122428000D01*
X113661674Y-122239744D01*
X113603179Y-122059716D01*
X113576043Y-122012714D01*
X113545113Y-121959141D01*
X113528500Y-121897141D01*
X113528500Y-118110002D01*
X118747677Y-118110002D01*
X118766929Y-118330062D01*
X118766930Y-118330070D01*
X118824104Y-118543445D01*
X118824105Y-118543447D01*
X118824106Y-118543450D01*
X118841202Y-118580112D01*
X118917466Y-118743662D01*
X118917468Y-118743666D01*
X119044170Y-118924615D01*
X119044175Y-118924621D01*
X119200378Y-119080824D01*
X119200384Y-119080829D01*
X119381333Y-119207531D01*
X119381335Y-119207532D01*
X119381338Y-119207534D01*
X119581550Y-119300894D01*
X119794932Y-119358070D01*
X119952123Y-119371822D01*
X120014998Y-119377323D01*
X120015000Y-119377323D01*
X120015002Y-119377323D01*
X120070017Y-119372509D01*
X120235068Y-119358070D01*
X120448450Y-119300894D01*
X120648662Y-119207534D01*
X120829620Y-119080826D01*
X120985826Y-118924620D01*
X121112534Y-118743662D01*
X121205894Y-118543450D01*
X121263070Y-118330068D01*
X121282323Y-118110002D01*
X128747677Y-118110002D01*
X128766929Y-118330062D01*
X128766930Y-118330070D01*
X128824104Y-118543445D01*
X128824105Y-118543447D01*
X128824106Y-118543450D01*
X128841202Y-118580112D01*
X128917466Y-118743662D01*
X128917468Y-118743666D01*
X129044170Y-118924615D01*
X129044175Y-118924621D01*
X129200378Y-119080824D01*
X129200384Y-119080829D01*
X129381333Y-119207531D01*
X129381335Y-119207532D01*
X129381338Y-119207534D01*
X129581550Y-119300894D01*
X129794932Y-119358070D01*
X129952123Y-119371822D01*
X130014998Y-119377323D01*
X130015000Y-119377323D01*
X130015002Y-119377323D01*
X130070017Y-119372509D01*
X130235068Y-119358070D01*
X130448450Y-119300894D01*
X130648662Y-119207534D01*
X130829620Y-119080826D01*
X130985826Y-118924620D01*
X131112534Y-118743662D01*
X131205894Y-118543450D01*
X131263070Y-118330068D01*
X131282323Y-118110000D01*
X131263070Y-117889932D01*
X131205894Y-117676550D01*
X131112534Y-117476339D01*
X130985826Y-117295380D01*
X130829620Y-117139174D01*
X130829616Y-117139171D01*
X130829615Y-117139170D01*
X130648666Y-117012468D01*
X130648662Y-117012466D01*
X130648660Y-117012465D01*
X130448450Y-116919106D01*
X130448447Y-116919105D01*
X130448445Y-116919104D01*
X130235070Y-116861930D01*
X130235062Y-116861929D01*
X130015002Y-116842677D01*
X130014998Y-116842677D01*
X129794937Y-116861929D01*
X129794929Y-116861930D01*
X129581554Y-116919104D01*
X129581548Y-116919107D01*
X129381340Y-117012465D01*
X129381338Y-117012466D01*
X129200377Y-117139175D01*
X129044175Y-117295377D01*
X128917466Y-117476338D01*
X128917465Y-117476340D01*
X128824107Y-117676548D01*
X128824104Y-117676554D01*
X128766930Y-117889929D01*
X128766929Y-117889937D01*
X128747677Y-118109997D01*
X128747677Y-118110002D01*
X121282323Y-118110002D01*
X121282323Y-118110000D01*
X121263070Y-117889932D01*
X121205894Y-117676550D01*
X121112534Y-117476339D01*
X120985826Y-117295380D01*
X120829620Y-117139174D01*
X120829616Y-117139171D01*
X120829615Y-117139170D01*
X120648666Y-117012468D01*
X120648662Y-117012466D01*
X120648660Y-117012465D01*
X120448450Y-116919106D01*
X120448447Y-116919105D01*
X120448445Y-116919104D01*
X120235070Y-116861930D01*
X120235062Y-116861929D01*
X120015002Y-116842677D01*
X120014998Y-116842677D01*
X119794937Y-116861929D01*
X119794929Y-116861930D01*
X119581554Y-116919104D01*
X119581548Y-116919107D01*
X119381340Y-117012465D01*
X119381338Y-117012466D01*
X119200377Y-117139175D01*
X119044175Y-117295377D01*
X118917466Y-117476338D01*
X118917465Y-117476340D01*
X118824107Y-117676548D01*
X118824104Y-117676554D01*
X118766930Y-117889929D01*
X118766929Y-117889937D01*
X118747677Y-118109997D01*
X118747677Y-118110002D01*
X113528500Y-118110002D01*
X113528500Y-113411000D01*
X116061540Y-113411000D01*
X116081326Y-113599256D01*
X116081327Y-113599259D01*
X116139818Y-113779277D01*
X116139821Y-113779284D01*
X116234467Y-113943216D01*
X116305211Y-114021785D01*
X116361129Y-114083888D01*
X116514265Y-114195148D01*
X116514270Y-114195151D01*
X116687192Y-114272142D01*
X116687197Y-114272144D01*
X116872354Y-114311500D01*
X116872355Y-114311500D01*
X117061644Y-114311500D01*
X117061646Y-114311500D01*
X117246803Y-114272144D01*
X117419730Y-114195151D01*
X117572871Y-114083888D01*
X117699533Y-113943216D01*
X117794179Y-113779284D01*
X117852674Y-113599256D01*
X117872460Y-113411000D01*
X117852674Y-113222744D01*
X117794179Y-113042716D01*
X117699533Y-112878784D01*
X117649922Y-112823686D01*
X117572876Y-112738116D01*
X117572871Y-112738112D01*
X117516613Y-112697237D01*
X117473948Y-112641906D01*
X117465500Y-112596920D01*
X117465500Y-45522452D01*
X117485185Y-45455413D01*
X117501819Y-45434771D01*
X118459772Y-44476819D01*
X118521095Y-44443334D01*
X118547453Y-44440500D01*
X120117200Y-44440500D01*
X120184239Y-44460185D01*
X120218775Y-44493376D01*
X120314174Y-44629620D01*
X120314175Y-44629621D01*
X120470378Y-44785824D01*
X120470384Y-44785829D01*
X120651333Y-44912531D01*
X120651335Y-44912532D01*
X120651338Y-44912534D01*
X120851550Y-45005894D01*
X121064932Y-45063070D01*
X121222123Y-45076822D01*
X121284998Y-45082323D01*
X121285000Y-45082323D01*
X121285002Y-45082323D01*
X121340017Y-45077509D01*
X121505068Y-45063070D01*
X121718450Y-45005894D01*
X121918662Y-44912534D01*
X122099620Y-44785826D01*
X122255826Y-44629620D01*
X122382534Y-44448662D01*
X122442618Y-44319811D01*
X122488790Y-44267371D01*
X122555983Y-44248219D01*
X122622865Y-44268435D01*
X122667382Y-44319811D01*
X122727464Y-44448658D01*
X122727468Y-44448666D01*
X122854170Y-44629615D01*
X122854175Y-44629621D01*
X123010378Y-44785824D01*
X123010384Y-44785829D01*
X123191333Y-44912531D01*
X123191335Y-44912532D01*
X123191338Y-44912534D01*
X123391550Y-45005894D01*
X123604932Y-45063070D01*
X123762123Y-45076822D01*
X123824998Y-45082323D01*
X123825000Y-45082323D01*
X123825002Y-45082323D01*
X123880017Y-45077509D01*
X124045068Y-45063070D01*
X124258450Y-45005894D01*
X124458662Y-44912534D01*
X124639620Y-44785826D01*
X124795826Y-44629620D01*
X124922534Y-44448662D01*
X124982618Y-44319811D01*
X125028790Y-44267371D01*
X125095983Y-44248219D01*
X125162865Y-44268435D01*
X125207382Y-44319811D01*
X125267464Y-44448658D01*
X125267468Y-44448666D01*
X125394170Y-44629615D01*
X125394175Y-44629621D01*
X125550378Y-44785824D01*
X125550384Y-44785829D01*
X125567098Y-44797532D01*
X125667058Y-44867525D01*
X125686623Y-44881224D01*
X125730248Y-44935801D01*
X125739500Y-44982799D01*
X125739500Y-51632546D01*
X125719815Y-51699585D01*
X125703181Y-51720227D01*
X123060208Y-54363199D01*
X123047951Y-54373020D01*
X123048134Y-54373241D01*
X123042123Y-54378213D01*
X122994772Y-54428636D01*
X122973889Y-54449519D01*
X122973877Y-54449532D01*
X122969621Y-54455017D01*
X122965837Y-54459447D01*
X122933937Y-54493418D01*
X122933936Y-54493420D01*
X122924284Y-54510976D01*
X122913610Y-54527226D01*
X122901329Y-54543061D01*
X122901324Y-54543068D01*
X122882815Y-54585838D01*
X122880245Y-54591084D01*
X122857803Y-54631906D01*
X122852822Y-54651307D01*
X122846521Y-54669710D01*
X122838562Y-54688102D01*
X122838561Y-54688105D01*
X122831271Y-54734127D01*
X122830087Y-54739846D01*
X122818501Y-54784972D01*
X122818500Y-54784982D01*
X122818500Y-54805016D01*
X122816973Y-54824415D01*
X122813840Y-54844194D01*
X122813840Y-54844195D01*
X122818225Y-54890583D01*
X122818500Y-54896421D01*
X122818500Y-113855312D01*
X122798815Y-113922351D01*
X122786650Y-113938284D01*
X122711466Y-114021784D01*
X122616821Y-114185715D01*
X122616818Y-114185722D01*
X122575951Y-114311500D01*
X122558326Y-114365744D01*
X122538540Y-114554000D01*
X122558326Y-114742256D01*
X122558327Y-114742259D01*
X122616818Y-114922277D01*
X122616821Y-114922284D01*
X122711467Y-115086216D01*
X122786650Y-115169715D01*
X122838129Y-115226888D01*
X122991265Y-115338148D01*
X122991270Y-115338151D01*
X123164192Y-115415142D01*
X123164197Y-115415144D01*
X123349354Y-115454500D01*
X123349355Y-115454500D01*
X123538644Y-115454500D01*
X123538646Y-115454500D01*
X123723803Y-115415144D01*
X123896730Y-115338151D01*
X124049871Y-115226888D01*
X124176533Y-115086216D01*
X124271179Y-114922284D01*
X124329674Y-114742256D01*
X124349460Y-114554000D01*
X124329674Y-114365744D01*
X124271179Y-114185716D01*
X124176533Y-114021784D01*
X124101350Y-113938284D01*
X124071120Y-113875292D01*
X124069500Y-113855312D01*
X124069500Y-75723870D01*
X125039000Y-75723870D01*
X125039001Y-75723876D01*
X125045408Y-75783483D01*
X125095702Y-75918328D01*
X125095706Y-75918335D01*
X125181952Y-76033544D01*
X125181955Y-76033547D01*
X125297164Y-76119793D01*
X125297171Y-76119797D01*
X125342118Y-76136561D01*
X125432017Y-76170091D01*
X125491627Y-76176500D01*
X125742501Y-76176499D01*
X125809539Y-76196183D01*
X125855294Y-76248987D01*
X125866500Y-76300499D01*
X125866500Y-106235312D01*
X125846815Y-106302351D01*
X125834650Y-106318284D01*
X125759466Y-106401784D01*
X125664821Y-106565715D01*
X125664818Y-106565722D01*
X125614409Y-106720867D01*
X125606326Y-106745744D01*
X125586540Y-106934000D01*
X125606326Y-107122256D01*
X125606327Y-107122259D01*
X125664818Y-107302277D01*
X125664821Y-107302284D01*
X125759467Y-107466216D01*
X125879965Y-107600042D01*
X125886129Y-107606888D01*
X126039265Y-107718148D01*
X126039270Y-107718151D01*
X126212192Y-107795142D01*
X126212197Y-107795144D01*
X126397354Y-107834500D01*
X126397355Y-107834500D01*
X126586644Y-107834500D01*
X126586646Y-107834500D01*
X126771803Y-107795144D01*
X126944730Y-107718151D01*
X127097871Y-107606888D01*
X127224533Y-107466216D01*
X127319179Y-107302284D01*
X127377674Y-107122256D01*
X127397460Y-106934000D01*
X127377674Y-106745744D01*
X127319179Y-106565716D01*
X127224533Y-106401784D01*
X127173726Y-106345357D01*
X127149350Y-106318284D01*
X127119120Y-106255292D01*
X127117500Y-106235312D01*
X127117500Y-76300499D01*
X127137185Y-76233460D01*
X127189989Y-76187705D01*
X127241500Y-76176499D01*
X127492371Y-76176499D01*
X127492372Y-76176499D01*
X127551983Y-76170091D01*
X127686831Y-76119796D01*
X127802046Y-76033546D01*
X127888296Y-75918331D01*
X127899725Y-75887687D01*
X127941594Y-75831755D01*
X128007058Y-75807336D01*
X128075331Y-75822186D01*
X128092069Y-75833167D01*
X128234552Y-75944066D01*
X128234558Y-75944070D01*
X128234561Y-75944072D01*
X128446336Y-76058679D01*
X128486115Y-76072335D01*
X128674083Y-76136865D01*
X128674085Y-76136865D01*
X128674087Y-76136866D01*
X128911601Y-76176500D01*
X128911602Y-76176500D01*
X129152398Y-76176500D01*
X129152399Y-76176500D01*
X129389913Y-76136866D01*
X129617664Y-76058679D01*
X129829439Y-75944072D01*
X130019463Y-75796171D01*
X130182551Y-75619010D01*
X130198190Y-75595071D01*
X130251336Y-75549714D01*
X130320567Y-75540290D01*
X130383904Y-75569791D01*
X130405808Y-75595070D01*
X130421449Y-75619010D01*
X130584537Y-75796171D01*
X130731146Y-75910281D01*
X130768762Y-75939559D01*
X130774561Y-75944072D01*
X130986336Y-76058679D01*
X131026115Y-76072335D01*
X131214083Y-76136865D01*
X131214085Y-76136865D01*
X131214087Y-76136866D01*
X131451601Y-76176500D01*
X131451602Y-76176500D01*
X131692398Y-76176500D01*
X131692399Y-76176500D01*
X131929913Y-76136866D01*
X132157664Y-76058679D01*
X132369439Y-75944072D01*
X132397337Y-75922357D01*
X132462331Y-75896715D01*
X132530871Y-75910281D01*
X132581196Y-75958749D01*
X132597500Y-76020211D01*
X132597500Y-78556546D01*
X132577815Y-78623585D01*
X132561181Y-78644227D01*
X130553208Y-80652199D01*
X130540951Y-80662020D01*
X130541134Y-80662241D01*
X130535123Y-80667213D01*
X130487772Y-80717636D01*
X130466889Y-80738519D01*
X130466877Y-80738532D01*
X130462621Y-80744017D01*
X130458837Y-80748447D01*
X130426937Y-80782418D01*
X130426936Y-80782420D01*
X130417284Y-80799976D01*
X130406610Y-80816226D01*
X130394329Y-80832061D01*
X130394324Y-80832068D01*
X130375815Y-80874838D01*
X130373245Y-80880084D01*
X130350803Y-80920906D01*
X130345822Y-80940307D01*
X130339521Y-80958710D01*
X130331562Y-80977102D01*
X130331561Y-80977105D01*
X130324271Y-81023127D01*
X130323087Y-81028846D01*
X130311501Y-81073972D01*
X130311500Y-81073982D01*
X130311500Y-81094016D01*
X130309973Y-81113415D01*
X130306840Y-81133194D01*
X130306840Y-81133195D01*
X130311225Y-81179583D01*
X130311500Y-81185421D01*
X130311500Y-101663312D01*
X130291815Y-101730351D01*
X130279650Y-101746284D01*
X130204466Y-101829784D01*
X130109821Y-101993715D01*
X130109818Y-101993722D01*
X130051327Y-102173740D01*
X130051326Y-102173744D01*
X130031540Y-102362000D01*
X130051326Y-102550256D01*
X130051327Y-102550259D01*
X130109818Y-102730277D01*
X130109821Y-102730284D01*
X130204467Y-102894216D01*
X130285559Y-102984277D01*
X130331129Y-103034888D01*
X130484265Y-103146148D01*
X130484270Y-103146151D01*
X130657192Y-103223142D01*
X130657197Y-103223144D01*
X130842354Y-103262500D01*
X130842355Y-103262500D01*
X131031644Y-103262500D01*
X131031646Y-103262500D01*
X131216803Y-103223144D01*
X131389730Y-103146151D01*
X131542871Y-103034888D01*
X131669533Y-102894216D01*
X131764179Y-102730284D01*
X131822674Y-102550256D01*
X131842460Y-102362000D01*
X131822674Y-102173744D01*
X131764179Y-101993716D01*
X131669533Y-101829784D01*
X131594350Y-101746284D01*
X131564120Y-101683292D01*
X131562500Y-101663312D01*
X131562500Y-88103172D01*
X133548000Y-88103172D01*
X133557511Y-88144840D01*
X133558677Y-88151700D01*
X133563461Y-88194170D01*
X133564125Y-88196066D01*
X133577584Y-88234530D01*
X133579506Y-88241203D01*
X133589017Y-88282877D01*
X133607563Y-88321387D01*
X133610225Y-88327814D01*
X133624344Y-88368164D01*
X133624346Y-88368167D01*
X133647088Y-88404360D01*
X133650454Y-88410451D01*
X133668997Y-88448956D01*
X133679437Y-88462047D01*
X133695644Y-88482370D01*
X133699672Y-88488046D01*
X133722415Y-88524242D01*
X133859823Y-88661650D01*
X133859829Y-88661655D01*
X135581912Y-90383739D01*
X135615397Y-90445062D01*
X135614006Y-90503511D01*
X135595159Y-90573851D01*
X135595156Y-90573868D01*
X135574935Y-90804999D01*
X135574935Y-90805000D01*
X135595156Y-91036132D01*
X135595158Y-91036142D01*
X135655205Y-91260243D01*
X135655207Y-91260247D01*
X135655208Y-91260251D01*
X135752918Y-91469791D01*
X135753264Y-91470532D01*
X135753266Y-91470536D01*
X135886345Y-91660593D01*
X136050406Y-91824654D01*
X136240463Y-91957733D01*
X136240465Y-91957734D01*
X136240468Y-91957736D01*
X136450749Y-92055792D01*
X136674863Y-92115843D01*
X136848107Y-92131000D01*
X137471893Y-92131000D01*
X137645137Y-92115843D01*
X137869251Y-92055792D01*
X138079532Y-91957736D01*
X138269592Y-91824655D01*
X138433655Y-91660592D01*
X138566736Y-91470533D01*
X138664792Y-91260251D01*
X138724843Y-91036137D01*
X138745065Y-90805000D01*
X138724843Y-90573863D01*
X138664792Y-90349749D01*
X138566736Y-90139468D01*
X138566734Y-90139465D01*
X138566733Y-90139463D01*
X138433654Y-89949406D01*
X138269593Y-89785345D01*
X138079536Y-89652266D01*
X138079532Y-89652264D01*
X138016501Y-89622872D01*
X137869251Y-89554208D01*
X137869247Y-89554207D01*
X137869243Y-89554205D01*
X137645142Y-89494158D01*
X137645132Y-89494156D01*
X137471893Y-89479000D01*
X137042189Y-89479000D01*
X136975150Y-89459315D01*
X136954508Y-89442681D01*
X135220319Y-87708492D01*
X135186834Y-87647169D01*
X135184000Y-87620811D01*
X135184000Y-85725000D01*
X135574935Y-85725000D01*
X135595156Y-85956132D01*
X135595158Y-85956142D01*
X135655205Y-86180243D01*
X135655207Y-86180247D01*
X135655208Y-86180251D01*
X135739026Y-86359999D01*
X135753264Y-86390532D01*
X135753266Y-86390536D01*
X135886345Y-86580593D01*
X136050406Y-86744654D01*
X136240463Y-86877733D01*
X136240465Y-86877734D01*
X136240468Y-86877736D01*
X136450749Y-86975792D01*
X136674863Y-87035843D01*
X136848107Y-87051000D01*
X137471893Y-87051000D01*
X137645137Y-87035843D01*
X137869251Y-86975792D01*
X138079532Y-86877736D01*
X138269592Y-86744655D01*
X138433655Y-86580592D01*
X138566736Y-86390533D01*
X138664792Y-86180251D01*
X138724843Y-85956137D01*
X138745065Y-85725000D01*
X138724843Y-85493863D01*
X138664792Y-85269749D01*
X138566736Y-85059468D01*
X138566734Y-85059465D01*
X138566733Y-85059463D01*
X138433654Y-84869406D01*
X138269593Y-84705345D01*
X138079536Y-84572266D01*
X138079532Y-84572264D01*
X138029340Y-84548859D01*
X137869251Y-84474208D01*
X137869247Y-84474207D01*
X137869243Y-84474205D01*
X137645142Y-84414158D01*
X137645132Y-84414156D01*
X137471893Y-84399000D01*
X136848107Y-84399000D01*
X136674867Y-84414156D01*
X136674857Y-84414158D01*
X136450756Y-84474205D01*
X136450747Y-84474209D01*
X136240467Y-84572264D01*
X136240463Y-84572266D01*
X136050406Y-84705345D01*
X135886349Y-84869403D01*
X135753263Y-85059467D01*
X135655209Y-85269747D01*
X135655205Y-85269756D01*
X135595158Y-85493857D01*
X135595156Y-85493867D01*
X135574935Y-85724999D01*
X135574935Y-85725000D01*
X135184000Y-85725000D01*
X135184000Y-83956188D01*
X135203685Y-83889149D01*
X135220319Y-83868507D01*
X135519978Y-83568848D01*
X135865897Y-83222930D01*
X135898585Y-83190242D01*
X135921332Y-83154038D01*
X135925354Y-83148372D01*
X135941565Y-83128044D01*
X135952003Y-83114956D01*
X135970553Y-83076433D01*
X135973905Y-83070369D01*
X135996656Y-83034163D01*
X136010779Y-82993798D01*
X136013435Y-82987389D01*
X136031982Y-82948878D01*
X136041493Y-82907205D01*
X136043420Y-82900516D01*
X136048289Y-82886600D01*
X136057537Y-82860174D01*
X136062323Y-82817683D01*
X136063482Y-82810861D01*
X136073000Y-82769166D01*
X136073000Y-82584833D01*
X136073000Y-74583257D01*
X136081573Y-74542923D01*
X136080170Y-74542468D01*
X136086447Y-74523147D01*
X136091575Y-74507363D01*
X136121823Y-74458001D01*
X136911239Y-73668586D01*
X136911242Y-73668585D01*
X137041585Y-73538242D01*
X137064331Y-73502040D01*
X137068351Y-73496374D01*
X137095003Y-73462956D01*
X137113556Y-73424427D01*
X137116905Y-73418369D01*
X137139656Y-73382163D01*
X137153779Y-73341798D01*
X137156435Y-73335389D01*
X137159538Y-73328946D01*
X137174982Y-73296878D01*
X137184493Y-73255205D01*
X137186420Y-73248516D01*
X137198101Y-73215134D01*
X137200537Y-73208174D01*
X137205323Y-73165683D01*
X137206482Y-73158861D01*
X137216000Y-73117166D01*
X137216000Y-72932834D01*
X137216000Y-65947257D01*
X137224577Y-65906921D01*
X137223171Y-65906465D01*
X137276989Y-65740829D01*
X137283674Y-65720256D01*
X137303460Y-65532000D01*
X137283674Y-65343744D01*
X137225179Y-65163716D01*
X137130533Y-64999784D01*
X137003871Y-64859112D01*
X137003870Y-64859111D01*
X136850734Y-64747851D01*
X136850729Y-64747848D01*
X136677807Y-64670857D01*
X136677802Y-64670855D01*
X136532001Y-64639865D01*
X136492646Y-64631500D01*
X136303354Y-64631500D01*
X136270897Y-64638398D01*
X136118197Y-64670855D01*
X136118192Y-64670857D01*
X135945270Y-64747848D01*
X135945265Y-64747851D01*
X135792129Y-64859111D01*
X135665466Y-64999785D01*
X135570821Y-65163715D01*
X135570818Y-65163722D01*
X135512327Y-65343740D01*
X135512326Y-65343744D01*
X135492540Y-65532000D01*
X135512326Y-65720256D01*
X135512327Y-65720259D01*
X135572829Y-65906465D01*
X135571422Y-65906921D01*
X135580000Y-65947257D01*
X135580000Y-72634811D01*
X135560315Y-72701850D01*
X135543681Y-72722492D01*
X134962824Y-73303348D01*
X134925580Y-73328946D01*
X134802267Y-73383849D01*
X134649129Y-73495111D01*
X134522466Y-73635785D01*
X134427821Y-73799715D01*
X134427818Y-73799722D01*
X134381636Y-73941857D01*
X134369326Y-73979744D01*
X134349540Y-74168000D01*
X134369326Y-74356256D01*
X134369327Y-74356259D01*
X134429829Y-74542465D01*
X134428422Y-74542921D01*
X134437000Y-74583257D01*
X134437000Y-82286811D01*
X134417315Y-82353850D01*
X134400681Y-82374492D01*
X133722417Y-83052755D01*
X133722414Y-83052759D01*
X133699673Y-83088950D01*
X133695648Y-83094622D01*
X133668999Y-83128040D01*
X133650450Y-83166556D01*
X133647085Y-83172644D01*
X133624345Y-83208834D01*
X133624344Y-83208837D01*
X133619413Y-83222930D01*
X133610226Y-83249183D01*
X133607564Y-83255610D01*
X133589018Y-83294121D01*
X133579506Y-83335793D01*
X133577580Y-83342477D01*
X133563462Y-83382827D01*
X133563461Y-83382830D01*
X133558677Y-83425300D01*
X133557511Y-83432159D01*
X133548000Y-83473827D01*
X133548000Y-88103172D01*
X131562500Y-88103172D01*
X131562500Y-81463452D01*
X131582185Y-81396413D01*
X131598819Y-81375771D01*
X132322391Y-80652199D01*
X133606788Y-79367801D01*
X133619042Y-79357986D01*
X133618859Y-79357764D01*
X133624866Y-79352792D01*
X133624877Y-79352786D01*
X133655775Y-79319882D01*
X133672227Y-79302364D01*
X133682671Y-79291918D01*
X133693120Y-79281471D01*
X133697379Y-79275978D01*
X133701152Y-79271561D01*
X133733062Y-79237582D01*
X133742713Y-79220024D01*
X133753396Y-79203761D01*
X133765673Y-79187936D01*
X133784185Y-79145153D01*
X133786738Y-79139941D01*
X133809197Y-79099092D01*
X133814180Y-79079680D01*
X133820481Y-79061280D01*
X133828437Y-79042896D01*
X133835729Y-78996852D01*
X133836906Y-78991171D01*
X133848500Y-78946019D01*
X133848500Y-78925983D01*
X133850027Y-78906582D01*
X133853160Y-78886804D01*
X133848775Y-78840415D01*
X133848500Y-78834577D01*
X133848500Y-62820742D01*
X133850224Y-62805122D01*
X133849939Y-62805095D01*
X133850673Y-62797333D01*
X133848500Y-62728172D01*
X133848500Y-62698656D01*
X133848500Y-62698650D01*
X133847631Y-62691779D01*
X133847173Y-62685952D01*
X133846373Y-62660493D01*
X133845710Y-62639373D01*
X133840119Y-62620130D01*
X133836173Y-62601078D01*
X133833664Y-62581208D01*
X133816504Y-62537867D01*
X133814624Y-62532379D01*
X133801618Y-62487610D01*
X133791422Y-62470370D01*
X133782861Y-62452894D01*
X133775487Y-62434270D01*
X133775486Y-62434268D01*
X133748079Y-62396545D01*
X133744888Y-62391686D01*
X133721172Y-62351583D01*
X133721165Y-62351574D01*
X133707006Y-62337415D01*
X133694368Y-62322619D01*
X133691820Y-62319112D01*
X133682594Y-62306413D01*
X133646688Y-62276709D01*
X133642376Y-62272786D01*
X130839413Y-59469822D01*
X130805928Y-59408499D01*
X130807319Y-59350048D01*
X130825635Y-59281692D01*
X130845468Y-59055000D01*
X130825635Y-58828308D01*
X130766739Y-58608504D01*
X130670568Y-58402266D01*
X130540047Y-58215861D01*
X130540045Y-58215858D01*
X130379141Y-58054954D01*
X130192734Y-57924432D01*
X130192732Y-57924431D01*
X129986497Y-57828261D01*
X129986488Y-57828258D01*
X129766697Y-57769366D01*
X129766693Y-57769365D01*
X129766692Y-57769365D01*
X129766691Y-57769364D01*
X129766686Y-57769364D01*
X129540002Y-57749532D01*
X129539998Y-57749532D01*
X129313313Y-57769364D01*
X129313302Y-57769366D01*
X129093511Y-57828258D01*
X129093502Y-57828261D01*
X128887267Y-57924431D01*
X128887265Y-57924432D01*
X128700862Y-58054951D01*
X128543726Y-58212087D01*
X128482403Y-58245571D01*
X128412711Y-58240587D01*
X128356778Y-58198715D01*
X128335369Y-58152923D01*
X128334091Y-58147518D01*
X128283797Y-58012671D01*
X128283793Y-58012664D01*
X128197547Y-57897455D01*
X128197544Y-57897452D01*
X128082335Y-57811206D01*
X128082328Y-57811202D01*
X127947482Y-57760908D01*
X127947483Y-57760908D01*
X127887883Y-57754501D01*
X127887881Y-57754500D01*
X127887873Y-57754500D01*
X127887864Y-57754500D01*
X126192129Y-57754500D01*
X126192123Y-57754501D01*
X126132516Y-57760908D01*
X125997671Y-57811202D01*
X125997664Y-57811206D01*
X125882455Y-57897452D01*
X125882452Y-57897455D01*
X125796206Y-58012664D01*
X125796202Y-58012671D01*
X125745908Y-58147517D01*
X125739501Y-58207116D01*
X125739500Y-58207135D01*
X125739500Y-59902870D01*
X125739501Y-59902876D01*
X125745908Y-59962483D01*
X125796202Y-60097328D01*
X125796206Y-60097335D01*
X125882452Y-60212544D01*
X125882455Y-60212547D01*
X125997664Y-60298793D01*
X125997671Y-60298797D01*
X126132517Y-60349091D01*
X126132516Y-60349091D01*
X126139444Y-60349835D01*
X126192127Y-60355500D01*
X127887872Y-60355499D01*
X127947483Y-60349091D01*
X128082331Y-60298796D01*
X128197546Y-60212546D01*
X128283796Y-60097331D01*
X128334091Y-59962483D01*
X128334092Y-59962472D01*
X128335365Y-59957088D01*
X128369933Y-59896369D01*
X128431841Y-59863978D01*
X128501433Y-59870199D01*
X128543725Y-59897912D01*
X128700858Y-60055045D01*
X128700861Y-60055047D01*
X128887266Y-60185568D01*
X129093504Y-60281739D01*
X129313308Y-60340635D01*
X129470780Y-60354412D01*
X129539998Y-60360468D01*
X129540000Y-60360468D01*
X129540002Y-60360468D01*
X129609220Y-60354412D01*
X129766692Y-60340635D01*
X129835048Y-60322319D01*
X129904896Y-60323980D01*
X129954822Y-60354412D01*
X132561181Y-62960771D01*
X132594666Y-63022094D01*
X132597500Y-63048452D01*
X132597500Y-73331788D01*
X132577815Y-73398827D01*
X132525011Y-73444582D01*
X132455853Y-73454526D01*
X132397339Y-73429642D01*
X132369446Y-73407933D01*
X132369441Y-73407929D01*
X132157665Y-73293321D01*
X132157656Y-73293318D01*
X131929916Y-73215134D01*
X131730800Y-73181908D01*
X131692399Y-73175500D01*
X131451601Y-73175500D01*
X131413200Y-73181908D01*
X131214083Y-73215134D01*
X130986343Y-73293318D01*
X130986334Y-73293321D01*
X130774558Y-73407929D01*
X130660933Y-73496368D01*
X130584537Y-73555829D01*
X130421449Y-73732990D01*
X130405808Y-73756931D01*
X130352661Y-73802287D01*
X130283430Y-73811710D01*
X130220094Y-73782207D01*
X130198192Y-73756931D01*
X130182551Y-73732990D01*
X130019463Y-73555829D01*
X129876532Y-73444582D01*
X129829441Y-73407929D01*
X129617665Y-73293321D01*
X129617656Y-73293318D01*
X129389916Y-73215134D01*
X129190800Y-73181908D01*
X129152399Y-73175500D01*
X128911601Y-73175500D01*
X128873200Y-73181908D01*
X128674083Y-73215134D01*
X128446343Y-73293318D01*
X128446334Y-73293321D01*
X128234559Y-73407929D01*
X128092069Y-73518833D01*
X128027075Y-73544475D01*
X127958535Y-73530908D01*
X127908210Y-73482440D01*
X127899725Y-73464311D01*
X127888298Y-73433673D01*
X127888293Y-73433664D01*
X127802047Y-73318455D01*
X127802044Y-73318452D01*
X127686835Y-73232206D01*
X127686828Y-73232202D01*
X127551982Y-73181908D01*
X127551983Y-73181908D01*
X127492383Y-73175501D01*
X127492381Y-73175500D01*
X127492373Y-73175500D01*
X127492364Y-73175500D01*
X125491629Y-73175500D01*
X125491623Y-73175501D01*
X125432016Y-73181908D01*
X125297171Y-73232202D01*
X125297164Y-73232206D01*
X125181955Y-73318452D01*
X125181952Y-73318455D01*
X125095706Y-73433664D01*
X125095702Y-73433671D01*
X125045408Y-73568517D01*
X125039001Y-73628116D01*
X125039000Y-73628135D01*
X125039000Y-75723870D01*
X124069500Y-75723870D01*
X124069500Y-55174452D01*
X124089185Y-55107413D01*
X124105819Y-55086771D01*
X124829391Y-54363199D01*
X126748788Y-52443801D01*
X126761042Y-52433986D01*
X126760859Y-52433764D01*
X126766866Y-52428792D01*
X126766877Y-52428786D01*
X126797775Y-52395882D01*
X126814227Y-52378364D01*
X126824671Y-52367918D01*
X126835120Y-52357471D01*
X126839379Y-52351978D01*
X126843152Y-52347561D01*
X126875062Y-52313582D01*
X126884715Y-52296020D01*
X126895389Y-52279770D01*
X126907673Y-52263936D01*
X126926180Y-52221167D01*
X126928749Y-52215924D01*
X126951196Y-52175093D01*
X126951197Y-52175092D01*
X126956177Y-52155691D01*
X126962478Y-52137288D01*
X126970438Y-52118896D01*
X126977730Y-52072849D01*
X126978911Y-52067152D01*
X126990500Y-52022019D01*
X126990500Y-52001983D01*
X126992027Y-51982582D01*
X126995160Y-51962804D01*
X126990775Y-51916415D01*
X126990500Y-51910577D01*
X126990500Y-44982799D01*
X127010185Y-44915760D01*
X127043377Y-44881224D01*
X127051943Y-44875226D01*
X127179620Y-44785826D01*
X127335826Y-44629620D01*
X127462534Y-44448662D01*
X127522894Y-44319218D01*
X127569066Y-44266779D01*
X127636259Y-44247627D01*
X127703141Y-44267843D01*
X127747658Y-44319219D01*
X127807899Y-44448407D01*
X127807900Y-44448409D01*
X127853258Y-44513187D01*
X128415477Y-43950968D01*
X128438155Y-44028201D01*
X128517131Y-44151090D01*
X128627530Y-44246752D01*
X128760408Y-44307435D01*
X128765400Y-44308152D01*
X128206811Y-44866741D01*
X128271582Y-44912094D01*
X128271592Y-44912100D01*
X128471715Y-45005419D01*
X128471729Y-45005424D01*
X128685013Y-45062573D01*
X128685023Y-45062575D01*
X128904999Y-45081821D01*
X128905001Y-45081821D01*
X129124976Y-45062575D01*
X129124986Y-45062573D01*
X129338270Y-45005424D01*
X129338284Y-45005419D01*
X129538408Y-44912100D01*
X129538420Y-44912093D01*
X129603186Y-44866742D01*
X129603187Y-44866740D01*
X129044600Y-44308152D01*
X129049592Y-44307435D01*
X129182470Y-44246752D01*
X129292869Y-44151090D01*
X129371845Y-44028201D01*
X129394522Y-43950969D01*
X129956740Y-44513187D01*
X129956742Y-44513186D01*
X130002093Y-44448420D01*
X130002100Y-44448408D01*
X130095419Y-44248284D01*
X130095424Y-44248270D01*
X130152573Y-44034986D01*
X130152575Y-44034976D01*
X130171821Y-43815000D01*
X130171821Y-43814999D01*
X130152575Y-43595023D01*
X130152573Y-43595013D01*
X130095424Y-43381729D01*
X130095420Y-43381720D01*
X130002098Y-43181590D01*
X129956740Y-43116811D01*
X129394521Y-43679029D01*
X129371845Y-43601799D01*
X129292869Y-43478910D01*
X129182470Y-43383248D01*
X129049592Y-43322565D01*
X129044599Y-43321847D01*
X129603187Y-42763258D01*
X129538409Y-42717900D01*
X129538407Y-42717899D01*
X129338284Y-42624580D01*
X129338270Y-42624575D01*
X129124986Y-42567426D01*
X129124976Y-42567424D01*
X128905001Y-42548179D01*
X128904999Y-42548179D01*
X128685023Y-42567424D01*
X128685013Y-42567426D01*
X128471729Y-42624575D01*
X128471720Y-42624579D01*
X128271586Y-42717903D01*
X128206812Y-42763257D01*
X128206811Y-42763258D01*
X128765400Y-43321847D01*
X128760408Y-43322565D01*
X128627530Y-43383248D01*
X128517131Y-43478910D01*
X128438155Y-43601799D01*
X128415477Y-43679030D01*
X127853258Y-43116811D01*
X127853257Y-43116812D01*
X127807903Y-43181586D01*
X127747658Y-43310781D01*
X127701485Y-43363220D01*
X127634292Y-43382372D01*
X127567411Y-43362156D01*
X127522894Y-43310781D01*
X127507906Y-43278639D01*
X127462534Y-43181339D01*
X127335826Y-43000380D01*
X127179620Y-42844174D01*
X127179616Y-42844171D01*
X127179615Y-42844170D01*
X126998666Y-42717468D01*
X126998662Y-42717466D01*
X126998660Y-42717465D01*
X126798450Y-42624106D01*
X126798447Y-42624105D01*
X126798445Y-42624104D01*
X126585070Y-42566930D01*
X126585062Y-42566929D01*
X126365002Y-42547677D01*
X126364998Y-42547677D01*
X126144937Y-42566929D01*
X126144929Y-42566930D01*
X125931554Y-42624104D01*
X125931548Y-42624107D01*
X125731340Y-42717465D01*
X125731338Y-42717466D01*
X125550377Y-42844175D01*
X125394175Y-43000377D01*
X125267466Y-43181338D01*
X125267465Y-43181340D01*
X125207382Y-43310189D01*
X125161209Y-43362628D01*
X125094016Y-43381780D01*
X125027135Y-43361564D01*
X124982618Y-43310189D01*
X124941760Y-43222569D01*
X124922534Y-43181339D01*
X124795826Y-43000380D01*
X124639620Y-42844174D01*
X124639616Y-42844171D01*
X124639615Y-42844170D01*
X124458666Y-42717468D01*
X124458662Y-42717466D01*
X124458660Y-42717465D01*
X124258450Y-42624106D01*
X124258447Y-42624105D01*
X124258445Y-42624104D01*
X124045070Y-42566930D01*
X124045062Y-42566929D01*
X123825002Y-42547677D01*
X123824998Y-42547677D01*
X123604937Y-42566929D01*
X123604929Y-42566930D01*
X123391554Y-42624104D01*
X123391548Y-42624107D01*
X123191340Y-42717465D01*
X123191338Y-42717466D01*
X123010377Y-42844175D01*
X122854175Y-43000377D01*
X122727466Y-43181338D01*
X122727465Y-43181340D01*
X122667382Y-43310189D01*
X122621209Y-43362628D01*
X122554016Y-43381780D01*
X122487135Y-43361564D01*
X122442618Y-43310189D01*
X122401760Y-43222569D01*
X122382534Y-43181339D01*
X122255826Y-43000380D01*
X122099620Y-42844174D01*
X122099616Y-42844171D01*
X122099615Y-42844170D01*
X121918666Y-42717468D01*
X121918662Y-42717466D01*
X121918660Y-42717465D01*
X121718450Y-42624106D01*
X121718447Y-42624105D01*
X121718445Y-42624104D01*
X121505070Y-42566930D01*
X121505062Y-42566929D01*
X121285002Y-42547677D01*
X121284998Y-42547677D01*
X121064937Y-42566929D01*
X121064929Y-42566930D01*
X120851554Y-42624104D01*
X120851548Y-42624107D01*
X120651340Y-42717465D01*
X120651338Y-42717466D01*
X120470377Y-42844175D01*
X120314175Y-43000377D01*
X120218776Y-43136623D01*
X120164199Y-43180248D01*
X120117201Y-43189500D01*
X118319737Y-43189500D01*
X118304120Y-43187776D01*
X118304093Y-43188062D01*
X118296331Y-43187327D01*
X118227203Y-43189500D01*
X118197650Y-43189500D01*
X118196929Y-43189590D01*
X118190757Y-43190369D01*
X118184945Y-43190826D01*
X118138378Y-43192290D01*
X118138367Y-43192292D01*
X118119134Y-43197879D01*
X118100094Y-43201822D01*
X118080217Y-43204334D01*
X118080210Y-43204335D01*
X118080208Y-43204336D01*
X118080206Y-43204336D01*
X118080205Y-43204337D01*
X118036868Y-43221494D01*
X118031342Y-43223386D01*
X117986611Y-43236382D01*
X117986608Y-43236383D01*
X117969363Y-43246581D01*
X117951901Y-43255135D01*
X117933272Y-43262511D01*
X117933267Y-43262513D01*
X117895564Y-43289906D01*
X117890682Y-43293112D01*
X117850580Y-43316828D01*
X117836408Y-43331000D01*
X117821623Y-43343628D01*
X117805412Y-43355407D01*
X117775709Y-43391310D01*
X117771777Y-43395631D01*
X116456208Y-44711199D01*
X116443951Y-44721020D01*
X116444134Y-44721241D01*
X116438123Y-44726213D01*
X116390772Y-44776636D01*
X116369889Y-44797519D01*
X116369877Y-44797532D01*
X116365621Y-44803017D01*
X116361837Y-44807447D01*
X116329937Y-44841418D01*
X116329936Y-44841420D01*
X116320284Y-44858976D01*
X116309610Y-44875226D01*
X116297329Y-44891061D01*
X116297324Y-44891068D01*
X116278815Y-44933838D01*
X116276245Y-44939084D01*
X116253803Y-44979906D01*
X116248822Y-44999307D01*
X116242521Y-45017710D01*
X116234562Y-45036102D01*
X116234561Y-45036105D01*
X116227271Y-45082127D01*
X116226087Y-45087846D01*
X116214501Y-45132972D01*
X116214500Y-45132982D01*
X116214500Y-45153016D01*
X116212973Y-45172415D01*
X116209840Y-45192194D01*
X116209840Y-45192195D01*
X116214225Y-45238583D01*
X116214500Y-45244421D01*
X116214500Y-112880141D01*
X116197887Y-112942141D01*
X116139821Y-113042714D01*
X116098556Y-113169715D01*
X116081326Y-113222744D01*
X116061540Y-113411000D01*
X113528500Y-113411000D01*
X113528500Y-75501687D01*
X113548185Y-75434648D01*
X113560350Y-75418715D01*
X113589536Y-75386300D01*
X113635533Y-75335216D01*
X113730179Y-75171284D01*
X113788674Y-74991256D01*
X113808460Y-74803000D01*
X113788674Y-74614744D01*
X113730179Y-74434716D01*
X113635533Y-74270784D01*
X113508871Y-74130112D01*
X113508870Y-74130111D01*
X113355734Y-74018851D01*
X113355729Y-74018848D01*
X113182807Y-73941857D01*
X113182802Y-73941855D01*
X113037001Y-73910865D01*
X112997646Y-73902500D01*
X112808354Y-73902500D01*
X112775897Y-73909398D01*
X112623197Y-73941855D01*
X112623192Y-73941857D01*
X112450270Y-74018848D01*
X112450265Y-74018851D01*
X112297129Y-74130111D01*
X112170466Y-74270785D01*
X112075821Y-74434715D01*
X112075818Y-74434722D01*
X112017327Y-74614740D01*
X112017326Y-74614744D01*
X111997540Y-74803000D01*
X112017326Y-74991256D01*
X112017327Y-74991259D01*
X112075818Y-75171277D01*
X112075821Y-75171284D01*
X112170467Y-75335216D01*
X112213772Y-75383310D01*
X112245650Y-75418715D01*
X112275880Y-75481706D01*
X112277500Y-75501687D01*
X112277500Y-121613920D01*
X112257815Y-121680959D01*
X112226387Y-121714237D01*
X112170128Y-121755112D01*
X112170123Y-121755116D01*
X112043466Y-121895785D01*
X111948821Y-122059715D01*
X111948818Y-122059722D01*
X111890327Y-122239740D01*
X111890326Y-122239744D01*
X111870540Y-122428000D01*
X95909357Y-122428000D01*
X95900635Y-122328308D01*
X95841739Y-122108504D01*
X95745568Y-121902266D01*
X95615047Y-121715861D01*
X95615045Y-121715858D01*
X95454141Y-121554954D01*
X95267734Y-121424432D01*
X95267732Y-121424431D01*
X95061497Y-121328261D01*
X95061488Y-121328258D01*
X94841697Y-121269366D01*
X94841693Y-121269365D01*
X94841692Y-121269365D01*
X94841691Y-121269364D01*
X94841686Y-121269364D01*
X94615002Y-121249532D01*
X94614998Y-121249532D01*
X94388313Y-121269364D01*
X94388302Y-121269366D01*
X94168511Y-121328258D01*
X94168502Y-121328261D01*
X93962267Y-121424431D01*
X93962265Y-121424432D01*
X93775858Y-121554954D01*
X93614954Y-121715858D01*
X93484432Y-121902265D01*
X93484431Y-121902267D01*
X93457382Y-121960275D01*
X93411209Y-122012714D01*
X93344016Y-122031866D01*
X93277135Y-122011650D01*
X93232618Y-121960275D01*
X93232089Y-121959141D01*
X93205568Y-121902266D01*
X93075047Y-121715861D01*
X93075045Y-121715858D01*
X92914141Y-121554954D01*
X92727734Y-121424432D01*
X92727732Y-121424431D01*
X92521497Y-121328261D01*
X92521488Y-121328258D01*
X92301697Y-121269366D01*
X92301693Y-121269365D01*
X92301692Y-121269365D01*
X92301691Y-121269364D01*
X92301686Y-121269364D01*
X92075002Y-121249532D01*
X92074999Y-121249532D01*
X91848313Y-121269364D01*
X91848296Y-121269367D01*
X91779949Y-121287680D01*
X91710099Y-121286016D01*
X91660177Y-121255586D01*
X91611819Y-121207228D01*
X91578334Y-121145905D01*
X91575500Y-121119547D01*
X91575500Y-108689136D01*
X91595185Y-108622097D01*
X91647989Y-108576342D01*
X91717147Y-108566398D01*
X91731582Y-108569358D01*
X91848308Y-108600635D01*
X92010230Y-108614801D01*
X92074998Y-108620468D01*
X92075000Y-108620468D01*
X92075002Y-108620468D01*
X92131673Y-108615509D01*
X92301692Y-108600635D01*
X92521496Y-108541739D01*
X92727734Y-108445568D01*
X92914139Y-108315047D01*
X93075047Y-108154139D01*
X93205568Y-107967734D01*
X93232618Y-107909724D01*
X93278790Y-107857285D01*
X93345983Y-107838133D01*
X93412865Y-107858348D01*
X93457382Y-107909725D01*
X93484429Y-107967728D01*
X93484432Y-107967734D01*
X93614954Y-108154141D01*
X93775858Y-108315045D01*
X93775861Y-108315047D01*
X93962266Y-108445568D01*
X94168504Y-108541739D01*
X94388308Y-108600635D01*
X94550230Y-108614801D01*
X94614998Y-108620468D01*
X94615000Y-108620468D01*
X94615002Y-108620468D01*
X94671673Y-108615509D01*
X94841692Y-108600635D01*
X95061496Y-108541739D01*
X95267734Y-108445568D01*
X95454139Y-108315047D01*
X95615047Y-108154139D01*
X95745568Y-107967734D01*
X95841739Y-107761496D01*
X95900635Y-107541692D01*
X95920468Y-107315000D01*
X95919355Y-107302284D01*
X95900635Y-107088313D01*
X95900635Y-107088308D01*
X95841739Y-106868504D01*
X95745568Y-106662266D01*
X95615047Y-106475861D01*
X95615045Y-106475858D01*
X95454141Y-106314954D01*
X95267734Y-106184432D01*
X95267732Y-106184431D01*
X95061497Y-106088261D01*
X95061488Y-106088258D01*
X94841697Y-106029366D01*
X94841693Y-106029365D01*
X94841692Y-106029365D01*
X94841691Y-106029364D01*
X94841686Y-106029364D01*
X94615002Y-106009532D01*
X94614998Y-106009532D01*
X94388313Y-106029364D01*
X94388302Y-106029366D01*
X94168511Y-106088258D01*
X94168502Y-106088261D01*
X93962267Y-106184431D01*
X93962265Y-106184432D01*
X93775858Y-106314954D01*
X93614954Y-106475858D01*
X93484432Y-106662265D01*
X93484431Y-106662267D01*
X93457382Y-106720275D01*
X93411209Y-106772714D01*
X93344016Y-106791866D01*
X93277135Y-106771650D01*
X93232618Y-106720275D01*
X93205686Y-106662520D01*
X93205568Y-106662266D01*
X93075047Y-106475861D01*
X93075045Y-106475858D01*
X92914141Y-106314954D01*
X92727734Y-106184432D01*
X92727732Y-106184431D01*
X92521497Y-106088261D01*
X92521488Y-106088258D01*
X92301697Y-106029366D01*
X92301693Y-106029365D01*
X92301692Y-106029365D01*
X92301691Y-106029364D01*
X92301686Y-106029364D01*
X92075002Y-106009532D01*
X92074998Y-106009532D01*
X91848313Y-106029364D01*
X91848302Y-106029366D01*
X91731593Y-106060638D01*
X91661743Y-106058975D01*
X91603881Y-106019812D01*
X91576377Y-105955583D01*
X91575500Y-105940863D01*
X91575500Y-88847401D01*
X97955746Y-88847401D01*
X97965745Y-89057327D01*
X98015296Y-89261578D01*
X98015298Y-89261582D01*
X98102598Y-89452743D01*
X98102601Y-89452748D01*
X98102602Y-89452750D01*
X98102604Y-89452753D01*
X98198232Y-89587044D01*
X98224515Y-89623953D01*
X98224520Y-89623959D01*
X98376620Y-89768985D01*
X98491892Y-89843066D01*
X98553428Y-89882613D01*
X98748543Y-89960725D01*
X98790186Y-89968751D01*
X98954914Y-90000500D01*
X98954915Y-90000500D01*
X99112419Y-90000500D01*
X99112425Y-90000500D01*
X99269218Y-89985528D01*
X99470875Y-89926316D01*
X99523681Y-89899092D01*
X99592286Y-89885869D01*
X99657151Y-89911837D01*
X99697680Y-89968751D01*
X99704500Y-90009308D01*
X99704500Y-118722141D01*
X99687887Y-118784141D01*
X99629821Y-118884714D01*
X99571327Y-119064740D01*
X99571326Y-119064744D01*
X99551540Y-119253000D01*
X99571326Y-119441256D01*
X99571327Y-119441259D01*
X99629818Y-119621277D01*
X99629821Y-119621284D01*
X99724467Y-119785216D01*
X99851129Y-119925888D01*
X100004265Y-120037148D01*
X100004270Y-120037151D01*
X100177192Y-120114142D01*
X100177197Y-120114144D01*
X100362354Y-120153500D01*
X100362355Y-120153500D01*
X100551644Y-120153500D01*
X100551646Y-120153500D01*
X100736803Y-120114144D01*
X100909730Y-120037151D01*
X101062871Y-119925888D01*
X101189533Y-119785216D01*
X101284179Y-119621284D01*
X101342674Y-119441256D01*
X101362460Y-119253000D01*
X101342674Y-119064744D01*
X101284179Y-118884716D01*
X101189533Y-118720784D01*
X101139922Y-118665686D01*
X101062876Y-118580116D01*
X101062871Y-118580112D01*
X101006613Y-118539237D01*
X100963948Y-118483906D01*
X100955500Y-118438920D01*
X100955500Y-88975373D01*
X101885723Y-88975373D01*
X101915881Y-89275160D01*
X101915882Y-89275162D01*
X101985728Y-89568252D01*
X101985733Y-89568266D01*
X102094020Y-89849427D01*
X102094024Y-89849436D01*
X102238825Y-90113665D01*
X102238829Y-90113671D01*
X102366735Y-90287266D01*
X102417554Y-90356238D01*
X102417561Y-90356245D01*
X102627019Y-90572823D01*
X102863478Y-90759553D01*
X102863480Y-90759554D01*
X102863485Y-90759558D01*
X103122730Y-90913109D01*
X103400128Y-91030736D01*
X103690729Y-91110340D01*
X103989347Y-91150500D01*
X103989351Y-91150500D01*
X104215252Y-91150500D01*
X104379164Y-91139526D01*
X104440634Y-91135412D01*
X104735903Y-91075396D01*
X105020537Y-90976560D01*
X105289459Y-90840668D01*
X105537869Y-90670144D01*
X105761333Y-90468032D01*
X105955865Y-90237939D01*
X106117993Y-89983970D01*
X106244823Y-89710658D01*
X106334093Y-89422879D01*
X106384209Y-89125770D01*
X106393516Y-88847401D01*
X108115746Y-88847401D01*
X108125745Y-89057327D01*
X108175296Y-89261578D01*
X108175298Y-89261582D01*
X108262598Y-89452743D01*
X108262601Y-89452748D01*
X108262602Y-89452750D01*
X108262604Y-89452753D01*
X108358232Y-89587044D01*
X108384515Y-89623953D01*
X108384520Y-89623959D01*
X108536620Y-89768985D01*
X108651892Y-89843066D01*
X108713428Y-89882613D01*
X108908543Y-89960725D01*
X108950186Y-89968751D01*
X109114914Y-90000500D01*
X109114915Y-90000500D01*
X109272419Y-90000500D01*
X109272425Y-90000500D01*
X109429218Y-89985528D01*
X109630875Y-89926316D01*
X109817682Y-89830011D01*
X109982886Y-89700092D01*
X110120519Y-89541256D01*
X110133943Y-89518006D01*
X110225601Y-89359249D01*
X110225600Y-89359249D01*
X110225604Y-89359244D01*
X110294344Y-89160633D01*
X110324254Y-88952602D01*
X110314254Y-88742670D01*
X110264704Y-88538424D01*
X110258500Y-88524839D01*
X110177401Y-88347256D01*
X110177398Y-88347251D01*
X110177397Y-88347250D01*
X110177396Y-88347247D01*
X110055486Y-88176048D01*
X110055484Y-88176046D01*
X110055479Y-88176040D01*
X109903379Y-88031014D01*
X109726574Y-87917388D01*
X109531455Y-87839274D01*
X109325086Y-87799500D01*
X109325085Y-87799500D01*
X109167575Y-87799500D01*
X109010782Y-87814472D01*
X109010778Y-87814473D01*
X108809127Y-87873683D01*
X108622313Y-87969991D01*
X108457116Y-88099905D01*
X108457112Y-88099909D01*
X108319478Y-88258746D01*
X108214398Y-88440750D01*
X108145656Y-88639365D01*
X108145656Y-88639367D01*
X108118967Y-88825000D01*
X108115746Y-88847401D01*
X106393516Y-88847401D01*
X106394277Y-88824631D01*
X106364118Y-88524838D01*
X106294269Y-88231739D01*
X106185977Y-87950566D01*
X106041175Y-87686335D01*
X106037730Y-87681660D01*
X105950269Y-87562956D01*
X105862446Y-87443762D01*
X105652980Y-87227176D01*
X105609421Y-87192778D01*
X105416521Y-87040446D01*
X105416517Y-87040443D01*
X105416515Y-87040442D01*
X105157270Y-86886891D01*
X104879872Y-86769264D01*
X104879863Y-86769261D01*
X104589272Y-86689660D01*
X104514616Y-86679620D01*
X104290653Y-86649500D01*
X104064756Y-86649500D01*
X104064748Y-86649500D01*
X103839368Y-86664587D01*
X103839359Y-86664589D01*
X103544094Y-86724604D01*
X103259464Y-86823439D01*
X103259459Y-86823441D01*
X102990546Y-86959328D01*
X102742125Y-87129860D01*
X102518665Y-87331969D01*
X102324132Y-87562064D01*
X102162006Y-87816030D01*
X102162005Y-87816032D01*
X102062244Y-88031014D01*
X102035177Y-88089342D01*
X102031899Y-88099909D01*
X101945907Y-88377118D01*
X101897913Y-88661650D01*
X101895791Y-88674230D01*
X101890002Y-88847398D01*
X101885723Y-88975373D01*
X100955500Y-88975373D01*
X100955500Y-87916132D01*
X100975185Y-87849093D01*
X101027989Y-87803338D01*
X101032027Y-87801579D01*
X101058859Y-87790466D01*
X101273659Y-87658836D01*
X101465224Y-87495224D01*
X101628836Y-87303659D01*
X101760466Y-87088859D01*
X101856873Y-86856111D01*
X101915683Y-86611148D01*
X101935449Y-86360000D01*
X101915683Y-86108852D01*
X101856873Y-85863889D01*
X101799343Y-85724999D01*
X101760466Y-85631140D01*
X101628839Y-85416346D01*
X101628838Y-85416343D01*
X101575793Y-85354236D01*
X101465224Y-85224776D01*
X101338571Y-85116604D01*
X101273656Y-85061161D01*
X101273653Y-85061160D01*
X101058859Y-84929533D01*
X100826110Y-84833126D01*
X100581151Y-84774317D01*
X100330000Y-84754551D01*
X100078848Y-84774317D01*
X99833889Y-84833126D01*
X99601140Y-84929533D01*
X99386346Y-85061160D01*
X99386343Y-85061161D01*
X99194776Y-85224776D01*
X99031161Y-85416343D01*
X99031160Y-85416346D01*
X98899533Y-85631140D01*
X98803126Y-85863889D01*
X98744317Y-86108848D01*
X98724551Y-86360000D01*
X98744317Y-86611151D01*
X98803126Y-86856110D01*
X98899533Y-87088859D01*
X99031160Y-87303653D01*
X99031161Y-87303656D01*
X99055944Y-87332673D01*
X99194776Y-87495224D01*
X99306526Y-87590668D01*
X99344719Y-87649174D01*
X99345218Y-87719041D01*
X99307864Y-87778088D01*
X99244517Y-87807566D01*
X99202527Y-87806716D01*
X99165086Y-87799500D01*
X99165085Y-87799500D01*
X99007575Y-87799500D01*
X98850782Y-87814472D01*
X98850778Y-87814473D01*
X98649127Y-87873683D01*
X98462313Y-87969991D01*
X98297116Y-88099905D01*
X98297112Y-88099909D01*
X98159478Y-88258746D01*
X98054398Y-88440750D01*
X97985656Y-88639365D01*
X97985656Y-88639367D01*
X97958967Y-88825000D01*
X97955746Y-88847401D01*
X91575500Y-88847401D01*
X91575500Y-83820000D01*
X105074551Y-83820000D01*
X105094317Y-84071151D01*
X105153126Y-84316110D01*
X105249533Y-84548859D01*
X105381160Y-84763653D01*
X105381161Y-84763656D01*
X105435102Y-84826812D01*
X105544776Y-84955224D01*
X105654759Y-85049158D01*
X105736343Y-85118838D01*
X105736346Y-85118839D01*
X105951140Y-85250466D01*
X105997694Y-85269749D01*
X106183889Y-85346873D01*
X106428852Y-85405683D01*
X106680000Y-85425449D01*
X106931148Y-85405683D01*
X107176111Y-85346873D01*
X107408859Y-85250466D01*
X107623659Y-85118836D01*
X107815224Y-84955224D01*
X107978836Y-84763659D01*
X108110466Y-84548859D01*
X108206873Y-84316111D01*
X108265683Y-84071148D01*
X108285449Y-83820000D01*
X108265683Y-83568852D01*
X108206873Y-83323889D01*
X108141704Y-83166556D01*
X108110466Y-83091140D01*
X107978839Y-82876346D01*
X107978838Y-82876343D01*
X107925793Y-82814236D01*
X107815224Y-82684776D01*
X107688571Y-82576604D01*
X107623656Y-82521161D01*
X107623653Y-82521160D01*
X107408859Y-82389533D01*
X107176110Y-82293126D01*
X106931151Y-82234317D01*
X106680000Y-82214551D01*
X106428848Y-82234317D01*
X106183889Y-82293126D01*
X105951140Y-82389533D01*
X105736346Y-82521160D01*
X105736343Y-82521161D01*
X105544776Y-82684776D01*
X105381161Y-82876343D01*
X105381160Y-82876346D01*
X105249533Y-83091140D01*
X105153126Y-83323889D01*
X105094317Y-83568848D01*
X105074551Y-83820000D01*
X91575500Y-83820000D01*
X91575500Y-75879373D01*
X91575941Y-75877870D01*
X101469500Y-75877870D01*
X101469501Y-75877876D01*
X101475908Y-75937483D01*
X101526202Y-76072328D01*
X101526206Y-76072335D01*
X101612452Y-76187544D01*
X101612455Y-76187547D01*
X101727664Y-76273793D01*
X101727671Y-76273797D01*
X101862517Y-76324091D01*
X101862516Y-76324091D01*
X101869444Y-76324835D01*
X101922127Y-76330500D01*
X103817872Y-76330499D01*
X103877483Y-76324091D01*
X104012331Y-76273796D01*
X104127546Y-76187546D01*
X104213796Y-76072331D01*
X104218888Y-76058678D01*
X104242455Y-75995493D01*
X104284326Y-75939559D01*
X104349790Y-75915141D01*
X104418063Y-75929992D01*
X104449866Y-75954843D01*
X104457302Y-75962920D01*
X104458215Y-75963912D01*
X104458222Y-75963918D01*
X104641365Y-76106464D01*
X104641371Y-76106468D01*
X104641374Y-76106470D01*
X104845497Y-76216936D01*
X104959487Y-76256068D01*
X105065015Y-76292297D01*
X105065017Y-76292297D01*
X105065019Y-76292298D01*
X105293951Y-76330500D01*
X105293952Y-76330500D01*
X105526048Y-76330500D01*
X105526049Y-76330500D01*
X105754981Y-76292298D01*
X105974503Y-76216936D01*
X106178626Y-76106470D01*
X106361784Y-75963913D01*
X106518979Y-75793153D01*
X106645924Y-75598849D01*
X106739157Y-75386300D01*
X106796134Y-75161305D01*
X106799701Y-75118256D01*
X106815300Y-74930006D01*
X106815300Y-74929993D01*
X106796135Y-74698702D01*
X106796133Y-74698691D01*
X106739157Y-74473699D01*
X106645924Y-74261151D01*
X106518983Y-74066852D01*
X106518980Y-74066849D01*
X106518979Y-74066847D01*
X106361784Y-73896087D01*
X106361779Y-73896083D01*
X106361777Y-73896081D01*
X106178634Y-73753535D01*
X106178628Y-73753531D01*
X105974504Y-73643064D01*
X105974495Y-73643061D01*
X105754984Y-73567702D01*
X105564450Y-73535908D01*
X105526049Y-73529500D01*
X105293951Y-73529500D01*
X105255550Y-73535908D01*
X105065015Y-73567702D01*
X104845504Y-73643061D01*
X104845495Y-73643064D01*
X104641371Y-73753531D01*
X104641365Y-73753535D01*
X104458222Y-73896081D01*
X104458218Y-73896085D01*
X104458216Y-73896086D01*
X104458216Y-73896087D01*
X104452313Y-73902500D01*
X104449866Y-73905158D01*
X104389979Y-73941148D01*
X104320141Y-73939047D01*
X104262525Y-73899522D01*
X104242455Y-73864507D01*
X104213797Y-73787671D01*
X104213793Y-73787664D01*
X104127547Y-73672455D01*
X104127544Y-73672452D01*
X104012335Y-73586206D01*
X104012328Y-73586202D01*
X103877482Y-73535908D01*
X103877483Y-73535908D01*
X103817883Y-73529501D01*
X103817881Y-73529500D01*
X103817873Y-73529500D01*
X103817864Y-73529500D01*
X101922129Y-73529500D01*
X101922123Y-73529501D01*
X101862516Y-73535908D01*
X101727671Y-73586202D01*
X101727664Y-73586206D01*
X101612455Y-73672452D01*
X101612452Y-73672455D01*
X101526206Y-73787664D01*
X101526202Y-73787671D01*
X101475908Y-73922517D01*
X101469501Y-73982116D01*
X101469500Y-73982135D01*
X101469500Y-75877870D01*
X91575941Y-75877870D01*
X91595185Y-75812334D01*
X91647989Y-75766579D01*
X91648872Y-75766179D01*
X91765730Y-75714151D01*
X91918871Y-75602888D01*
X92045533Y-75462216D01*
X92140179Y-75298284D01*
X92198674Y-75118256D01*
X92218460Y-74930000D01*
X92198674Y-74741744D01*
X92140179Y-74561716D01*
X92045533Y-74397784D01*
X91918871Y-74257112D01*
X91918870Y-74257111D01*
X91765734Y-74145851D01*
X91765729Y-74145848D01*
X91592807Y-74068857D01*
X91592802Y-74068855D01*
X91447001Y-74037865D01*
X91407646Y-74029500D01*
X91218354Y-74029500D01*
X91185897Y-74036398D01*
X91033197Y-74068855D01*
X91033192Y-74068857D01*
X90860270Y-74145848D01*
X90860265Y-74145851D01*
X90707129Y-74257111D01*
X90580466Y-74397785D01*
X90485821Y-74561715D01*
X90485818Y-74561722D01*
X90441311Y-74698702D01*
X90427326Y-74741744D01*
X90408849Y-74917544D01*
X90407540Y-74930002D01*
X90407655Y-74931096D01*
X90407540Y-74931847D01*
X90407540Y-74936499D01*
X90406828Y-74936499D01*
X90398133Y-74993306D01*
X90388815Y-75014838D01*
X90386245Y-75020083D01*
X90363803Y-75060907D01*
X90358822Y-75080307D01*
X90352521Y-75098710D01*
X90344562Y-75117102D01*
X90344561Y-75117105D01*
X90337271Y-75163127D01*
X90336087Y-75168846D01*
X90324501Y-75213972D01*
X90324500Y-75213982D01*
X90324500Y-75234016D01*
X90322973Y-75253415D01*
X90319840Y-75273194D01*
X90319840Y-75273195D01*
X90324225Y-75319583D01*
X90324500Y-75325421D01*
X90324500Y-106053566D01*
X90304815Y-106120605D01*
X90252011Y-106166360D01*
X90182853Y-106176304D01*
X90148095Y-106165948D01*
X90050857Y-106120605D01*
X89981496Y-106088261D01*
X89981492Y-106088260D01*
X89981488Y-106088258D01*
X89761697Y-106029366D01*
X89761693Y-106029365D01*
X89761692Y-106029365D01*
X89761691Y-106029364D01*
X89761686Y-106029364D01*
X89535002Y-106009532D01*
X89534998Y-106009532D01*
X89308313Y-106029364D01*
X89308302Y-106029366D01*
X89088511Y-106088258D01*
X89088502Y-106088261D01*
X88882267Y-106184431D01*
X88882265Y-106184432D01*
X88695858Y-106314954D01*
X88534954Y-106475858D01*
X88404432Y-106662265D01*
X88404431Y-106662267D01*
X88377382Y-106720275D01*
X88331209Y-106772714D01*
X88264016Y-106791866D01*
X88197135Y-106771650D01*
X88152618Y-106720275D01*
X88125686Y-106662520D01*
X88125568Y-106662266D01*
X87995047Y-106475861D01*
X87995045Y-106475858D01*
X87834141Y-106314954D01*
X87647734Y-106184432D01*
X87647732Y-106184431D01*
X87441497Y-106088261D01*
X87441488Y-106088258D01*
X87221697Y-106029366D01*
X87221693Y-106029365D01*
X87221692Y-106029365D01*
X87221691Y-106029364D01*
X87221686Y-106029364D01*
X86995002Y-106009532D01*
X86994998Y-106009532D01*
X86768313Y-106029364D01*
X86768302Y-106029366D01*
X86548511Y-106088258D01*
X86548502Y-106088261D01*
X86342267Y-106184431D01*
X86342265Y-106184432D01*
X86155858Y-106314954D01*
X85994954Y-106475858D01*
X85864432Y-106662265D01*
X85864431Y-106662267D01*
X85837382Y-106720275D01*
X85791209Y-106772714D01*
X85724016Y-106791866D01*
X85657135Y-106771650D01*
X85612618Y-106720275D01*
X85585686Y-106662520D01*
X85585568Y-106662266D01*
X85455047Y-106475861D01*
X85455045Y-106475858D01*
X85294140Y-106314953D01*
X85133377Y-106202386D01*
X85089752Y-106147809D01*
X85080500Y-106100811D01*
X85080500Y-103146857D01*
X85097113Y-103084857D01*
X85155179Y-102984284D01*
X85213674Y-102804256D01*
X85233460Y-102616000D01*
X85213674Y-102427744D01*
X85155179Y-102247716D01*
X85060533Y-102083784D01*
X84933871Y-101943112D01*
X84933870Y-101943111D01*
X84780734Y-101831851D01*
X84780729Y-101831848D01*
X84607807Y-101754857D01*
X84607802Y-101754855D01*
X84462001Y-101723865D01*
X84422646Y-101715500D01*
X84233354Y-101715500D01*
X84200897Y-101722398D01*
X84048197Y-101754855D01*
X84048192Y-101754857D01*
X83875270Y-101831848D01*
X83875265Y-101831851D01*
X83722129Y-101943111D01*
X83595466Y-102083785D01*
X83500821Y-102247715D01*
X83500818Y-102247722D01*
X83442327Y-102427740D01*
X83442326Y-102427744D01*
X83422540Y-102616000D01*
X83442326Y-102804256D01*
X83442327Y-102804259D01*
X83500818Y-102984277D01*
X83500821Y-102984284D01*
X83595467Y-103148216D01*
X83662931Y-103223142D01*
X83722129Y-103288888D01*
X83722133Y-103288891D01*
X83778384Y-103329759D01*
X83821050Y-103385088D01*
X83829500Y-103430078D01*
X83829500Y-106100811D01*
X83809815Y-106167850D01*
X83776623Y-106202386D01*
X83615859Y-106314953D01*
X83454954Y-106475858D01*
X83324432Y-106662265D01*
X83324431Y-106662267D01*
X83297382Y-106720275D01*
X83251209Y-106772714D01*
X83184016Y-106791866D01*
X83117135Y-106771650D01*
X83072618Y-106720275D01*
X83045686Y-106662520D01*
X83045568Y-106662266D01*
X82915047Y-106475861D01*
X82915045Y-106475858D01*
X82754141Y-106314954D01*
X82567734Y-106184432D01*
X82567732Y-106184431D01*
X82361497Y-106088261D01*
X82361488Y-106088258D01*
X82141697Y-106029366D01*
X82141693Y-106029365D01*
X82141692Y-106029365D01*
X82141691Y-106029364D01*
X82141686Y-106029364D01*
X81915002Y-106009532D01*
X81914998Y-106009532D01*
X81688313Y-106029364D01*
X81688302Y-106029366D01*
X81468511Y-106088258D01*
X81468502Y-106088261D01*
X81262267Y-106184431D01*
X81262265Y-106184432D01*
X81075852Y-106314958D01*
X81073002Y-106317350D01*
X81071496Y-106318008D01*
X81071426Y-106318058D01*
X81071416Y-106318043D01*
X81008991Y-106345357D01*
X80940000Y-106334311D01*
X80905625Y-106310034D01*
X79401819Y-104806228D01*
X79368334Y-104744905D01*
X79365500Y-104718547D01*
X79365500Y-88975373D01*
X80295723Y-88975373D01*
X80325881Y-89275160D01*
X80325882Y-89275162D01*
X80395728Y-89568252D01*
X80395733Y-89568266D01*
X80504020Y-89849427D01*
X80504024Y-89849436D01*
X80648825Y-90113665D01*
X80648829Y-90113671D01*
X80776735Y-90287266D01*
X80827554Y-90356238D01*
X80827561Y-90356245D01*
X81037019Y-90572823D01*
X81273478Y-90759553D01*
X81273480Y-90759554D01*
X81273485Y-90759558D01*
X81532730Y-90913109D01*
X81810128Y-91030736D01*
X82100729Y-91110340D01*
X82399347Y-91150500D01*
X82399351Y-91150500D01*
X82625252Y-91150500D01*
X82789164Y-91139526D01*
X82850634Y-91135412D01*
X83145903Y-91075396D01*
X83430537Y-90976560D01*
X83699459Y-90840668D01*
X83947869Y-90670144D01*
X84171333Y-90468032D01*
X84365865Y-90237939D01*
X84527993Y-89983970D01*
X84654823Y-89710658D01*
X84744093Y-89422879D01*
X84794209Y-89125770D01*
X84803516Y-88847401D01*
X86525746Y-88847401D01*
X86535745Y-89057327D01*
X86585296Y-89261578D01*
X86585298Y-89261582D01*
X86672598Y-89452743D01*
X86672601Y-89452748D01*
X86672602Y-89452750D01*
X86672604Y-89452753D01*
X86768232Y-89587044D01*
X86794515Y-89623953D01*
X86794520Y-89623959D01*
X86946620Y-89768985D01*
X87061892Y-89843066D01*
X87123428Y-89882613D01*
X87318543Y-89960725D01*
X87360186Y-89968751D01*
X87524914Y-90000500D01*
X87524915Y-90000500D01*
X87682419Y-90000500D01*
X87682425Y-90000500D01*
X87839218Y-89985528D01*
X88040875Y-89926316D01*
X88227682Y-89830011D01*
X88392886Y-89700092D01*
X88530519Y-89541256D01*
X88543943Y-89518006D01*
X88635601Y-89359249D01*
X88635600Y-89359249D01*
X88635604Y-89359244D01*
X88704344Y-89160633D01*
X88734254Y-88952602D01*
X88724254Y-88742670D01*
X88674704Y-88538424D01*
X88668500Y-88524839D01*
X88587401Y-88347256D01*
X88587398Y-88347251D01*
X88587397Y-88347250D01*
X88587396Y-88347247D01*
X88465486Y-88176048D01*
X88465484Y-88176046D01*
X88465479Y-88176040D01*
X88313379Y-88031014D01*
X88136574Y-87917388D01*
X87941455Y-87839274D01*
X87735086Y-87799500D01*
X87735085Y-87799500D01*
X87577575Y-87799500D01*
X87420782Y-87814472D01*
X87420778Y-87814473D01*
X87219127Y-87873683D01*
X87032313Y-87969991D01*
X86867116Y-88099905D01*
X86867112Y-88099909D01*
X86729478Y-88258746D01*
X86624398Y-88440750D01*
X86555656Y-88639365D01*
X86555656Y-88639367D01*
X86528967Y-88825000D01*
X86525746Y-88847401D01*
X84803516Y-88847401D01*
X84804277Y-88824631D01*
X84774118Y-88524838D01*
X84704269Y-88231739D01*
X84595977Y-87950566D01*
X84451175Y-87686335D01*
X84447730Y-87681660D01*
X84360269Y-87562956D01*
X84272446Y-87443762D01*
X84062980Y-87227176D01*
X84019421Y-87192778D01*
X83826521Y-87040446D01*
X83826517Y-87040443D01*
X83826515Y-87040442D01*
X83567270Y-86886891D01*
X83289872Y-86769264D01*
X83289863Y-86769261D01*
X82999272Y-86689660D01*
X82924616Y-86679620D01*
X82700653Y-86649500D01*
X82474756Y-86649500D01*
X82474748Y-86649500D01*
X82249368Y-86664587D01*
X82249359Y-86664589D01*
X81954094Y-86724604D01*
X81669464Y-86823439D01*
X81669459Y-86823441D01*
X81400546Y-86959328D01*
X81152125Y-87129860D01*
X80928665Y-87331969D01*
X80734132Y-87562064D01*
X80572006Y-87816030D01*
X80572005Y-87816032D01*
X80472244Y-88031014D01*
X80445177Y-88089342D01*
X80441899Y-88099909D01*
X80355907Y-88377118D01*
X80307913Y-88661650D01*
X80305791Y-88674230D01*
X80300002Y-88847398D01*
X80295723Y-88975373D01*
X79365500Y-88975373D01*
X79365500Y-87916132D01*
X79385185Y-87849093D01*
X79437989Y-87803338D01*
X79442027Y-87801579D01*
X79468859Y-87790466D01*
X79683659Y-87658836D01*
X79875224Y-87495224D01*
X80038836Y-87303659D01*
X80170466Y-87088859D01*
X80266873Y-86856111D01*
X80325683Y-86611148D01*
X80345449Y-86360000D01*
X80325683Y-86108852D01*
X80266873Y-85863889D01*
X80209343Y-85724999D01*
X80170466Y-85631140D01*
X80038839Y-85416346D01*
X80038838Y-85416343D01*
X79985793Y-85354236D01*
X79875224Y-85224776D01*
X79748571Y-85116604D01*
X79683656Y-85061161D01*
X79683653Y-85061160D01*
X79468859Y-84929533D01*
X79236110Y-84833126D01*
X78991151Y-84774317D01*
X78740000Y-84754551D01*
X78488848Y-84774317D01*
X78243889Y-84833126D01*
X78011140Y-84929533D01*
X77796346Y-85061160D01*
X77796343Y-85061161D01*
X77604776Y-85224776D01*
X77441161Y-85416343D01*
X77441160Y-85416346D01*
X77309533Y-85631140D01*
X77213126Y-85863889D01*
X77154317Y-86108848D01*
X77134551Y-86360000D01*
X77154317Y-86611151D01*
X77213126Y-86856110D01*
X77309533Y-87088859D01*
X77441160Y-87303653D01*
X77441161Y-87303656D01*
X77465944Y-87332673D01*
X77604776Y-87495224D01*
X77716526Y-87590668D01*
X77754719Y-87649174D01*
X77755218Y-87719041D01*
X77717864Y-87778088D01*
X77654517Y-87807566D01*
X77612527Y-87806716D01*
X77575086Y-87799500D01*
X77575085Y-87799500D01*
X77417575Y-87799500D01*
X77260782Y-87814472D01*
X77260778Y-87814473D01*
X77059127Y-87873683D01*
X76872313Y-87969991D01*
X76707116Y-88099905D01*
X76707112Y-88099909D01*
X76569478Y-88258746D01*
X76464398Y-88440750D01*
X76395656Y-88639365D01*
X76395656Y-88639367D01*
X76368967Y-88825000D01*
X76365746Y-88847401D01*
X76375745Y-89057327D01*
X76425296Y-89261578D01*
X76425298Y-89261582D01*
X76512598Y-89452743D01*
X76512601Y-89452748D01*
X76512602Y-89452750D01*
X76512604Y-89452753D01*
X76608232Y-89587044D01*
X76634515Y-89623953D01*
X76634520Y-89623959D01*
X76786620Y-89768985D01*
X76901892Y-89843066D01*
X76963428Y-89882613D01*
X77158543Y-89960725D01*
X77200186Y-89968751D01*
X77364914Y-90000500D01*
X77364915Y-90000500D01*
X77522419Y-90000500D01*
X77522425Y-90000500D01*
X77679218Y-89985528D01*
X77880875Y-89926316D01*
X77933681Y-89899092D01*
X78002286Y-89885869D01*
X78067151Y-89911837D01*
X78107680Y-89968751D01*
X78114500Y-90009308D01*
X78114500Y-100076814D01*
X78094815Y-100143853D01*
X78042011Y-100189608D01*
X77972853Y-100199552D01*
X77929572Y-100182005D01*
X77928363Y-100184101D01*
X77922729Y-100180848D01*
X77749807Y-100103857D01*
X77749802Y-100103855D01*
X77604001Y-100072865D01*
X77564646Y-100064500D01*
X77375354Y-100064500D01*
X77342897Y-100071398D01*
X77190197Y-100103855D01*
X77190192Y-100103857D01*
X77017270Y-100180848D01*
X77017265Y-100180851D01*
X76864129Y-100292111D01*
X76737466Y-100432785D01*
X76642821Y-100596715D01*
X76642818Y-100596722D01*
X76584327Y-100776740D01*
X76584326Y-100776744D01*
X76564540Y-100965000D01*
X76584326Y-101153256D01*
X76584327Y-101153259D01*
X76642818Y-101333277D01*
X76642821Y-101333284D01*
X76737467Y-101497216D01*
X76780772Y-101545310D01*
X76812650Y-101580715D01*
X76842880Y-101643706D01*
X76844500Y-101663687D01*
X76844500Y-105327255D01*
X76842775Y-105342872D01*
X76843061Y-105342899D01*
X76842326Y-105350665D01*
X76844500Y-105419814D01*
X76844500Y-105449343D01*
X76844501Y-105449360D01*
X76845368Y-105456231D01*
X76845826Y-105462050D01*
X76847290Y-105508624D01*
X76847291Y-105508627D01*
X76852880Y-105527867D01*
X76856824Y-105546911D01*
X76859336Y-105566791D01*
X76876490Y-105610119D01*
X76878382Y-105615647D01*
X76891381Y-105660388D01*
X76901580Y-105677634D01*
X76910138Y-105695103D01*
X76917514Y-105713732D01*
X76944898Y-105751423D01*
X76948106Y-105756307D01*
X76971827Y-105796416D01*
X76971834Y-105796425D01*
X76977590Y-105802181D01*
X77011075Y-105863504D01*
X77006091Y-105933196D01*
X76964219Y-105989129D01*
X76898755Y-106013546D01*
X76879102Y-106013390D01*
X76835002Y-106009532D01*
X76834998Y-106009532D01*
X76608313Y-106029364D01*
X76608302Y-106029366D01*
X76388511Y-106088258D01*
X76388502Y-106088261D01*
X76182267Y-106184431D01*
X76182265Y-106184432D01*
X75995858Y-106314954D01*
X75834954Y-106475858D01*
X75704433Y-106662264D01*
X75704432Y-106662266D01*
X75704315Y-106662518D01*
X75677106Y-106720867D01*
X75630933Y-106773306D01*
X75563739Y-106792457D01*
X75496858Y-106772241D01*
X75452342Y-106720865D01*
X75425135Y-106662520D01*
X75425134Y-106662518D01*
X75294657Y-106476179D01*
X75133820Y-106315342D01*
X74947482Y-106184865D01*
X74741328Y-106088734D01*
X74545000Y-106036127D01*
X74545000Y-106999314D01*
X74533045Y-106987359D01*
X74420148Y-106929835D01*
X74326481Y-106915000D01*
X74263519Y-106915000D01*
X74169852Y-106929835D01*
X74056955Y-106987359D01*
X74045000Y-106999314D01*
X74045000Y-106036127D01*
X73848671Y-106088734D01*
X73642517Y-106184865D01*
X73456179Y-106315342D01*
X73295342Y-106476179D01*
X73164867Y-106662515D01*
X73137657Y-106720867D01*
X73091484Y-106773306D01*
X73024290Y-106792457D01*
X72957409Y-106772241D01*
X72912893Y-106720865D01*
X72885685Y-106662518D01*
X72885568Y-106662266D01*
X72755047Y-106475861D01*
X72755045Y-106475858D01*
X72594141Y-106314954D01*
X72407734Y-106184432D01*
X72407732Y-106184431D01*
X72201497Y-106088261D01*
X72201488Y-106088258D01*
X71981697Y-106029366D01*
X71981693Y-106029365D01*
X71981692Y-106029365D01*
X71981691Y-106029364D01*
X71981686Y-106029364D01*
X71755002Y-106009532D01*
X71754998Y-106009532D01*
X71528313Y-106029364D01*
X71528302Y-106029366D01*
X71308511Y-106088258D01*
X71308502Y-106088261D01*
X71102267Y-106184431D01*
X71102265Y-106184432D01*
X70915858Y-106314954D01*
X70754954Y-106475858D01*
X70624432Y-106662265D01*
X70624431Y-106662267D01*
X70597382Y-106720275D01*
X70551209Y-106772714D01*
X70484016Y-106791866D01*
X70417135Y-106771650D01*
X70372618Y-106720275D01*
X70345686Y-106662520D01*
X70345568Y-106662266D01*
X70215047Y-106475861D01*
X70215045Y-106475858D01*
X70054141Y-106314954D01*
X69867734Y-106184432D01*
X69867732Y-106184431D01*
X69661497Y-106088261D01*
X69661488Y-106088258D01*
X69441697Y-106029366D01*
X69441693Y-106029365D01*
X69441692Y-106029365D01*
X69441691Y-106029364D01*
X69441686Y-106029364D01*
X69215002Y-106009532D01*
X69214998Y-106009532D01*
X68988313Y-106029364D01*
X68988302Y-106029366D01*
X68768511Y-106088258D01*
X68768502Y-106088262D01*
X68601905Y-106165948D01*
X68532827Y-106176440D01*
X68469043Y-106147920D01*
X68430804Y-106089444D01*
X68425500Y-106053566D01*
X68425500Y-83820000D01*
X83484551Y-83820000D01*
X83504317Y-84071151D01*
X83563126Y-84316110D01*
X83659533Y-84548859D01*
X83791160Y-84763653D01*
X83791161Y-84763656D01*
X83845102Y-84826812D01*
X83954776Y-84955224D01*
X84064759Y-85049158D01*
X84146343Y-85118838D01*
X84146346Y-85118839D01*
X84361140Y-85250466D01*
X84407694Y-85269749D01*
X84593889Y-85346873D01*
X84838852Y-85405683D01*
X85090000Y-85425449D01*
X85341148Y-85405683D01*
X85586111Y-85346873D01*
X85818859Y-85250466D01*
X86033659Y-85118836D01*
X86225224Y-84955224D01*
X86388836Y-84763659D01*
X86520466Y-84548859D01*
X86616873Y-84316111D01*
X86675683Y-84071148D01*
X86695449Y-83820000D01*
X86675683Y-83568852D01*
X86616873Y-83323889D01*
X86551704Y-83166556D01*
X86520466Y-83091140D01*
X86388839Y-82876346D01*
X86388838Y-82876343D01*
X86335793Y-82814236D01*
X86225224Y-82684776D01*
X86098571Y-82576604D01*
X86033656Y-82521161D01*
X86033653Y-82521160D01*
X85818859Y-82389533D01*
X85586110Y-82293126D01*
X85341151Y-82234317D01*
X85090000Y-82214551D01*
X84838848Y-82234317D01*
X84593889Y-82293126D01*
X84361140Y-82389533D01*
X84146346Y-82521160D01*
X84146343Y-82521161D01*
X83954776Y-82684776D01*
X83791161Y-82876343D01*
X83791160Y-82876346D01*
X83659533Y-83091140D01*
X83563126Y-83323889D01*
X83504317Y-83568848D01*
X83484551Y-83820000D01*
X68425500Y-83820000D01*
X68425500Y-75877870D01*
X79874500Y-75877870D01*
X79874501Y-75877876D01*
X79880908Y-75937483D01*
X79931202Y-76072328D01*
X79931206Y-76072335D01*
X80017452Y-76187544D01*
X80017455Y-76187547D01*
X80132664Y-76273793D01*
X80132671Y-76273797D01*
X80267517Y-76324091D01*
X80267516Y-76324091D01*
X80274444Y-76324835D01*
X80327127Y-76330500D01*
X82222872Y-76330499D01*
X82282483Y-76324091D01*
X82417331Y-76273796D01*
X82532546Y-76187546D01*
X82618796Y-76072331D01*
X82623888Y-76058678D01*
X82647455Y-75995493D01*
X82689326Y-75939559D01*
X82754790Y-75915141D01*
X82823063Y-75929992D01*
X82854866Y-75954843D01*
X82862302Y-75962920D01*
X82863215Y-75963912D01*
X82863222Y-75963918D01*
X83046365Y-76106464D01*
X83046371Y-76106468D01*
X83046374Y-76106470D01*
X83250497Y-76216936D01*
X83364487Y-76256068D01*
X83470015Y-76292297D01*
X83470017Y-76292297D01*
X83470019Y-76292298D01*
X83698951Y-76330500D01*
X83698952Y-76330500D01*
X83931048Y-76330500D01*
X83931049Y-76330500D01*
X84159981Y-76292298D01*
X84379503Y-76216936D01*
X84583626Y-76106470D01*
X84766784Y-75963913D01*
X84923979Y-75793153D01*
X85050924Y-75598849D01*
X85144157Y-75386300D01*
X85201134Y-75161305D01*
X85204701Y-75118256D01*
X85220300Y-74930006D01*
X85220300Y-74929993D01*
X85201135Y-74698702D01*
X85201133Y-74698691D01*
X85144157Y-74473699D01*
X85050924Y-74261151D01*
X84923983Y-74066852D01*
X84923980Y-74066849D01*
X84923979Y-74066847D01*
X84766784Y-73896087D01*
X84766779Y-73896083D01*
X84766777Y-73896081D01*
X84583634Y-73753535D01*
X84583628Y-73753531D01*
X84379504Y-73643064D01*
X84379495Y-73643061D01*
X84159984Y-73567702D01*
X83969450Y-73535908D01*
X83931049Y-73529500D01*
X83698951Y-73529500D01*
X83660550Y-73535908D01*
X83470015Y-73567702D01*
X83250504Y-73643061D01*
X83250495Y-73643064D01*
X83046371Y-73753531D01*
X83046365Y-73753535D01*
X82863222Y-73896081D01*
X82863218Y-73896085D01*
X82863216Y-73896086D01*
X82863216Y-73896087D01*
X82857313Y-73902500D01*
X82854866Y-73905158D01*
X82794979Y-73941148D01*
X82725141Y-73939047D01*
X82667525Y-73899522D01*
X82647455Y-73864507D01*
X82618797Y-73787671D01*
X82618793Y-73787664D01*
X82532547Y-73672455D01*
X82532544Y-73672452D01*
X82417335Y-73586206D01*
X82417328Y-73586202D01*
X82282482Y-73535908D01*
X82282483Y-73535908D01*
X82222883Y-73529501D01*
X82222881Y-73529500D01*
X82222873Y-73529500D01*
X82222864Y-73529500D01*
X80327129Y-73529500D01*
X80327123Y-73529501D01*
X80267516Y-73535908D01*
X80132671Y-73586202D01*
X80132664Y-73586206D01*
X80017455Y-73672452D01*
X80017452Y-73672455D01*
X79931206Y-73787664D01*
X79931202Y-73787671D01*
X79880908Y-73922517D01*
X79874501Y-73982116D01*
X79874500Y-73982135D01*
X79874500Y-75877870D01*
X68425500Y-75877870D01*
X68425500Y-69215000D01*
X76456418Y-69215000D01*
X76476715Y-69472898D01*
X76537102Y-69724430D01*
X76537106Y-69724442D01*
X76636102Y-69963441D01*
X76771267Y-70184009D01*
X76771270Y-70184014D01*
X76847426Y-70273181D01*
X76939276Y-70380724D01*
X77059802Y-70483662D01*
X77135985Y-70548729D01*
X77135990Y-70548732D01*
X77356558Y-70683897D01*
X77441057Y-70718897D01*
X77595560Y-70782895D01*
X77847105Y-70843285D01*
X78105000Y-70863582D01*
X78362895Y-70843285D01*
X78614440Y-70782895D01*
X78853441Y-70683897D01*
X79074012Y-70548731D01*
X79270724Y-70380724D01*
X79438731Y-70184012D01*
X79573897Y-69963441D01*
X79672895Y-69724440D01*
X79733285Y-69472895D01*
X79753582Y-69215000D01*
X106936418Y-69215000D01*
X106956715Y-69472898D01*
X107017102Y-69724430D01*
X107017106Y-69724442D01*
X107116102Y-69963441D01*
X107251267Y-70184009D01*
X107251270Y-70184014D01*
X107327426Y-70273181D01*
X107419276Y-70380724D01*
X107539802Y-70483662D01*
X107615985Y-70548729D01*
X107615990Y-70548732D01*
X107836558Y-70683897D01*
X107921057Y-70718897D01*
X108075560Y-70782895D01*
X108327105Y-70843285D01*
X108585000Y-70863582D01*
X108842895Y-70843285D01*
X109094440Y-70782895D01*
X109333441Y-70683897D01*
X109554012Y-70548731D01*
X109750724Y-70380724D01*
X109918731Y-70184012D01*
X110053897Y-69963441D01*
X110152895Y-69724440D01*
X110213285Y-69472895D01*
X110233582Y-69215000D01*
X110213285Y-68957105D01*
X110152895Y-68705560D01*
X110053897Y-68466559D01*
X110053897Y-68466558D01*
X109918732Y-68245990D01*
X109918729Y-68245985D01*
X109858265Y-68175191D01*
X109750724Y-68049276D01*
X109643181Y-67957426D01*
X109554014Y-67881270D01*
X109554009Y-67881267D01*
X109333441Y-67746102D01*
X109094442Y-67647106D01*
X109094444Y-67647106D01*
X109094440Y-67647105D01*
X109094436Y-67647104D01*
X109094430Y-67647102D01*
X108842898Y-67586715D01*
X108585000Y-67566418D01*
X108327101Y-67586715D01*
X108075569Y-67647102D01*
X108075557Y-67647106D01*
X107836558Y-67746102D01*
X107615990Y-67881267D01*
X107615985Y-67881270D01*
X107419276Y-68049276D01*
X107251270Y-68245985D01*
X107251267Y-68245990D01*
X107116102Y-68466558D01*
X107017106Y-68705557D01*
X107017102Y-68705569D01*
X106956715Y-68957101D01*
X106936418Y-69215000D01*
X79753582Y-69215000D01*
X79733285Y-68957105D01*
X79672895Y-68705560D01*
X79573897Y-68466559D01*
X79573897Y-68466558D01*
X79438732Y-68245990D01*
X79438729Y-68245985D01*
X79378265Y-68175191D01*
X79270724Y-68049276D01*
X79163181Y-67957426D01*
X79074014Y-67881270D01*
X79074009Y-67881267D01*
X78853441Y-67746102D01*
X78614442Y-67647106D01*
X78614444Y-67647106D01*
X78614440Y-67647105D01*
X78614436Y-67647104D01*
X78614430Y-67647102D01*
X78362898Y-67586715D01*
X78105000Y-67566418D01*
X77847101Y-67586715D01*
X77595569Y-67647102D01*
X77595557Y-67647106D01*
X77356558Y-67746102D01*
X77135990Y-67881267D01*
X77135985Y-67881270D01*
X76939276Y-68049276D01*
X76771270Y-68245985D01*
X76771267Y-68245990D01*
X76636102Y-68466558D01*
X76537106Y-68705557D01*
X76537102Y-68705569D01*
X76476715Y-68957101D01*
X76456418Y-69215000D01*
X68425500Y-69215000D01*
X68425500Y-53023742D01*
X68427224Y-53008122D01*
X68426939Y-53008096D01*
X68427671Y-53000340D01*
X68427673Y-53000333D01*
X68425500Y-52931185D01*
X68425500Y-52901650D01*
X68424631Y-52894772D01*
X68424172Y-52888943D01*
X68422709Y-52842372D01*
X68417122Y-52823144D01*
X68413174Y-52804084D01*
X68410663Y-52784204D01*
X68393512Y-52740887D01*
X68391619Y-52735358D01*
X68378618Y-52690609D01*
X68378616Y-52690606D01*
X68368423Y-52673371D01*
X68359861Y-52655894D01*
X68352487Y-52637270D01*
X68352486Y-52637268D01*
X68325079Y-52599545D01*
X68321888Y-52594686D01*
X68298172Y-52554583D01*
X68298165Y-52554574D01*
X68284006Y-52540415D01*
X68271368Y-52525619D01*
X68259594Y-52509413D01*
X68223688Y-52479709D01*
X68219376Y-52475786D01*
X67867960Y-52124369D01*
X67834475Y-52063046D01*
X67832323Y-52049668D01*
X67814674Y-51881744D01*
X67756179Y-51701716D01*
X67661533Y-51537784D01*
X67534871Y-51397112D01*
X67534870Y-51397111D01*
X67381734Y-51285851D01*
X67381729Y-51285848D01*
X67208807Y-51208857D01*
X67208802Y-51208855D01*
X67063001Y-51177865D01*
X67023646Y-51169500D01*
X66834354Y-51169500D01*
X66801897Y-51176398D01*
X66649197Y-51208855D01*
X66649192Y-51208857D01*
X66476270Y-51285848D01*
X66476265Y-51285851D01*
X66323129Y-51397111D01*
X66196466Y-51537785D01*
X66101821Y-51701715D01*
X66101818Y-51701722D01*
X66043327Y-51881740D01*
X66043326Y-51881744D01*
X66023540Y-52070000D01*
X66043326Y-52258256D01*
X66043327Y-52258259D01*
X66101818Y-52438277D01*
X66101821Y-52438284D01*
X66196467Y-52602216D01*
X66276054Y-52690606D01*
X66323129Y-52742888D01*
X66476265Y-52854148D01*
X66476270Y-52854151D01*
X66649192Y-52931142D01*
X66649197Y-52931144D01*
X66834354Y-52970500D01*
X66893547Y-52970500D01*
X66960586Y-52990185D01*
X66981223Y-53006814D01*
X67138182Y-53163772D01*
X67171666Y-53225094D01*
X67174500Y-53251452D01*
X67174500Y-105940863D01*
X67154815Y-106007902D01*
X67102011Y-106053657D01*
X67032853Y-106063601D01*
X67018407Y-106060638D01*
X66901697Y-106029366D01*
X66901693Y-106029365D01*
X66901692Y-106029365D01*
X66901691Y-106029364D01*
X66901686Y-106029364D01*
X66675002Y-106009532D01*
X66674998Y-106009532D01*
X66448313Y-106029364D01*
X66448302Y-106029366D01*
X66228511Y-106088258D01*
X66228502Y-106088261D01*
X66022267Y-106184431D01*
X66022265Y-106184432D01*
X65835858Y-106314954D01*
X65674954Y-106475858D01*
X65544432Y-106662265D01*
X65544431Y-106662267D01*
X65448261Y-106868502D01*
X65448258Y-106868511D01*
X65389366Y-107088302D01*
X65389364Y-107088313D01*
X65369532Y-107314998D01*
X65369532Y-107315001D01*
X65389364Y-107541686D01*
X65389366Y-107541697D01*
X65448258Y-107761488D01*
X65448261Y-107761497D01*
X65544431Y-107967732D01*
X65544432Y-107967734D01*
X65674954Y-108154141D01*
X65835858Y-108315045D01*
X65835861Y-108315047D01*
X66022266Y-108445568D01*
X66228504Y-108541739D01*
X66448308Y-108600635D01*
X66610230Y-108614801D01*
X66674998Y-108620468D01*
X66675000Y-108620468D01*
X66675002Y-108620468D01*
X66731673Y-108615509D01*
X66901692Y-108600635D01*
X67018408Y-108569361D01*
X67088256Y-108571024D01*
X67146119Y-108610186D01*
X67173623Y-108674415D01*
X67174500Y-108689136D01*
X67174500Y-121119545D01*
X67154815Y-121186584D01*
X67138181Y-121207226D01*
X67127226Y-121218181D01*
X67065903Y-121251666D01*
X67039545Y-121254500D01*
X65827129Y-121254500D01*
X65827123Y-121254501D01*
X65767516Y-121260908D01*
X65632671Y-121311202D01*
X65632664Y-121311206D01*
X65517455Y-121397452D01*
X65517452Y-121397455D01*
X65431206Y-121512664D01*
X65431202Y-121512671D01*
X65380908Y-121647517D01*
X65374501Y-121707116D01*
X65374500Y-121707135D01*
X65374500Y-123402870D01*
X65374501Y-123402876D01*
X65380908Y-123462483D01*
X65431202Y-123597328D01*
X65431206Y-123597335D01*
X65517452Y-123712544D01*
X65517455Y-123712547D01*
X65632664Y-123798793D01*
X65632671Y-123798797D01*
X65677618Y-123815561D01*
X65767517Y-123849091D01*
X65827127Y-123855500D01*
X65841542Y-123855499D01*
X65908580Y-123875180D01*
X65954337Y-123927981D01*
X65964285Y-123997139D01*
X65935264Y-124060696D01*
X65929227Y-124067180D01*
X65058208Y-124938199D01*
X65045951Y-124948020D01*
X65046134Y-124948241D01*
X65040123Y-124953213D01*
X64992772Y-125003636D01*
X64971889Y-125024519D01*
X64971877Y-125024532D01*
X64967621Y-125030017D01*
X64963837Y-125034447D01*
X64931937Y-125068418D01*
X64931936Y-125068420D01*
X64922284Y-125085976D01*
X64911610Y-125102226D01*
X64899329Y-125118061D01*
X64899324Y-125118068D01*
X64880815Y-125160838D01*
X64878245Y-125166084D01*
X64855803Y-125206906D01*
X64850822Y-125226307D01*
X64844521Y-125244710D01*
X64836562Y-125263102D01*
X64836561Y-125263105D01*
X64829271Y-125309127D01*
X64828087Y-125314846D01*
X64816501Y-125359972D01*
X64816500Y-125359982D01*
X64816500Y-125380016D01*
X64814973Y-125399415D01*
X64811840Y-125419194D01*
X64811840Y-125419195D01*
X64816225Y-125465583D01*
X64816500Y-125471421D01*
X64816500Y-134466312D01*
X64796815Y-134533351D01*
X64784650Y-134549284D01*
X64709466Y-134632784D01*
X64614821Y-134796715D01*
X64614818Y-134796722D01*
X64579381Y-134905788D01*
X64556326Y-134976744D01*
X64536540Y-135165000D01*
X46193128Y-135165000D01*
X45957197Y-135044787D01*
X45595094Y-134905788D01*
X45595087Y-134905786D01*
X45220433Y-134805398D01*
X45220429Y-134805397D01*
X45220428Y-134805397D01*
X44837339Y-134744722D01*
X44450001Y-134724422D01*
X44449999Y-134724422D01*
X44062660Y-134744722D01*
X43679572Y-134805397D01*
X43679570Y-134805397D01*
X43304905Y-134905788D01*
X42942802Y-135044787D01*
X42597206Y-135220877D01*
X42271917Y-135432122D01*
X41970488Y-135676215D01*
X41970480Y-135676222D01*
X41696222Y-135950480D01*
X41696215Y-135950488D01*
X41452122Y-136251917D01*
X41240877Y-136577206D01*
X41128985Y-136796808D01*
X41081011Y-136847604D01*
X41013190Y-136864399D01*
X40947055Y-136841862D01*
X40903603Y-136787147D01*
X40894500Y-136740513D01*
X40894500Y-104648000D01*
X51291540Y-104648000D01*
X51311326Y-104836256D01*
X51311327Y-104836259D01*
X51369818Y-105016277D01*
X51369821Y-105016284D01*
X51464467Y-105180216D01*
X51591129Y-105320888D01*
X51744265Y-105432148D01*
X51744270Y-105432151D01*
X51917192Y-105509142D01*
X51917197Y-105509144D01*
X52102354Y-105548500D01*
X52102355Y-105548500D01*
X52291644Y-105548500D01*
X52291646Y-105548500D01*
X52476803Y-105509144D01*
X52649730Y-105432151D01*
X52802871Y-105320888D01*
X52929533Y-105180216D01*
X53024179Y-105016284D01*
X53082674Y-104836256D01*
X53102460Y-104648000D01*
X53082674Y-104459744D01*
X53024179Y-104279716D01*
X52929533Y-104115784D01*
X52854350Y-104032284D01*
X52824120Y-103969292D01*
X52822500Y-103949312D01*
X52822500Y-89622870D01*
X56332000Y-89622870D01*
X56332001Y-89622876D01*
X56338408Y-89682483D01*
X56388702Y-89817328D01*
X56388706Y-89817335D01*
X56474952Y-89932544D01*
X56474955Y-89932547D01*
X56590164Y-90018793D01*
X56590171Y-90018797D01*
X56634630Y-90035379D01*
X56725017Y-90069091D01*
X56784627Y-90075500D01*
X57035501Y-90075499D01*
X57102539Y-90095183D01*
X57148294Y-90147987D01*
X57159500Y-90199499D01*
X57159500Y-91230255D01*
X57157775Y-91245872D01*
X57158061Y-91245899D01*
X57157326Y-91253665D01*
X57159500Y-91322814D01*
X57159500Y-91352343D01*
X57159501Y-91352360D01*
X57160368Y-91359231D01*
X57160826Y-91365050D01*
X57162290Y-91411624D01*
X57162291Y-91411627D01*
X57167880Y-91430867D01*
X57171824Y-91449911D01*
X57174336Y-91469792D01*
X57174631Y-91470536D01*
X57191490Y-91513119D01*
X57193382Y-91518647D01*
X57206381Y-91563388D01*
X57216580Y-91580634D01*
X57225138Y-91598103D01*
X57232514Y-91616732D01*
X57259898Y-91654423D01*
X57263106Y-91659307D01*
X57286827Y-91699416D01*
X57286833Y-91699424D01*
X57300990Y-91713580D01*
X57313628Y-91728376D01*
X57325405Y-91744586D01*
X57325406Y-91744587D01*
X57361309Y-91774288D01*
X57365620Y-91778210D01*
X61932591Y-96345181D01*
X62815038Y-97227628D01*
X62848523Y-97288951D01*
X62850678Y-97302347D01*
X62858139Y-97373338D01*
X62868326Y-97470256D01*
X62868327Y-97470259D01*
X62926818Y-97650277D01*
X62926821Y-97650284D01*
X63021467Y-97814216D01*
X63148129Y-97954888D01*
X63301265Y-98066148D01*
X63301270Y-98066151D01*
X63474192Y-98143142D01*
X63474197Y-98143144D01*
X63659354Y-98182500D01*
X63659355Y-98182500D01*
X63848644Y-98182500D01*
X63848646Y-98182500D01*
X64033803Y-98143144D01*
X64206730Y-98066151D01*
X64359871Y-97954888D01*
X64486533Y-97814216D01*
X64581179Y-97650284D01*
X64639674Y-97470256D01*
X64659460Y-97282000D01*
X64639674Y-97093744D01*
X64581179Y-96913716D01*
X64486533Y-96749784D01*
X64359871Y-96609112D01*
X64359870Y-96609111D01*
X64206734Y-96497851D01*
X64206729Y-96497848D01*
X64033807Y-96420857D01*
X64033802Y-96420855D01*
X63888001Y-96389865D01*
X63848646Y-96381500D01*
X63848645Y-96381500D01*
X63789452Y-96381500D01*
X63722413Y-96361815D01*
X63701771Y-96345181D01*
X58446819Y-91090228D01*
X58413334Y-91028905D01*
X58410500Y-91002547D01*
X58410500Y-90199499D01*
X58430185Y-90132460D01*
X58482989Y-90086705D01*
X58534500Y-90075499D01*
X58785371Y-90075499D01*
X58785372Y-90075499D01*
X58844983Y-90069091D01*
X58979831Y-90018796D01*
X59095046Y-89932546D01*
X59181296Y-89817331D01*
X59192725Y-89786687D01*
X59234594Y-89730755D01*
X59300058Y-89706336D01*
X59368331Y-89721186D01*
X59385069Y-89732167D01*
X59527552Y-89843066D01*
X59527558Y-89843070D01*
X59527561Y-89843072D01*
X59681382Y-89926316D01*
X59738478Y-89957215D01*
X59739336Y-89957679D01*
X59857598Y-89998278D01*
X59967083Y-90035865D01*
X59967085Y-90035865D01*
X59967087Y-90035866D01*
X60204601Y-90075500D01*
X60204602Y-90075500D01*
X60445398Y-90075500D01*
X60445399Y-90075500D01*
X60682913Y-90035866D01*
X60910664Y-89957679D01*
X61122439Y-89843072D01*
X61312463Y-89695171D01*
X61475551Y-89518010D01*
X61491489Y-89493613D01*
X61544631Y-89448258D01*
X61613862Y-89438831D01*
X61677199Y-89468330D01*
X61699106Y-89493611D01*
X61714847Y-89517704D01*
X61714851Y-89517710D01*
X61877873Y-89694797D01*
X61877883Y-89694806D01*
X62067831Y-89842649D01*
X62067840Y-89842655D01*
X62279531Y-89957215D01*
X62279545Y-89957221D01*
X62507207Y-90035379D01*
X62615000Y-90053366D01*
X62615000Y-89066683D01*
X62643819Y-89084209D01*
X62789404Y-89125000D01*
X62902622Y-89125000D01*
X63014783Y-89109584D01*
X63115000Y-89066053D01*
X63115000Y-90053365D01*
X63222792Y-90035379D01*
X63450454Y-89957221D01*
X63450468Y-89957215D01*
X63662159Y-89842655D01*
X63662168Y-89842649D01*
X63852116Y-89694806D01*
X63852126Y-89694797D01*
X64015148Y-89517710D01*
X64015156Y-89517699D01*
X64146813Y-89316184D01*
X64243508Y-89095740D01*
X64302599Y-88862395D01*
X64302599Y-88862394D01*
X64305697Y-88825000D01*
X63359852Y-88825000D01*
X63408559Y-88687953D01*
X63418877Y-88537114D01*
X63388116Y-88389085D01*
X63354910Y-88325000D01*
X64305697Y-88325000D01*
X64302599Y-88287605D01*
X64302599Y-88287604D01*
X64243508Y-88054259D01*
X64146813Y-87833815D01*
X64015156Y-87632300D01*
X64015148Y-87632289D01*
X63852126Y-87455202D01*
X63852116Y-87455193D01*
X63662168Y-87307350D01*
X63662159Y-87307344D01*
X63450468Y-87192784D01*
X63450454Y-87192778D01*
X63222791Y-87114619D01*
X63115000Y-87096633D01*
X63115000Y-88083316D01*
X63086181Y-88065791D01*
X62940596Y-88025000D01*
X62827378Y-88025000D01*
X62715217Y-88040416D01*
X62615000Y-88083946D01*
X62615000Y-87096633D01*
X62614999Y-87096633D01*
X62507208Y-87114619D01*
X62279545Y-87192778D01*
X62279531Y-87192784D01*
X62067840Y-87307344D01*
X62067831Y-87307350D01*
X61877883Y-87455193D01*
X61877873Y-87455202D01*
X61714851Y-87632289D01*
X61714846Y-87632297D01*
X61699104Y-87656390D01*
X61645955Y-87701745D01*
X61576724Y-87711165D01*
X61513389Y-87681660D01*
X61491489Y-87656384D01*
X61475555Y-87631994D01*
X61379018Y-87527127D01*
X61312463Y-87454829D01*
X61178358Y-87350451D01*
X61122441Y-87306929D01*
X60910665Y-87192321D01*
X60910656Y-87192318D01*
X60682916Y-87114134D01*
X60483800Y-87080908D01*
X60445399Y-87074500D01*
X60204601Y-87074500D01*
X60166200Y-87080908D01*
X59967083Y-87114134D01*
X59739343Y-87192318D01*
X59739334Y-87192321D01*
X59527559Y-87306929D01*
X59385069Y-87417833D01*
X59320075Y-87443475D01*
X59251535Y-87429908D01*
X59201210Y-87381440D01*
X59192725Y-87363311D01*
X59181298Y-87332673D01*
X59181293Y-87332664D01*
X59095047Y-87217455D01*
X59095044Y-87217452D01*
X58979835Y-87131206D01*
X58979828Y-87131202D01*
X58844982Y-87080908D01*
X58844983Y-87080908D01*
X58785383Y-87074501D01*
X58785381Y-87074500D01*
X58785373Y-87074500D01*
X58785364Y-87074500D01*
X56784629Y-87074500D01*
X56784623Y-87074501D01*
X56725016Y-87080908D01*
X56590171Y-87131202D01*
X56590164Y-87131206D01*
X56474955Y-87217452D01*
X56474952Y-87217455D01*
X56388706Y-87332664D01*
X56388702Y-87332671D01*
X56338408Y-87467517D01*
X56332001Y-87527116D01*
X56332000Y-87527135D01*
X56332000Y-89622870D01*
X52822500Y-89622870D01*
X52822500Y-74607870D01*
X55109500Y-74607870D01*
X55109501Y-74607876D01*
X55115908Y-74667483D01*
X55166202Y-74802328D01*
X55166206Y-74802335D01*
X55252452Y-74917544D01*
X55252455Y-74917547D01*
X55367664Y-75003793D01*
X55367671Y-75003797D01*
X55502517Y-75054091D01*
X55502516Y-75054091D01*
X55509444Y-75054835D01*
X55562127Y-75060500D01*
X57457872Y-75060499D01*
X57517483Y-75054091D01*
X57652331Y-75003796D01*
X57767546Y-74917546D01*
X57853796Y-74802331D01*
X57853798Y-74802326D01*
X57882455Y-74725493D01*
X57924326Y-74669559D01*
X57989790Y-74645141D01*
X58058063Y-74659992D01*
X58089866Y-74684843D01*
X58097302Y-74692920D01*
X58098215Y-74693912D01*
X58098222Y-74693918D01*
X58281365Y-74836464D01*
X58281371Y-74836468D01*
X58281374Y-74836470D01*
X58485497Y-74946936D01*
X58599487Y-74986068D01*
X58705015Y-75022297D01*
X58705017Y-75022297D01*
X58705019Y-75022298D01*
X58933951Y-75060500D01*
X58933952Y-75060500D01*
X59166048Y-75060500D01*
X59166049Y-75060500D01*
X59394981Y-75022298D01*
X59614503Y-74946936D01*
X59818626Y-74836470D01*
X59861629Y-74803000D01*
X59940330Y-74741744D01*
X60001784Y-74693913D01*
X60158979Y-74523153D01*
X60285924Y-74328849D01*
X60379157Y-74116300D01*
X60436134Y-73891305D01*
X60436135Y-73891297D01*
X60455300Y-73660006D01*
X60455300Y-73659993D01*
X60436135Y-73428702D01*
X60436133Y-73428691D01*
X60379157Y-73203699D01*
X60285924Y-72991151D01*
X60158983Y-72796852D01*
X60158980Y-72796849D01*
X60158979Y-72796847D01*
X60001784Y-72626087D01*
X60001779Y-72626083D01*
X60001777Y-72626081D01*
X59818634Y-72483535D01*
X59818628Y-72483531D01*
X59614504Y-72373064D01*
X59614495Y-72373061D01*
X59394984Y-72297702D01*
X59204450Y-72265908D01*
X59166049Y-72259500D01*
X58933951Y-72259500D01*
X58895550Y-72265908D01*
X58705015Y-72297702D01*
X58485504Y-72373061D01*
X58485495Y-72373064D01*
X58281371Y-72483531D01*
X58281365Y-72483535D01*
X58098222Y-72626081D01*
X58098218Y-72626085D01*
X58089866Y-72635158D01*
X58029979Y-72671148D01*
X57960141Y-72669047D01*
X57902525Y-72629522D01*
X57882455Y-72594507D01*
X57853797Y-72517671D01*
X57853793Y-72517664D01*
X57767547Y-72402455D01*
X57767544Y-72402452D01*
X57652335Y-72316206D01*
X57652328Y-72316202D01*
X57517482Y-72265908D01*
X57517483Y-72265908D01*
X57457883Y-72259501D01*
X57457881Y-72259500D01*
X57457873Y-72259500D01*
X57457864Y-72259500D01*
X55562129Y-72259500D01*
X55562123Y-72259501D01*
X55502516Y-72265908D01*
X55367671Y-72316202D01*
X55367664Y-72316206D01*
X55252455Y-72402452D01*
X55252452Y-72402455D01*
X55166206Y-72517664D01*
X55166202Y-72517671D01*
X55115908Y-72652517D01*
X55109501Y-72712116D01*
X55109500Y-72712135D01*
X55109500Y-74607870D01*
X52822500Y-74607870D01*
X52822500Y-69850000D01*
X64118540Y-69850000D01*
X64138326Y-70038256D01*
X64138327Y-70038259D01*
X64196818Y-70218277D01*
X64196821Y-70218284D01*
X64291467Y-70382216D01*
X64382810Y-70483662D01*
X64418129Y-70522888D01*
X64571265Y-70634148D01*
X64571270Y-70634151D01*
X64744192Y-70711142D01*
X64744197Y-70711144D01*
X64929354Y-70750500D01*
X64929355Y-70750500D01*
X65118644Y-70750500D01*
X65118646Y-70750500D01*
X65303803Y-70711144D01*
X65476730Y-70634151D01*
X65629871Y-70522888D01*
X65756533Y-70382216D01*
X65851179Y-70218284D01*
X65909674Y-70038256D01*
X65929460Y-69850000D01*
X65909674Y-69661744D01*
X65851179Y-69481716D01*
X65851178Y-69481715D01*
X65849171Y-69475536D01*
X65850571Y-69475080D01*
X65842000Y-69434742D01*
X65842000Y-63407257D01*
X65850577Y-63366921D01*
X65849171Y-63366465D01*
X65864268Y-63320000D01*
X65909674Y-63180256D01*
X65929460Y-62992000D01*
X65909674Y-62803744D01*
X65851179Y-62623716D01*
X65756533Y-62459784D01*
X65629871Y-62319112D01*
X65629870Y-62319111D01*
X65476734Y-62207851D01*
X65476729Y-62207848D01*
X65303807Y-62130857D01*
X65303802Y-62130855D01*
X65158001Y-62099865D01*
X65118646Y-62091500D01*
X64929354Y-62091500D01*
X64896897Y-62098398D01*
X64744197Y-62130855D01*
X64744192Y-62130857D01*
X64571270Y-62207848D01*
X64571265Y-62207851D01*
X64418129Y-62319111D01*
X64291466Y-62459785D01*
X64196821Y-62623715D01*
X64196818Y-62623722D01*
X64140409Y-62797333D01*
X64138326Y-62803744D01*
X64118540Y-62992000D01*
X64138326Y-63180256D01*
X64138327Y-63180259D01*
X64198829Y-63366465D01*
X64197422Y-63366921D01*
X64206000Y-63407257D01*
X64206000Y-69434742D01*
X64197428Y-69475080D01*
X64198829Y-69475536D01*
X64196821Y-69481716D01*
X64138326Y-69661744D01*
X64118540Y-69850000D01*
X52822500Y-69850000D01*
X52822500Y-62542870D01*
X55109500Y-62542870D01*
X55109501Y-62542876D01*
X55115908Y-62602483D01*
X55166202Y-62737328D01*
X55166206Y-62737335D01*
X55252452Y-62852544D01*
X55252455Y-62852547D01*
X55367664Y-62938793D01*
X55367671Y-62938797D01*
X55502517Y-62989091D01*
X55502516Y-62989091D01*
X55509444Y-62989835D01*
X55562127Y-62995500D01*
X57457872Y-62995499D01*
X57517483Y-62989091D01*
X57652331Y-62938796D01*
X57767546Y-62852546D01*
X57853796Y-62737331D01*
X57857212Y-62728172D01*
X57882455Y-62660493D01*
X57924326Y-62604559D01*
X57989790Y-62580141D01*
X58058063Y-62594992D01*
X58089866Y-62619843D01*
X58097302Y-62627920D01*
X58098215Y-62628912D01*
X58098222Y-62628918D01*
X58281365Y-62771464D01*
X58281371Y-62771468D01*
X58281374Y-62771470D01*
X58485497Y-62881936D01*
X58599487Y-62921068D01*
X58705015Y-62957297D01*
X58705017Y-62957297D01*
X58705019Y-62957298D01*
X58933951Y-62995500D01*
X58933952Y-62995500D01*
X59166048Y-62995500D01*
X59166049Y-62995500D01*
X59394981Y-62957298D01*
X59614503Y-62881936D01*
X59818626Y-62771470D01*
X60001784Y-62628913D01*
X60158979Y-62458153D01*
X60285924Y-62263849D01*
X60379157Y-62051300D01*
X60436134Y-61826305D01*
X60455300Y-61595000D01*
X60455300Y-61594993D01*
X60436135Y-61363702D01*
X60436133Y-61363691D01*
X60379157Y-61138699D01*
X60285924Y-60926151D01*
X60158983Y-60731852D01*
X60158980Y-60731849D01*
X60158979Y-60731847D01*
X60001784Y-60561087D01*
X60001779Y-60561083D01*
X60001777Y-60561081D01*
X59818634Y-60418535D01*
X59818628Y-60418531D01*
X59614504Y-60308064D01*
X59614495Y-60308061D01*
X59394984Y-60232702D01*
X59204450Y-60200908D01*
X59166049Y-60194500D01*
X58933951Y-60194500D01*
X58895550Y-60200908D01*
X58705015Y-60232702D01*
X58485504Y-60308061D01*
X58485495Y-60308064D01*
X58281371Y-60418531D01*
X58281365Y-60418535D01*
X58098222Y-60561081D01*
X58098218Y-60561085D01*
X58089866Y-60570158D01*
X58029979Y-60606148D01*
X57960141Y-60604047D01*
X57902525Y-60564522D01*
X57882455Y-60529507D01*
X57853797Y-60452671D01*
X57853793Y-60452664D01*
X57767547Y-60337455D01*
X57767544Y-60337452D01*
X57652335Y-60251206D01*
X57652328Y-60251202D01*
X57517482Y-60200908D01*
X57517483Y-60200908D01*
X57457883Y-60194501D01*
X57457881Y-60194500D01*
X57457873Y-60194500D01*
X57457864Y-60194500D01*
X55562129Y-60194500D01*
X55562123Y-60194501D01*
X55502516Y-60200908D01*
X55367671Y-60251202D01*
X55367664Y-60251206D01*
X55252455Y-60337452D01*
X55252452Y-60337455D01*
X55166206Y-60452664D01*
X55166202Y-60452671D01*
X55115908Y-60587517D01*
X55109501Y-60647116D01*
X55109500Y-60647135D01*
X55109500Y-62542870D01*
X52822500Y-62542870D01*
X52822500Y-48895000D01*
X76456418Y-48895000D01*
X76476715Y-49152898D01*
X76537102Y-49404430D01*
X76537106Y-49404442D01*
X76636102Y-49643441D01*
X76771267Y-49864009D01*
X76771270Y-49864014D01*
X76847426Y-49953181D01*
X76939276Y-50060724D01*
X77065191Y-50168265D01*
X77135985Y-50228729D01*
X77135990Y-50228732D01*
X77356558Y-50363897D01*
X77441057Y-50398897D01*
X77595560Y-50462895D01*
X77847105Y-50523285D01*
X78105000Y-50543582D01*
X78362895Y-50523285D01*
X78614440Y-50462895D01*
X78853441Y-50363897D01*
X79074012Y-50228731D01*
X79270724Y-50060724D01*
X79438731Y-49864012D01*
X79573897Y-49643441D01*
X79672895Y-49404440D01*
X79733285Y-49152895D01*
X79753582Y-48895000D01*
X106936418Y-48895000D01*
X106956715Y-49152898D01*
X107017102Y-49404430D01*
X107017106Y-49404442D01*
X107116102Y-49643441D01*
X107251267Y-49864009D01*
X107251270Y-49864014D01*
X107327426Y-49953181D01*
X107419276Y-50060724D01*
X107545191Y-50168265D01*
X107615985Y-50228729D01*
X107615990Y-50228732D01*
X107836558Y-50363897D01*
X107921057Y-50398897D01*
X108075560Y-50462895D01*
X108327105Y-50523285D01*
X108585000Y-50543582D01*
X108842895Y-50523285D01*
X109094440Y-50462895D01*
X109333441Y-50363897D01*
X109554012Y-50228731D01*
X109750724Y-50060724D01*
X109918731Y-49864012D01*
X110053897Y-49643441D01*
X110152895Y-49404440D01*
X110213285Y-49152895D01*
X110233582Y-48895000D01*
X110213285Y-48637105D01*
X110152895Y-48385560D01*
X110053897Y-48146559D01*
X110053897Y-48146558D01*
X109942462Y-47964713D01*
X109918731Y-47925988D01*
X109918730Y-47925987D01*
X109918729Y-47925985D01*
X109825705Y-47817068D01*
X109750724Y-47729276D01*
X109591284Y-47593102D01*
X109554014Y-47561270D01*
X109554009Y-47561267D01*
X109333441Y-47426102D01*
X109094442Y-47327106D01*
X109094444Y-47327106D01*
X109094440Y-47327105D01*
X109094436Y-47327104D01*
X109094430Y-47327102D01*
X108842898Y-47266715D01*
X108585000Y-47246418D01*
X108327101Y-47266715D01*
X108075569Y-47327102D01*
X108075557Y-47327106D01*
X107836558Y-47426102D01*
X107615990Y-47561267D01*
X107615985Y-47561270D01*
X107419276Y-47729276D01*
X107251270Y-47925985D01*
X107251267Y-47925990D01*
X107116102Y-48146558D01*
X107017106Y-48385557D01*
X107017102Y-48385569D01*
X106956715Y-48637101D01*
X106936418Y-48895000D01*
X79753582Y-48895000D01*
X79733285Y-48637105D01*
X79672895Y-48385560D01*
X79573897Y-48146559D01*
X79573897Y-48146558D01*
X79462462Y-47964713D01*
X79438731Y-47925988D01*
X79438730Y-47925987D01*
X79438729Y-47925985D01*
X79345705Y-47817068D01*
X79270724Y-47729276D01*
X79148634Y-47625002D01*
X80647677Y-47625002D01*
X80666929Y-47845062D01*
X80666930Y-47845070D01*
X80724104Y-48058445D01*
X80724105Y-48058447D01*
X80724106Y-48058450D01*
X80774953Y-48167492D01*
X80817466Y-48258662D01*
X80817468Y-48258666D01*
X80944170Y-48439615D01*
X80944175Y-48439621D01*
X81100378Y-48595824D01*
X81100384Y-48595829D01*
X81281333Y-48722531D01*
X81281335Y-48722532D01*
X81281338Y-48722534D01*
X81481550Y-48815894D01*
X81694932Y-48873070D01*
X81852123Y-48886822D01*
X81914998Y-48892323D01*
X81915000Y-48892323D01*
X81915002Y-48892323D01*
X81970017Y-48887509D01*
X82135068Y-48873070D01*
X82348450Y-48815894D01*
X82548662Y-48722534D01*
X82729620Y-48595826D01*
X82885826Y-48439620D01*
X83012534Y-48258662D01*
X83072618Y-48129811D01*
X83118790Y-48077371D01*
X83185983Y-48058219D01*
X83252865Y-48078435D01*
X83297382Y-48129811D01*
X83357464Y-48258658D01*
X83357468Y-48258666D01*
X83484170Y-48439615D01*
X83484175Y-48439621D01*
X83640378Y-48595824D01*
X83640384Y-48595829D01*
X83821333Y-48722531D01*
X83821335Y-48722532D01*
X83821338Y-48722534D01*
X84021550Y-48815894D01*
X84234932Y-48873070D01*
X84392123Y-48886822D01*
X84454998Y-48892323D01*
X84455000Y-48892323D01*
X84455002Y-48892323D01*
X84510017Y-48887509D01*
X84675068Y-48873070D01*
X84888450Y-48815894D01*
X85088662Y-48722534D01*
X85269620Y-48595826D01*
X85425826Y-48439620D01*
X85552534Y-48258662D01*
X85612618Y-48129811D01*
X85658790Y-48077371D01*
X85725983Y-48058219D01*
X85792865Y-48078435D01*
X85837382Y-48129811D01*
X85897464Y-48258658D01*
X85897468Y-48258666D01*
X86024170Y-48439615D01*
X86024175Y-48439621D01*
X86180378Y-48595824D01*
X86180384Y-48595829D01*
X86361333Y-48722531D01*
X86361335Y-48722532D01*
X86361338Y-48722534D01*
X86561550Y-48815894D01*
X86774932Y-48873070D01*
X86932123Y-48886822D01*
X86994998Y-48892323D01*
X86995000Y-48892323D01*
X86995002Y-48892323D01*
X87050017Y-48887509D01*
X87215068Y-48873070D01*
X87428450Y-48815894D01*
X87628662Y-48722534D01*
X87809620Y-48595826D01*
X87965826Y-48439620D01*
X88092534Y-48258662D01*
X88152618Y-48129811D01*
X88198790Y-48077371D01*
X88265983Y-48058219D01*
X88332865Y-48078435D01*
X88377382Y-48129811D01*
X88437464Y-48258658D01*
X88437468Y-48258666D01*
X88564170Y-48439615D01*
X88564175Y-48439621D01*
X88720378Y-48595824D01*
X88720384Y-48595829D01*
X88901333Y-48722531D01*
X88901335Y-48722532D01*
X88901338Y-48722534D01*
X89101550Y-48815894D01*
X89314932Y-48873070D01*
X89472123Y-48886822D01*
X89534998Y-48892323D01*
X89535000Y-48892323D01*
X89535002Y-48892323D01*
X89590017Y-48887509D01*
X89755068Y-48873070D01*
X89968450Y-48815894D01*
X90168662Y-48722534D01*
X90349620Y-48595826D01*
X90505826Y-48439620D01*
X90632534Y-48258662D01*
X90692618Y-48129811D01*
X90738790Y-48077371D01*
X90805983Y-48058219D01*
X90872865Y-48078435D01*
X90917382Y-48129811D01*
X90977464Y-48258658D01*
X90977468Y-48258666D01*
X91104170Y-48439615D01*
X91104175Y-48439621D01*
X91260378Y-48595824D01*
X91260384Y-48595829D01*
X91441333Y-48722531D01*
X91441335Y-48722532D01*
X91441338Y-48722534D01*
X91641550Y-48815894D01*
X91854932Y-48873070D01*
X92012123Y-48886822D01*
X92074998Y-48892323D01*
X92075000Y-48892323D01*
X92075002Y-48892323D01*
X92130017Y-48887509D01*
X92295068Y-48873070D01*
X92508450Y-48815894D01*
X92708662Y-48722534D01*
X92889620Y-48595826D01*
X93045826Y-48439620D01*
X93172534Y-48258662D01*
X93232618Y-48129811D01*
X93278790Y-48077371D01*
X93345983Y-48058219D01*
X93412865Y-48078435D01*
X93457382Y-48129811D01*
X93517464Y-48258658D01*
X93517468Y-48258666D01*
X93644170Y-48439615D01*
X93644175Y-48439621D01*
X93800378Y-48595824D01*
X93800384Y-48595829D01*
X93981333Y-48722531D01*
X93981335Y-48722532D01*
X93981338Y-48722534D01*
X94181550Y-48815894D01*
X94394932Y-48873070D01*
X94552123Y-48886822D01*
X94614998Y-48892323D01*
X94615000Y-48892323D01*
X94615002Y-48892323D01*
X94670017Y-48887509D01*
X94835068Y-48873070D01*
X95048450Y-48815894D01*
X95248662Y-48722534D01*
X95429620Y-48595826D01*
X95585826Y-48439620D01*
X95712534Y-48258662D01*
X95772894Y-48129218D01*
X95819066Y-48076779D01*
X95886259Y-48057627D01*
X95953141Y-48077843D01*
X95997658Y-48129219D01*
X96057899Y-48258407D01*
X96057900Y-48258409D01*
X96103258Y-48323187D01*
X96770096Y-47656349D01*
X96770051Y-47656898D01*
X96801266Y-47780162D01*
X96870813Y-47886612D01*
X96971157Y-47964713D01*
X97091422Y-48006000D01*
X97127553Y-48006000D01*
X96456811Y-48676741D01*
X96521582Y-48722094D01*
X96521592Y-48722100D01*
X96721715Y-48815419D01*
X96721729Y-48815424D01*
X96935013Y-48872573D01*
X96935023Y-48872575D01*
X97154999Y-48891821D01*
X97155001Y-48891821D01*
X97374976Y-48872575D01*
X97374986Y-48872573D01*
X97588270Y-48815424D01*
X97588284Y-48815419D01*
X97788408Y-48722100D01*
X97788420Y-48722093D01*
X97853186Y-48676742D01*
X97853187Y-48676740D01*
X97182448Y-48006000D01*
X97186569Y-48006000D01*
X97280421Y-47990339D01*
X97392251Y-47929820D01*
X97478371Y-47836269D01*
X97529448Y-47719823D01*
X97535105Y-47651552D01*
X98206740Y-48323187D01*
X98206742Y-48323186D01*
X98252093Y-48258420D01*
X98252100Y-48258408D01*
X98312342Y-48129219D01*
X98358514Y-48076779D01*
X98425707Y-48057627D01*
X98492588Y-48077842D01*
X98537106Y-48129219D01*
X98597464Y-48258658D01*
X98597468Y-48258666D01*
X98724170Y-48439615D01*
X98724175Y-48439621D01*
X98880378Y-48595824D01*
X98880384Y-48595829D01*
X99061333Y-48722531D01*
X99061335Y-48722532D01*
X99061338Y-48722534D01*
X99261550Y-48815894D01*
X99474932Y-48873070D01*
X99632123Y-48886822D01*
X99694998Y-48892323D01*
X99695000Y-48892323D01*
X99695002Y-48892323D01*
X99750017Y-48887509D01*
X99915068Y-48873070D01*
X100128450Y-48815894D01*
X100328662Y-48722534D01*
X100509620Y-48595826D01*
X100665826Y-48439620D01*
X100792534Y-48258662D01*
X100852618Y-48129811D01*
X100898790Y-48077371D01*
X100965983Y-48058219D01*
X101032865Y-48078435D01*
X101077382Y-48129811D01*
X101137464Y-48258658D01*
X101137468Y-48258666D01*
X101264170Y-48439615D01*
X101264175Y-48439621D01*
X101420378Y-48595824D01*
X101420384Y-48595829D01*
X101601333Y-48722531D01*
X101601335Y-48722532D01*
X101601338Y-48722534D01*
X101801550Y-48815894D01*
X102014932Y-48873070D01*
X102172123Y-48886822D01*
X102234998Y-48892323D01*
X102235000Y-48892323D01*
X102235002Y-48892323D01*
X102290017Y-48887509D01*
X102455068Y-48873070D01*
X102668450Y-48815894D01*
X102868662Y-48722534D01*
X103049620Y-48595826D01*
X103205826Y-48439620D01*
X103332534Y-48258662D01*
X103392618Y-48129811D01*
X103438790Y-48077371D01*
X103505983Y-48058219D01*
X103572865Y-48078435D01*
X103617382Y-48129811D01*
X103677464Y-48258658D01*
X103677468Y-48258666D01*
X103804170Y-48439615D01*
X103804175Y-48439621D01*
X103960378Y-48595824D01*
X103960384Y-48595829D01*
X104141333Y-48722531D01*
X104141335Y-48722532D01*
X104141338Y-48722534D01*
X104341550Y-48815894D01*
X104554932Y-48873070D01*
X104712123Y-48886822D01*
X104774998Y-48892323D01*
X104775000Y-48892323D01*
X104775002Y-48892323D01*
X104830017Y-48887509D01*
X104995068Y-48873070D01*
X105208450Y-48815894D01*
X105408662Y-48722534D01*
X105589620Y-48595826D01*
X105745826Y-48439620D01*
X105872534Y-48258662D01*
X105965894Y-48058450D01*
X106023070Y-47845068D01*
X106042323Y-47625000D01*
X106039532Y-47593102D01*
X106024922Y-47426102D01*
X106023070Y-47404932D01*
X105965894Y-47191550D01*
X105872534Y-46991339D01*
X105745826Y-46810380D01*
X105589620Y-46654174D01*
X105589616Y-46654171D01*
X105589615Y-46654170D01*
X105408666Y-46527468D01*
X105408662Y-46527466D01*
X105318663Y-46485499D01*
X105208450Y-46434106D01*
X105208447Y-46434105D01*
X105208445Y-46434104D01*
X104995070Y-46376930D01*
X104995062Y-46376929D01*
X104775002Y-46357677D01*
X104774998Y-46357677D01*
X104554937Y-46376929D01*
X104554929Y-46376930D01*
X104341554Y-46434104D01*
X104341548Y-46434107D01*
X104141340Y-46527465D01*
X104141338Y-46527466D01*
X103960377Y-46654175D01*
X103804175Y-46810377D01*
X103677466Y-46991338D01*
X103677465Y-46991340D01*
X103617382Y-47120189D01*
X103571209Y-47172628D01*
X103504016Y-47191780D01*
X103437135Y-47171564D01*
X103392618Y-47120189D01*
X103332652Y-46991593D01*
X103332534Y-46991339D01*
X103205826Y-46810380D01*
X103049620Y-46654174D01*
X103049616Y-46654171D01*
X103049615Y-46654170D01*
X102868666Y-46527468D01*
X102868662Y-46527466D01*
X102778663Y-46485499D01*
X102668450Y-46434106D01*
X102668447Y-46434105D01*
X102668445Y-46434104D01*
X102455070Y-46376930D01*
X102455062Y-46376929D01*
X102235002Y-46357677D01*
X102234998Y-46357677D01*
X102014937Y-46376929D01*
X102014929Y-46376930D01*
X101801554Y-46434104D01*
X101801548Y-46434107D01*
X101601340Y-46527465D01*
X101601338Y-46527466D01*
X101420377Y-46654175D01*
X101264175Y-46810377D01*
X101137466Y-46991338D01*
X101137465Y-46991340D01*
X101077382Y-47120189D01*
X101031209Y-47172628D01*
X100964016Y-47191780D01*
X100897135Y-47171564D01*
X100852618Y-47120189D01*
X100792652Y-46991593D01*
X100792534Y-46991339D01*
X100665826Y-46810380D01*
X100509620Y-46654174D01*
X100509616Y-46654171D01*
X100509615Y-46654170D01*
X100328666Y-46527468D01*
X100328662Y-46527466D01*
X100238663Y-46485499D01*
X100128450Y-46434106D01*
X100128447Y-46434105D01*
X100128445Y-46434104D01*
X99915070Y-46376930D01*
X99915062Y-46376929D01*
X99695002Y-46357677D01*
X99694998Y-46357677D01*
X99474937Y-46376929D01*
X99474929Y-46376930D01*
X99261554Y-46434104D01*
X99261548Y-46434107D01*
X99061340Y-46527465D01*
X99061338Y-46527466D01*
X98880377Y-46654175D01*
X98724175Y-46810377D01*
X98597467Y-46991337D01*
X98597466Y-46991339D01*
X98597348Y-46991593D01*
X98537105Y-47120782D01*
X98490932Y-47173221D01*
X98423738Y-47192372D01*
X98356857Y-47172156D01*
X98312341Y-47120780D01*
X98252100Y-46991593D01*
X98252099Y-46991591D01*
X98206740Y-46926811D01*
X97539903Y-47593648D01*
X97539949Y-47593102D01*
X97508734Y-47469838D01*
X97439187Y-47363388D01*
X97338843Y-47285287D01*
X97218578Y-47244000D01*
X97182447Y-47244000D01*
X97853187Y-46573258D01*
X97788409Y-46527900D01*
X97788407Y-46527899D01*
X97588284Y-46434580D01*
X97588270Y-46434575D01*
X97374986Y-46377426D01*
X97374976Y-46377424D01*
X97155001Y-46358179D01*
X97154999Y-46358179D01*
X96935023Y-46377424D01*
X96935013Y-46377426D01*
X96721729Y-46434575D01*
X96721720Y-46434579D01*
X96521586Y-46527903D01*
X96456812Y-46573257D01*
X96456811Y-46573258D01*
X97127554Y-47244000D01*
X97123431Y-47244000D01*
X97029579Y-47259661D01*
X96917749Y-47320180D01*
X96831629Y-47413731D01*
X96780552Y-47530177D01*
X96774894Y-47598447D01*
X96103258Y-46926811D01*
X96103257Y-46926812D01*
X96057903Y-46991586D01*
X95997658Y-47120781D01*
X95951485Y-47173220D01*
X95884292Y-47192372D01*
X95817411Y-47172156D01*
X95772894Y-47120781D01*
X95712652Y-46991593D01*
X95712534Y-46991339D01*
X95585826Y-46810380D01*
X95429620Y-46654174D01*
X95429616Y-46654171D01*
X95429615Y-46654170D01*
X95248666Y-46527468D01*
X95248662Y-46527466D01*
X95158663Y-46485499D01*
X95048450Y-46434106D01*
X95048447Y-46434105D01*
X95048445Y-46434104D01*
X94835070Y-46376930D01*
X94835062Y-46376929D01*
X94615002Y-46357677D01*
X94614998Y-46357677D01*
X94394937Y-46376929D01*
X94394929Y-46376930D01*
X94181554Y-46434104D01*
X94181548Y-46434107D01*
X93981340Y-46527465D01*
X93981338Y-46527466D01*
X93800377Y-46654175D01*
X93644175Y-46810377D01*
X93517466Y-46991338D01*
X93517465Y-46991340D01*
X93457382Y-47120189D01*
X93411209Y-47172628D01*
X93344016Y-47191780D01*
X93277135Y-47171564D01*
X93232618Y-47120189D01*
X93172652Y-46991593D01*
X93172534Y-46991339D01*
X93045826Y-46810380D01*
X92889620Y-46654174D01*
X92889616Y-46654171D01*
X92889615Y-46654170D01*
X92708666Y-46527468D01*
X92708662Y-46527466D01*
X92618663Y-46485499D01*
X92508450Y-46434106D01*
X92508447Y-46434105D01*
X92508445Y-46434104D01*
X92295070Y-46376930D01*
X92295062Y-46376929D01*
X92075002Y-46357677D01*
X92074998Y-46357677D01*
X91854937Y-46376929D01*
X91854929Y-46376930D01*
X91641554Y-46434104D01*
X91641548Y-46434107D01*
X91441340Y-46527465D01*
X91441338Y-46527466D01*
X91260377Y-46654175D01*
X91104175Y-46810377D01*
X90977466Y-46991338D01*
X90977465Y-46991340D01*
X90917382Y-47120189D01*
X90871209Y-47172628D01*
X90804016Y-47191780D01*
X90737135Y-47171564D01*
X90692618Y-47120189D01*
X90632652Y-46991593D01*
X90632534Y-46991339D01*
X90505826Y-46810380D01*
X90349620Y-46654174D01*
X90349616Y-46654171D01*
X90349615Y-46654170D01*
X90168666Y-46527468D01*
X90168662Y-46527466D01*
X90078663Y-46485499D01*
X89968450Y-46434106D01*
X89968447Y-46434105D01*
X89968445Y-46434104D01*
X89755070Y-46376930D01*
X89755062Y-46376929D01*
X89535002Y-46357677D01*
X89534998Y-46357677D01*
X89314937Y-46376929D01*
X89314929Y-46376930D01*
X89101554Y-46434104D01*
X89101548Y-46434107D01*
X88901340Y-46527465D01*
X88901338Y-46527466D01*
X88720377Y-46654175D01*
X88564175Y-46810377D01*
X88437466Y-46991338D01*
X88437465Y-46991340D01*
X88377382Y-47120189D01*
X88331209Y-47172628D01*
X88264016Y-47191780D01*
X88197135Y-47171564D01*
X88152618Y-47120189D01*
X88092652Y-46991593D01*
X88092534Y-46991339D01*
X87965826Y-46810380D01*
X87809620Y-46654174D01*
X87809616Y-46654171D01*
X87809615Y-46654170D01*
X87628666Y-46527468D01*
X87628662Y-46527466D01*
X87538663Y-46485499D01*
X87428450Y-46434106D01*
X87428447Y-46434105D01*
X87428445Y-46434104D01*
X87215070Y-46376930D01*
X87215062Y-46376929D01*
X86995002Y-46357677D01*
X86994998Y-46357677D01*
X86774937Y-46376929D01*
X86774929Y-46376930D01*
X86561554Y-46434104D01*
X86561548Y-46434107D01*
X86361340Y-46527465D01*
X86361338Y-46527466D01*
X86180377Y-46654175D01*
X86024175Y-46810377D01*
X85897466Y-46991338D01*
X85897465Y-46991340D01*
X85837382Y-47120189D01*
X85791209Y-47172628D01*
X85724016Y-47191780D01*
X85657135Y-47171564D01*
X85612618Y-47120189D01*
X85552652Y-46991593D01*
X85552534Y-46991339D01*
X85425826Y-46810380D01*
X85269620Y-46654174D01*
X85269616Y-46654171D01*
X85269615Y-46654170D01*
X85088666Y-46527468D01*
X85088662Y-46527466D01*
X84998663Y-46485499D01*
X84888450Y-46434106D01*
X84888447Y-46434105D01*
X84888445Y-46434104D01*
X84675070Y-46376930D01*
X84675062Y-46376929D01*
X84455002Y-46357677D01*
X84454998Y-46357677D01*
X84234937Y-46376929D01*
X84234929Y-46376930D01*
X84021554Y-46434104D01*
X84021548Y-46434107D01*
X83821340Y-46527465D01*
X83821338Y-46527466D01*
X83640377Y-46654175D01*
X83484175Y-46810377D01*
X83357466Y-46991338D01*
X83357465Y-46991340D01*
X83297382Y-47120189D01*
X83251209Y-47172628D01*
X83184016Y-47191780D01*
X83117135Y-47171564D01*
X83072618Y-47120189D01*
X83012652Y-46991593D01*
X83012534Y-46991339D01*
X82885826Y-46810380D01*
X82729620Y-46654174D01*
X82729616Y-46654171D01*
X82729615Y-46654170D01*
X82548666Y-46527468D01*
X82548662Y-46527466D01*
X82458663Y-46485499D01*
X82348450Y-46434106D01*
X82348447Y-46434105D01*
X82348445Y-46434104D01*
X82135070Y-46376930D01*
X82135062Y-46376929D01*
X81915002Y-46357677D01*
X81914998Y-46357677D01*
X81694937Y-46376929D01*
X81694929Y-46376930D01*
X81481554Y-46434104D01*
X81481548Y-46434107D01*
X81281340Y-46527465D01*
X81281338Y-46527466D01*
X81100377Y-46654175D01*
X80944175Y-46810377D01*
X80817466Y-46991338D01*
X80817465Y-46991340D01*
X80724107Y-47191548D01*
X80724104Y-47191554D01*
X80666930Y-47404929D01*
X80666929Y-47404937D01*
X80647677Y-47624997D01*
X80647677Y-47625002D01*
X79148634Y-47625002D01*
X79111284Y-47593102D01*
X79074014Y-47561270D01*
X79074009Y-47561267D01*
X78853441Y-47426102D01*
X78614442Y-47327106D01*
X78614444Y-47327106D01*
X78614440Y-47327105D01*
X78614436Y-47327104D01*
X78614430Y-47327102D01*
X78362898Y-47266715D01*
X78105000Y-47246418D01*
X77847101Y-47266715D01*
X77595569Y-47327102D01*
X77595557Y-47327106D01*
X77356558Y-47426102D01*
X77135990Y-47561267D01*
X77135985Y-47561270D01*
X76939276Y-47729276D01*
X76771270Y-47925985D01*
X76771267Y-47925990D01*
X76636102Y-48146558D01*
X76537106Y-48385557D01*
X76537102Y-48385569D01*
X76476715Y-48637101D01*
X76456418Y-48895000D01*
X52822500Y-48895000D01*
X52822500Y-48448451D01*
X52842185Y-48381412D01*
X52858814Y-48360775D01*
X54751480Y-46468108D01*
X54812801Y-46434625D01*
X54879420Y-46438509D01*
X54905019Y-46447298D01*
X55133951Y-46485500D01*
X55133952Y-46485500D01*
X55366048Y-46485500D01*
X55366049Y-46485500D01*
X55594981Y-46447298D01*
X55814503Y-46371936D01*
X56018626Y-46261470D01*
X56201784Y-46118913D01*
X56210130Y-46109846D01*
X56270010Y-46073854D01*
X56339849Y-46075949D01*
X56397468Y-46115469D01*
X56417544Y-46150491D01*
X56446203Y-46227330D01*
X56446206Y-46227335D01*
X56532452Y-46342544D01*
X56532455Y-46342547D01*
X56647664Y-46428793D01*
X56647671Y-46428797D01*
X56782517Y-46479091D01*
X56782516Y-46479091D01*
X56789444Y-46479835D01*
X56842127Y-46485500D01*
X58737872Y-46485499D01*
X58797483Y-46479091D01*
X58932331Y-46428796D01*
X59047546Y-46342546D01*
X59133796Y-46227331D01*
X59184091Y-46092483D01*
X59190500Y-46032873D01*
X59190499Y-44137128D01*
X59184091Y-44077517D01*
X59178550Y-44062662D01*
X59133797Y-43942671D01*
X59133793Y-43942664D01*
X59047547Y-43827455D01*
X59047544Y-43827452D01*
X58932335Y-43741206D01*
X58932328Y-43741202D01*
X58797482Y-43690908D01*
X58797483Y-43690908D01*
X58737883Y-43684501D01*
X58737881Y-43684500D01*
X58737873Y-43684500D01*
X58737864Y-43684500D01*
X56842129Y-43684500D01*
X56842123Y-43684501D01*
X56782516Y-43690908D01*
X56647671Y-43741202D01*
X56647664Y-43741206D01*
X56532455Y-43827452D01*
X56532452Y-43827455D01*
X56446206Y-43942664D01*
X56446203Y-43942670D01*
X56417544Y-44019508D01*
X56375672Y-44075441D01*
X56310208Y-44099858D01*
X56241935Y-44085006D01*
X56210135Y-44060158D01*
X56201784Y-44051087D01*
X56201778Y-44051082D01*
X56201777Y-44051081D01*
X56018634Y-43908535D01*
X56018628Y-43908531D01*
X55814504Y-43798064D01*
X55814495Y-43798061D01*
X55594984Y-43722702D01*
X55404450Y-43690908D01*
X55366049Y-43684500D01*
X55133951Y-43684500D01*
X55095550Y-43690908D01*
X54905015Y-43722702D01*
X54685504Y-43798061D01*
X54685495Y-43798064D01*
X54481371Y-43908531D01*
X54481365Y-43908535D01*
X54298222Y-44051081D01*
X54298219Y-44051084D01*
X54298216Y-44051086D01*
X54298216Y-44051087D01*
X54253319Y-44099858D01*
X54141016Y-44221852D01*
X54014075Y-44416151D01*
X53920842Y-44628699D01*
X53863866Y-44853691D01*
X53863864Y-44853702D01*
X53844700Y-45084993D01*
X53844700Y-45085006D01*
X53863864Y-45316297D01*
X53863866Y-45316309D01*
X53901175Y-45463637D01*
X53898550Y-45533457D01*
X53868650Y-45581758D01*
X51813208Y-47637199D01*
X51800951Y-47647020D01*
X51801134Y-47647241D01*
X51795123Y-47652213D01*
X51747772Y-47702636D01*
X51726889Y-47723519D01*
X51726877Y-47723532D01*
X51722621Y-47729017D01*
X51718837Y-47733447D01*
X51686937Y-47767418D01*
X51686936Y-47767420D01*
X51677284Y-47784976D01*
X51666610Y-47801226D01*
X51654329Y-47817061D01*
X51654324Y-47817068D01*
X51635815Y-47859838D01*
X51633245Y-47865084D01*
X51610803Y-47905906D01*
X51605822Y-47925307D01*
X51599521Y-47943710D01*
X51591562Y-47962102D01*
X51591561Y-47962105D01*
X51584271Y-48008127D01*
X51583087Y-48013846D01*
X51571501Y-48058972D01*
X51571500Y-48058982D01*
X51571500Y-48079016D01*
X51569973Y-48098415D01*
X51566840Y-48118194D01*
X51566840Y-48118195D01*
X51571225Y-48164583D01*
X51571500Y-48170421D01*
X51571500Y-103949312D01*
X51551815Y-104016351D01*
X51539650Y-104032284D01*
X51464466Y-104115784D01*
X51369821Y-104279715D01*
X51369818Y-104279722D01*
X51311327Y-104459740D01*
X51311326Y-104459744D01*
X51291540Y-104648000D01*
X40894500Y-104648000D01*
X40894500Y-91440000D01*
X44134935Y-91440000D01*
X44155156Y-91671132D01*
X44155158Y-91671142D01*
X44215205Y-91895243D01*
X44215207Y-91895247D01*
X44215208Y-91895251D01*
X44290069Y-92055790D01*
X44313264Y-92105532D01*
X44313266Y-92105536D01*
X44446345Y-92295593D01*
X44610406Y-92459654D01*
X44800463Y-92592733D01*
X44800465Y-92592734D01*
X44800468Y-92592736D01*
X45010749Y-92690792D01*
X45234863Y-92750843D01*
X45408107Y-92766000D01*
X46031893Y-92766000D01*
X46205137Y-92750843D01*
X46429251Y-92690792D01*
X46639532Y-92592736D01*
X46829592Y-92459655D01*
X46993655Y-92295592D01*
X47126736Y-92105533D01*
X47224792Y-91895251D01*
X47284843Y-91671137D01*
X47305065Y-91440000D01*
X47284843Y-91208863D01*
X47224792Y-90984749D01*
X47126736Y-90774468D01*
X47126734Y-90774465D01*
X47126733Y-90774463D01*
X46993654Y-90584406D01*
X46829593Y-90420345D01*
X46639536Y-90287266D01*
X46639532Y-90287264D01*
X46429251Y-90189208D01*
X46429247Y-90189207D01*
X46429243Y-90189205D01*
X46205142Y-90129158D01*
X46205132Y-90129156D01*
X46031893Y-90114000D01*
X45408107Y-90114000D01*
X45234867Y-90129156D01*
X45234857Y-90129158D01*
X45010756Y-90189205D01*
X45010747Y-90189209D01*
X44800467Y-90287264D01*
X44800463Y-90287266D01*
X44610406Y-90420345D01*
X44446349Y-90584403D01*
X44313263Y-90774467D01*
X44215209Y-90984747D01*
X44215205Y-90984756D01*
X44155158Y-91208857D01*
X44155156Y-91208867D01*
X44134935Y-91439999D01*
X44134935Y-91440000D01*
X40894500Y-91440000D01*
X40894500Y-86360000D01*
X44134935Y-86360000D01*
X44155156Y-86591132D01*
X44155158Y-86591142D01*
X44215205Y-86815243D01*
X44215207Y-86815247D01*
X44215208Y-86815251D01*
X44282394Y-86959332D01*
X44313264Y-87025532D01*
X44313266Y-87025536D01*
X44446345Y-87215593D01*
X44610406Y-87379654D01*
X44800463Y-87512733D01*
X44800465Y-87512734D01*
X44800468Y-87512736D01*
X45010749Y-87610792D01*
X45010755Y-87610793D01*
X45010756Y-87610794D01*
X45064696Y-87625247D01*
X45234863Y-87670843D01*
X45408107Y-87686000D01*
X46031893Y-87686000D01*
X46205137Y-87670843D01*
X46429251Y-87610792D01*
X46639532Y-87512736D01*
X46829592Y-87379655D01*
X46993655Y-87215592D01*
X47126736Y-87025533D01*
X47224792Y-86815251D01*
X47284843Y-86591137D01*
X47305065Y-86360000D01*
X47284843Y-86128863D01*
X47265992Y-86058511D01*
X47267655Y-85988664D01*
X47298084Y-85938740D01*
X47376239Y-85860586D01*
X47376242Y-85860585D01*
X47506585Y-85730242D01*
X47529331Y-85694040D01*
X47533351Y-85688374D01*
X47560003Y-85654956D01*
X47578556Y-85616427D01*
X47581905Y-85610369D01*
X47604656Y-85574163D01*
X47618779Y-85533798D01*
X47621435Y-85527389D01*
X47639982Y-85488878D01*
X47649493Y-85447205D01*
X47651420Y-85440516D01*
X47656693Y-85425448D01*
X47665537Y-85400174D01*
X47670323Y-85357683D01*
X47671482Y-85350861D01*
X47681000Y-85309166D01*
X47681000Y-85124834D01*
X47681000Y-69850002D01*
X48262677Y-69850002D01*
X48281929Y-70070062D01*
X48281930Y-70070070D01*
X48339104Y-70283445D01*
X48339105Y-70283447D01*
X48339106Y-70283450D01*
X48385160Y-70382214D01*
X48432466Y-70483662D01*
X48432468Y-70483666D01*
X48559170Y-70664615D01*
X48559175Y-70664621D01*
X48715378Y-70820824D01*
X48715384Y-70820829D01*
X48896333Y-70947531D01*
X48896335Y-70947532D01*
X48896338Y-70947534D01*
X49096550Y-71040894D01*
X49309932Y-71098070D01*
X49467123Y-71111822D01*
X49529998Y-71117323D01*
X49530000Y-71117323D01*
X49530002Y-71117323D01*
X49585017Y-71112509D01*
X49750068Y-71098070D01*
X49963450Y-71040894D01*
X50163662Y-70947534D01*
X50344620Y-70820826D01*
X50500826Y-70664620D01*
X50627534Y-70483662D01*
X50720894Y-70283450D01*
X50778070Y-70070068D01*
X50797323Y-69850000D01*
X50778070Y-69629932D01*
X50720894Y-69416550D01*
X50627534Y-69216339D01*
X50500826Y-69035380D01*
X50344620Y-68879174D01*
X50344616Y-68879171D01*
X50344615Y-68879170D01*
X50163666Y-68752468D01*
X50163662Y-68752466D01*
X50163660Y-68752465D01*
X49963450Y-68659106D01*
X49963447Y-68659105D01*
X49963445Y-68659104D01*
X49750070Y-68601930D01*
X49750062Y-68601929D01*
X49530002Y-68582677D01*
X49529998Y-68582677D01*
X49309937Y-68601929D01*
X49309929Y-68601930D01*
X49096554Y-68659104D01*
X49096548Y-68659107D01*
X48896340Y-68752465D01*
X48896338Y-68752466D01*
X48715377Y-68879175D01*
X48559175Y-69035377D01*
X48432466Y-69216338D01*
X48432465Y-69216340D01*
X48339107Y-69416548D01*
X48339104Y-69416554D01*
X48281930Y-69629929D01*
X48281929Y-69629937D01*
X48262677Y-69849997D01*
X48262677Y-69850002D01*
X47681000Y-69850002D01*
X47681000Y-67827187D01*
X47700685Y-67760148D01*
X47717314Y-67739511D01*
X49387507Y-66069317D01*
X49448828Y-66035834D01*
X49485989Y-66033472D01*
X49530000Y-66037323D01*
X49750068Y-66018070D01*
X49963450Y-65960894D01*
X50163662Y-65867534D01*
X50344620Y-65740826D01*
X50500826Y-65584620D01*
X50627534Y-65403662D01*
X50720894Y-65203450D01*
X50778070Y-64990068D01*
X50797323Y-64770000D01*
X50778070Y-64549932D01*
X50720894Y-64336550D01*
X50627534Y-64136339D01*
X50500826Y-63955380D01*
X50344620Y-63799174D01*
X50344616Y-63799171D01*
X50344615Y-63799170D01*
X50163666Y-63672468D01*
X50163662Y-63672466D01*
X50163660Y-63672465D01*
X49963450Y-63579106D01*
X49963447Y-63579105D01*
X49963445Y-63579104D01*
X49750070Y-63521930D01*
X49750062Y-63521929D01*
X49530002Y-63502677D01*
X49529998Y-63502677D01*
X49309937Y-63521929D01*
X49309929Y-63521930D01*
X49096554Y-63579104D01*
X49096548Y-63579107D01*
X48896340Y-63672465D01*
X48896338Y-63672466D01*
X48715377Y-63799175D01*
X48559175Y-63955377D01*
X48432466Y-64136338D01*
X48432465Y-64136340D01*
X48339107Y-64336548D01*
X48339104Y-64336554D01*
X48281930Y-64549929D01*
X48281929Y-64549937D01*
X48262677Y-64769997D01*
X48262677Y-64770004D01*
X48266526Y-64814007D01*
X48252758Y-64882506D01*
X48230679Y-64912493D01*
X46349760Y-66793413D01*
X46219417Y-66923755D01*
X46219414Y-66923759D01*
X46196673Y-66959950D01*
X46192648Y-66965622D01*
X46165999Y-66999040D01*
X46147450Y-67037556D01*
X46144085Y-67043644D01*
X46121345Y-67079834D01*
X46107226Y-67120183D01*
X46104564Y-67126610D01*
X46086018Y-67165121D01*
X46076506Y-67206793D01*
X46074580Y-67213477D01*
X46060462Y-67253827D01*
X46060461Y-67253830D01*
X46055677Y-67296300D01*
X46054511Y-67303159D01*
X46045000Y-67344827D01*
X46045000Y-84826812D01*
X46025315Y-84893851D01*
X46008681Y-84914493D01*
X45925493Y-84997681D01*
X45864170Y-85031166D01*
X45837812Y-85034000D01*
X45408107Y-85034000D01*
X45234867Y-85049156D01*
X45234857Y-85049158D01*
X45010756Y-85109205D01*
X45010749Y-85109207D01*
X45010749Y-85109208D01*
X44990095Y-85118839D01*
X44800467Y-85207264D01*
X44800463Y-85207266D01*
X44610406Y-85340345D01*
X44446349Y-85504403D01*
X44446346Y-85504406D01*
X44446345Y-85504408D01*
X44425750Y-85533821D01*
X44313263Y-85694467D01*
X44215209Y-85904747D01*
X44215205Y-85904756D01*
X44155158Y-86128857D01*
X44155156Y-86128867D01*
X44134935Y-86359999D01*
X44134935Y-86360000D01*
X40894500Y-86360000D01*
X40894500Y-69850002D01*
X43182677Y-69850002D01*
X43201929Y-70070062D01*
X43201930Y-70070070D01*
X43259104Y-70283445D01*
X43259105Y-70283447D01*
X43259106Y-70283450D01*
X43305160Y-70382214D01*
X43352466Y-70483662D01*
X43352468Y-70483666D01*
X43479170Y-70664615D01*
X43479175Y-70664621D01*
X43635378Y-70820824D01*
X43635384Y-70820829D01*
X43816333Y-70947531D01*
X43816335Y-70947532D01*
X43816338Y-70947534D01*
X44016550Y-71040894D01*
X44229932Y-71098070D01*
X44387123Y-71111822D01*
X44449998Y-71117323D01*
X44450000Y-71117323D01*
X44450002Y-71117323D01*
X44505017Y-71112509D01*
X44670068Y-71098070D01*
X44883450Y-71040894D01*
X45083662Y-70947534D01*
X45264620Y-70820826D01*
X45420826Y-70664620D01*
X45547534Y-70483662D01*
X45640894Y-70283450D01*
X45698070Y-70070068D01*
X45717323Y-69850000D01*
X45698070Y-69629932D01*
X45640894Y-69416550D01*
X45547534Y-69216339D01*
X45420826Y-69035380D01*
X45264620Y-68879174D01*
X45264616Y-68879171D01*
X45264615Y-68879170D01*
X45083666Y-68752468D01*
X45083662Y-68752466D01*
X45083660Y-68752465D01*
X44883450Y-68659106D01*
X44883447Y-68659105D01*
X44883445Y-68659104D01*
X44670070Y-68601930D01*
X44670062Y-68601929D01*
X44450002Y-68582677D01*
X44449998Y-68582677D01*
X44229937Y-68601929D01*
X44229929Y-68601930D01*
X44016554Y-68659104D01*
X44016548Y-68659107D01*
X43816340Y-68752465D01*
X43816338Y-68752466D01*
X43635377Y-68879175D01*
X43479175Y-69035377D01*
X43352466Y-69216338D01*
X43352465Y-69216340D01*
X43259107Y-69416548D01*
X43259104Y-69416554D01*
X43201930Y-69629929D01*
X43201929Y-69629937D01*
X43182677Y-69849997D01*
X43182677Y-69850002D01*
X40894500Y-69850002D01*
X40894500Y-64770002D01*
X43182677Y-64770002D01*
X43201929Y-64990062D01*
X43201930Y-64990070D01*
X43259104Y-65203445D01*
X43259105Y-65203447D01*
X43259106Y-65203450D01*
X43324524Y-65343740D01*
X43352466Y-65403662D01*
X43352468Y-65403666D01*
X43479170Y-65584615D01*
X43479175Y-65584621D01*
X43635378Y-65740824D01*
X43635384Y-65740829D01*
X43816333Y-65867531D01*
X43816335Y-65867532D01*
X43816338Y-65867534D01*
X44016550Y-65960894D01*
X44229932Y-66018070D01*
X44387123Y-66031822D01*
X44449998Y-66037323D01*
X44450000Y-66037323D01*
X44450002Y-66037323D01*
X44505017Y-66032509D01*
X44670068Y-66018070D01*
X44883450Y-65960894D01*
X45083662Y-65867534D01*
X45264620Y-65740826D01*
X45420826Y-65584620D01*
X45547534Y-65403662D01*
X45640894Y-65203450D01*
X45698070Y-64990068D01*
X45717323Y-64770000D01*
X45698070Y-64549932D01*
X45640894Y-64336550D01*
X45547534Y-64136339D01*
X45420826Y-63955380D01*
X45264620Y-63799174D01*
X45264616Y-63799171D01*
X45264615Y-63799170D01*
X45083666Y-63672468D01*
X45083662Y-63672466D01*
X45083660Y-63672465D01*
X44883450Y-63579106D01*
X44883447Y-63579105D01*
X44883445Y-63579104D01*
X44670070Y-63521930D01*
X44670062Y-63521929D01*
X44450002Y-63502677D01*
X44449998Y-63502677D01*
X44229937Y-63521929D01*
X44229929Y-63521930D01*
X44016554Y-63579104D01*
X44016548Y-63579107D01*
X43816340Y-63672465D01*
X43816338Y-63672466D01*
X43635377Y-63799175D01*
X43479175Y-63955377D01*
X43352466Y-64136338D01*
X43352465Y-64136340D01*
X43259107Y-64336548D01*
X43259104Y-64336554D01*
X43201930Y-64549929D01*
X43201929Y-64549937D01*
X43182677Y-64769997D01*
X43182677Y-64770002D01*
X40894500Y-64770002D01*
X40894500Y-46139486D01*
X40914185Y-46072447D01*
X40966989Y-46026692D01*
X41036147Y-46016748D01*
X41099703Y-46045773D01*
X41128985Y-46083192D01*
X41240874Y-46302788D01*
X41240875Y-46302791D01*
X41452122Y-46628082D01*
X41452124Y-46628084D01*
X41696219Y-46929516D01*
X41970484Y-47203781D01*
X42114225Y-47320180D01*
X42271917Y-47447877D01*
X42597206Y-47659122D01*
X42597211Y-47659125D01*
X42942806Y-47835214D01*
X43304913Y-47974214D01*
X43679567Y-48074602D01*
X44062662Y-48135278D01*
X44428576Y-48154455D01*
X44449999Y-48155578D01*
X44450000Y-48155578D01*
X44450001Y-48155578D01*
X44470301Y-48154514D01*
X44837338Y-48135278D01*
X45220433Y-48074602D01*
X45595087Y-47974214D01*
X45957194Y-47835214D01*
X46302789Y-47659125D01*
X46628084Y-47447876D01*
X46929516Y-47203781D01*
X47203781Y-46929516D01*
X47447876Y-46628084D01*
X47659125Y-46302789D01*
X47835214Y-45957194D01*
X47974214Y-45595087D01*
X48074602Y-45220433D01*
X48135278Y-44837338D01*
X48155578Y-44450000D01*
X48135278Y-44062662D01*
X48074602Y-43679567D01*
X47974214Y-43304913D01*
X47835214Y-42942806D01*
X47659125Y-42597211D01*
X47659122Y-42597206D01*
X47447877Y-42271917D01*
X47203784Y-41970488D01*
X47203781Y-41970484D01*
X46929516Y-41696219D01*
X46628084Y-41452124D01*
X46628082Y-41452122D01*
X46302793Y-41240877D01*
X46083192Y-41128985D01*
X46032396Y-41081011D01*
X46015601Y-41013190D01*
X46038138Y-40947055D01*
X46092853Y-40903603D01*
X46139487Y-40894500D01*
X136740513Y-40894500D01*
X136807552Y-40914185D01*
G37*
%TD.AperFunction*%
%TD*%
M02*
